<svg xmlns="http://www.w3.org/2000/svg" fill="none" viewBox="0 0 102 143"><path fill="#FFF4F4" d="M62.129 139.363c19.532 0 35.367-15.218 35.367-33.99 0-18.773-15.835-33.99-35.367-33.99-19.533 0-35.367 15.217-35.367 33.99 0 18.772 15.834 33.99 35.367 33.99z"/><path fill="#333" d="M18.729 47.27l-.725-2.021a29.303 29.303 0 0 1-1.39-14.257 29.769 29.769 0 0 1 5.548-13.288c2.924-3.942 6.784-7.157 11.26-9.377a32.694 32.694 0 0 1 14.475-3.389h.725l.13.348c1.24 3.345.073 7.01-1.116 9.491-3.705 7.665-11.006 13.205-18.17 18.194l-.188.132c-2.48 1.721-5.075 3.484-7.04 5.749a12.81 12.81 0 0 0-3.205 6.271l-.304 2.146zM47.868 5.982a31.591 31.591 0 0 0-13.53 3.072c-4.204 2.008-7.871 4.92-10.716 8.511a28.848 28.848 0 0 0-5.687 12.192c-.896 4.43-.719 8.998.518 13.351a14.916 14.916 0 0 1 2.973-4.94c2.08-2.334 4.705-4.18 7.25-5.916l.196-.132c7.04-4.878 14.218-10.32 17.814-17.776 1.044-2.223 2.102-5.435 1.189-8.362h-.007z"/><path fill="#333" d="M49.002 65.7H47.9c-6.574-.004-12.984-1.974-18.341-5.636C24.2 56.402 20.162 51.23 18 45.263v-.258a13.722 13.722 0 0 1 3.444-6.836c2.08-2.334 4.705-4.18 7.25-5.916l.196-.132c7.04-4.878 14.218-10.32 17.814-17.783 1.11-2.3 2.175-5.686 1.08-8.703l-.26-.697h.775a32.96 32.96 0 0 1 8.78 1.29h.203l.174.229a20.104 20.104 0 0 1 2.777 4.933c.74 2.393.919 4.913.522 7.38-.935 7.595-4.64 14.55-8.222 21.28a250.128 250.128 0 0 0-2.392 4.558c-2.306 4.494-4.35 9.33-3.821 14.2a14.09 14.09 0 0 0 2.175 6.084l.507.808zM19.08 45.04c2.058 5.602 5.834 10.474 10.83 13.973 4.995 3.499 10.977 5.461 17.156 5.628a14.981 14.981 0 0 1-1.856-5.714c-.572-5.136 1.545-10.139 3.923-14.772a277.02 277.02 0 0 1 2.4-4.578c3.538-6.641 7.2-13.519 8.12-20.905a15.298 15.298 0 0 0-.486-6.933 18.591 18.591 0 0 0-2.53-4.515 31.64 31.64 0 0 0-7.635-1.206c.849 3.15-.232 6.473-1.341 8.78-3.705 7.665-11.006 13.205-18.17 18.194l-.188.132c-2.48 1.721-5.075 3.484-7.04 5.749a12.882 12.882 0 0 0-3.183 6.166z"/><path fill="#333" d="M47.728 65.7l-.16-.245a15.07 15.07 0 0 1-2.348-6.529c-.573-5.135 1.544-10.138 3.922-14.772.776-1.526 1.588-3.052 2.4-4.578 3.538-6.64 7.2-13.518 8.12-20.904a15.3 15.3 0 0 0-.486-6.934 19.212 19.212 0 0 0-2.639-4.675l-.87-1.227 1.45.432c7.238 2.124 13.443 6.67 17.49 12.817 4.045 6.145 5.664 13.482 4.56 20.677-1.102 7.195-4.853 13.77-10.572 18.534-5.718 4.763-13.024 7.397-20.591 7.424l-.276-.02zM58.306 7.724a14.344 14.344 0 0 1 2.368 5.288c.417 1.896.438 3.852.061 5.756-.935 7.602-4.64 14.557-8.221 21.288a248.88 248.88 0 0 0-2.393 4.557c-2.306 4.494-4.35 9.33-3.821 14.2a14.02 14.02 0 0 0 2.03 5.833c7.142-.098 14.022-2.6 19.443-7.07 5.42-4.47 9.04-10.626 10.226-17.396 1.186-6.769-.134-13.724-3.733-19.654-3.598-5.93-9.245-10.46-15.96-12.802z"/><path fill="#333" d="M42.535 136.458c-8.228-1.064-15.83-4.797-21.55-10.58-5.718-5.784-9.21-13.271-9.896-21.223-.686-7.95 1.475-15.889 6.124-22.499 4.65-6.61 11.509-11.495 19.442-13.847-8.264-2.585-15.292-7.927-19.814-15.059S10.601 37.667 12 29.423c1.397-8.243 5.817-15.734 12.46-21.117C31.105 2.922 39.533 0 48.223.069c8.69.069 17.068 3.124 23.618 8.612 6.55 5.489 10.84 13.049 12.096 21.313 1.256 8.264-.607 16.688-5.25 23.747-4.645 7.06-11.764 12.289-20.07 14.743 7.856 2.455 14.61 7.404 19.155 14.034l-.906.578c-4.755-6.948-12-11.975-20.359-14.124l-2.03-.516 2.037-.495c8.34-2.01 15.63-6.873 20.506-13.678 4.876-6.805 7.004-15.085 5.984-23.29-1.019-8.204-5.115-15.77-11.52-21.28-6.407-5.51-14.683-8.588-23.28-8.655C39.606.99 31.28 3.938 24.78 9.346c-6.499 5.41-10.723 12.91-11.881 21.097-1.158 8.187.828 16.5 5.588 23.38 4.76 6.88 11.967 11.858 20.27 13.999l2.03.522-2.037.488c-7.967 1.922-14.988 6.452-19.856 12.811-4.868 6.36-7.278 14.15-6.816 22.032.462 7.882 3.766 15.363 9.346 21.156 5.58 5.794 13.086 9.538 21.227 10.588l-.116 1.039zm-4.09-7.177c-6.847-2.05-12.703-6.39-16.505-12.234-3.802-5.844-5.299-12.804-4.218-19.618 1.08-6.814 4.666-13.03 10.108-17.52 5.44-4.49 12.376-6.956 19.548-6.952h.725a30.909 30.909 0 0 1 13.908 3.651c4.258 2.287 7.871 5.538 10.526 9.47l-.914.572c-2.559-3.79-6.04-6.924-10.144-9.128a29.795 29.795 0 0 0-13.405-3.52h-.667c-6.908 0-13.588 2.378-18.83 6.703-5.24 4.325-8.696 10.312-9.74 16.875-1.044 6.563.393 13.268 4.05 18.901 3.657 5.632 9.292 9.82 15.885 11.803l-.326.997zm9.578-63.877H47.9c-6.574-.004-12.984-1.974-18.341-5.636-5.358-3.662-9.398-8.835-11.56-14.802v-.097a29.302 29.302 0 0 1-1.35-14.238 29.772 29.772 0 0 1 5.565-13.259c2.925-3.932 6.783-7.138 11.253-9.351a32.695 32.695 0 0 1 14.455-3.38h.362c2.978.033 5.936.467 8.788 1.29h.087C64.396 8.054 70.6 12.6 74.647 18.747c4.046 6.146 5.665 13.482 4.562 20.677-1.103 7.195-4.854 13.772-10.573 18.535-5.718 4.763-13.024 7.397-20.591 7.424l-.022.02zM19.065 44.702c2.1 5.74 6 10.715 11.165 14.236 5.164 3.52 11.338 5.414 17.67 5.42h.116c7.299-.027 14.345-2.567 19.863-7.159 5.517-4.591 9.141-10.93 10.214-17.869 1.073-6.938-.475-14.016-4.365-19.952-3.89-5.935-9.863-10.335-16.838-12.402h-.08a31.535 31.535 0 0 0-8.555-1.268H47.9a31.564 31.564 0 0 0-13.979 3.27c-4.322 2.144-8.05 5.248-10.873 9.055a28.737 28.737 0 0 0-5.357 12.832 28.29 28.29 0 0 0 1.346 13.767l.029.07z"/><path fill="#333" d="M49.786 139.38a63.777 63.777 0 0 1-2.284-2.508 53.623 53.623 0 0 1-4.88-6.536 42.964 42.964 0 0 1-3.363-6.592c-2.625-6.592-3.089-13.518-1.305-19.511a32.908 32.908 0 0 1 5.713-10.696c3.298-4.499 7.595-8.238 12.58-10.947l1.26-.662-.492 1.296c-1.102 2.906-.254 6.272.486 8.508.21.655.435 1.303.667 1.958a35.502 35.502 0 0 1 1.45 4.878l-1.066.195a34.956 34.956 0 0 0-1.45-4.766c-.232-.662-.464-1.324-.682-1.979-.681-2.09-1.45-5.066-.834-7.909a37.708 37.708 0 0 0-11.078 10.013 31.993 31.993 0 0 0-5.481 10.397c-1.718 5.776-1.269 12.473 1.276 18.814.903 2.228 2 4.379 3.277 6.431a53.484 53.484 0 0 0 4.785 6.404c.682.794 1.45 1.603 2.255 2.467l-.834.745z"/><path fill="#333" d="M52.383 142.439l.348-.759a22.61 22.61 0 0 0 1.754-6.007 40.12 40.12 0 0 0 .486-5.323v-1.101-3.484a69.666 69.666 0 0 1 .37-9.01c.745-5.762 2.896-11.272 6.279-16.083 2.784-3.944 6.402-7.518 11.73-11.602a152.744 152.744 0 0 1 5.22-3.811 268.23 268.23 0 0 1 2.314-1.624c6.068-4.25 12.325-8.647 17.009-14.2l.725-.865.225 1.087a133.07 133.07 0 0 1 2.175 18.236c.355 5.233.594 9.95 0 14.71-1.516 11.23-7.411 21.488-16.495 28.701-8.853 6.977-19.882 10.902-31.328 11.149l-.812-.014zM98.06 70.933c-4.67 5.253-10.666 9.455-16.473 13.532l-2.32 1.623c-2.008 1.394-3.625 2.613-5.177 3.784-5.242 4.013-8.794 7.518-11.513 11.372-3.286 4.673-5.375 10.026-6.098 15.622a68.775 68.775 0 0 0-.362 8.885v4.627a40.803 40.803 0 0 1-.5 5.456 24.573 24.573 0 0 1-1.501 5.511c10.904-.403 21.374-4.215 29.82-10.856 8.869-7.044 14.624-17.06 16.103-28.026.573-4.668.326-9.337 0-14.521a139.165 139.165 0 0 0-1.994-17.01h.015z"/><path fill="#333" d="M60.053 137.834l-.725-.774c6.156-5.372 9.237-13.239 12.217-20.848.689-1.77 1.406-3.596 2.139-5.324 3.581-8.466 9.034-19.072 19.452-25.977l.624.857c-10.187 6.752-15.538 17.183-19.069 25.51-.725 1.721-1.406 3.484-2.131 5.303-3.016 7.721-6.141 15.706-12.507 21.253z"/><path fill="#333" d="M78.992 100.916V89.314h1.088V99.44l13.195-4.508.363.99-14.646 4.995zM71.038 118.42l-3.233-17.608 1.073-.181 3.009 16.41 17.48-5.728.348.989-18.677 6.118zM63.865 132.949l-2.596-16.668 1.074-.153 2.392 15.323 16.19-6.676.435.955-17.495 7.219zM53.623 68.02H41.16v1.045h12.463V68.02zM12.051 78.89h-1.087a11.036 11.036 0 0 0-1.583-4.946 11.554 11.554 0 0 0-3.703-3.757l-.674-.44.674-.396a11.567 11.567 0 0 0 3.695-3.763 11.05 11.05 0 0 0 1.576-4.947h1.088a11.05 11.05 0 0 0 1.582 4.949 11.569 11.569 0 0 0 3.703 3.76l.682.433-.682.439a11.556 11.556 0 0 0-3.687 3.743 11.037 11.037 0 0 0-1.584 4.925zM6.94 69.748c2.166 1.548 3.766 3.717 4.567 6.194.808-2.476 2.41-4.644 4.575-6.194-2.177-1.546-3.788-3.714-4.604-6.195-.793 2.474-2.382 4.643-4.538 6.195zM91.707 33.897a9.253 9.253 0 0 0-1.324-4.136 9.688 9.688 0 0 0-3.091-3.145l-.675-.44.674-.431a9.696 9.696 0 0 0 3.087-3.137 9.263 9.263 0 0 0 1.329-4.124h1.087a9.24 9.24 0 0 0 1.32 4.136 9.673 9.673 0 0 0 3.089 3.146l.681.432-.681.439a9.625 9.625 0 0 0-3.095 3.143 9.193 9.193 0 0 0-1.314 4.138l-1.087-.02zM88.53 26.15a10.478 10.478 0 0 1 3.72 4.975 10.477 10.477 0 0 1 3.72-4.975 10.43 10.43 0 0 1-3.72-4.968 10.43 10.43 0 0 1-3.72 4.968zM7.445 61.136c-.459 0-.907-.13-1.289-.376a2.252 2.252 0 0 1-.854-1 2.15 2.15 0 0 1-.132-1.289c.09-.432.31-.83.635-1.142a2.35 2.35 0 0 1 1.187-.61c.45-.086.917-.042 1.341.127.424.169.786.455 1.041.821.255.367.391.798.391 1.24 0 .59-.244 1.158-.68 1.576a2.368 2.368 0 0 1-1.64.653zm0-3.415c-.244 0-.482.07-.685.2-.202.13-.36.315-.454.532a1.142 1.142 0 0 0-.07.684c.048.23.165.441.338.607.172.165.392.278.63.324.24.046.488.022.713-.067.225-.09.418-.242.553-.437a1.152 1.152 0 0 0-.153-1.495 1.258 1.258 0 0 0-.872-.348zM4.228 66.202c-.326 0-.644-.093-.915-.267a1.597 1.597 0 0 1-.606-.71 1.525 1.525 0 0 1-.093-.914c.063-.307.22-.588.45-.81.23-.22.523-.371.843-.432.319-.062.65-.03.95.09.301.12.558.322.74.582.18.26.277.566.277.879 0 .42-.174.822-.482 1.118a1.68 1.68 0 0 1-1.164.464zm0-2.09a.574.574 0 0 0-.31.09.542.542 0 0 0-.206.24.517.517 0 0 0 .121.585.58.58 0 0 0 .608.116c.102-.04.19-.109.251-.197a.522.522 0 0 0 .094-.298.518.518 0 0 0-.153-.398.56.56 0 0 0-.405-.167v.028zM2.051 61.553a1.7 1.7 0 0 1-.919-.268 1.604 1.604 0 0 1-.608-.714 1.531 1.531 0 0 1-.093-.919 1.57 1.57 0 0 1 .454-.813c.232-.222.527-.373.848-.433.322-.06.654-.028.956.093.302.121.56.326.74.588a1.545 1.545 0 0 1-.209 2.006 1.652 1.652 0 0 1-.536.342c-.201.08-.416.12-.633.118zm0-2.125a.581.581 0 0 0-.314.092.549.549 0 0 0-.208.244.524.524 0 0 0 .123.592.587.587 0 0 0 .616.118.562.562 0 0 0 .254-.2.529.529 0 0 0-.07-.687.577.577 0 0 0-.4-.159zM97.227 41.834a3.149 3.149 0 0 1-1.702-.492 2.97 2.97 0 0 1-1.13-1.318 2.835 2.835 0 0 1-.177-1.7c.117-.57.408-1.095.836-1.507a3.1 3.1 0 0 1 1.566-.807 3.175 3.175 0 0 1 1.769.166c.56.223 1.038.6 1.374 1.083.337.484.516 1.053.516 1.635 0 .778-.32 1.525-.893 2.077a3.123 3.123 0 0 1-2.159.863zm0-4.829a2.03 2.03 0 0 0-1.098.317c-.326.208-.58.503-.73.85-.15.347-.19.728-.114 1.097.076.368.264.706.54.972.277.265.629.446 1.012.519.383.073.78.035 1.14-.11.361-.144.67-.388.885-.7.217-.314.331-.68.33-1.056a1.86 1.86 0 0 0-.578-1.334 2.013 2.013 0 0 0-1.387-.555zM98.944 33.765c-.353 0-.698-.1-.991-.29a1.731 1.731 0 0 1-.657-.769 1.652 1.652 0 0 1-.102-.99c.07-.332.24-.638.489-.878s.567-.402.913-.469a1.85 1.85 0 0 1 1.03.098c.326.13.605.35.801.631a1.666 1.666 0 0 1-.222 2.165c-.166.159-.362.285-.579.371-.216.086-.448.13-.682.13zm0-2.383a.747.747 0 0 0-.403.117.704.704 0 0 0-.267.313.671.671 0 0 0 .157.76.753.753 0 0 0 .79.151.72.72 0 0 0 .326-.258.678.678 0 0 0-.09-.88.74.74 0 0 0-.513-.203zM90.135 43.868c-.443 0-.876-.126-1.245-.363a2.174 2.174 0 0 1-.825-.966 2.075 2.075 0 0 1-.127-1.244c.086-.418.3-.801.613-1.102a2.27 2.27 0 0 1 1.147-.59c.434-.083.885-.04 1.294.123.41.163.76.439 1.006.793.246.354.377.77.377 1.196 0 .571-.236 1.119-.656 1.523-.42.403-.99.63-1.584.63zm0-3.26c-.228 0-.451.064-.64.186a1.12 1.12 0 0 0-.425.497c-.087.203-.11.425-.066.64.045.215.154.413.316.568.16.154.366.26.59.303.224.042.455.02.666-.063.21-.084.39-.226.517-.408a1.077 1.077 0 0 0-.143-1.4 1.177 1.177 0 0 0-.815-.324zM48.215 133.409c-5.63-7.544-8.399-16.715-7.845-25.984l1.08.063c-.535 9.028 2.165 17.96 7.65 25.308l-.885.613zM42.116 104.77l-1.073-.167a16.606 16.606 0 0 1 1.928-5.408l.958.502a15.524 15.524 0 0 0-1.813 5.073zM42.55 110.261a12.294 12.294 0 0 1 1.03-6.146l1 .418a11.27 11.27 0 0 0-.95 5.637l-1.08.091z"/></svg>