<svg xmlns="http://www.w3.org/2000/svg" fill="none" viewBox="0 0 301 301"><g clip-path="url(#clip0)"><path fill="#FF6CC5" d="M280.651 109.371c-13.981-23.253-34.203-42.79-58.216-55.524-46.052-24.36-103.636-22.067-147.95 5.379C32.857 85.089 5.131 132.625 6 182.059a135.584 135.584 0 0 0 3.081 26.496c3.792 17.717 10.506 34.169 20.617 49.197 4.265 6.327 7.978 7.514 15.56 5.22 1.028-.079 1.975-.079 3.002-.158.237-1.899-1.343-2.769-2.211-3.955-31.202-44.846-35.23-91.907-11.296-141.104 9.084-18.666 22.75-33.694 39.653-45.874 4.503-4.35 10.032-7.356 15.482-10.362 3.397-2.056 7.03-3.4 10.585-5.062 23.223-10.757 49.369-14.316 74.725-11.39 26.304 3.085 48.185 13.447 69.986 27.684 1.501.949 2.923 1.898 4.582 2.452 5.845 4.429 10.821 9.728 15.798 15.106 12.48 15.187 22.196 31.955 27.725 50.858 1.027-1.107.632-2.847.079-4.35a148.606 148.606 0 0 0-12.717-27.446z"/><path fill="#FF6CC5" d="M197.71 43.723c-1.896-.475-4.424 1.424-5.608-1.661 1.974.237 3.87.633 5.608 1.661z"/><path fill="#333" d="M146.602 85.485c-3.87-.475-7.662-1.029-11.611-.159-9.716 2.057-17.22 7.91-23.46 15.107-15.878 18.113-30.886 36.937-44.314 56.948-1.659 2.531-3.476 4.904-5.292 7.356-.08.079-.474 0-.948-.079 6.556-17.875 13.507-35.513 24.25-51.332 7.188-10.678 16.43-19.141 27.567-25.469 7.426-4.27 15.325-6.96 24.093-6.01 3.554.316 6.872 1.344 9.715 3.638zM94.154 234.181c.474.396.948.712 1.422 1.108-2.528 1.107-4.66-.475-6.951-.949-9.163-1.978-18.405-4.034-26.541-9.413-7.82-5.141-12.244-12.338-11.849-21.75.395-10.204 6.24-17.322 14.219-22.938-1.66 3.797-3.555 7.514-4.582 11.627-1.58 6.565-.553 12.497 3.713 17.796 5.371 6.723 11.69 12.418 19.036 16.926 3.871 2.452 7.663 5.062 11.533 7.593z"/><path fill="#333" d="M138.941 104.467l-2.606 1.661c-2.133-8.067-5.609-9.886-13.35-7.118-4.344 1.582-7.82 4.271-10.585 7.909-6.319 8.384-7.899 18.192-8.609 28.237-.237 3.006-1.027 4.113-4.029 4.825-10.506 2.531-13.902 9.254-10.585 19.615.87 2.768 2.212 5.378 3.634 7.83 3.554 6.17 3.396 11.864-1.738 17.243-2.133 2.294-3.791 4.983-5.687 7.514 0-.712-.08-1.345-.08-2.057-.078.159-.236.396-.315.554 0-.237.079-.475.316-.554.71-3.163-.158-6.011-2.133-8.542-1.659-2.214-3.476-4.271-5.056-6.486-1.737-2.451-2.685-5.062-1.658-8.146.948-2.927 2.448-5.062 6.003-5.695-2.133-1.186-3.791-.712-5.371.079-6.715 3.322-8.452 12.576-3.16 18.113 1.5 1.582 3.318 3.005 5.213 4.192 3.239 2.056 5.056 4.903 4.977 8.779-.08 2.136-2.528 3.085-2.923 5.062 1.343-.554 2.607-1.74 3.792-2.689.395-.316.79-.791.632-1.266 1.737 1.424 3.396-3.084 4.107-4.033 1.501-2.136 3.397-3.955 4.977-5.932 3.554-4.509 4.818-9.966 2.685-15.424-1.343-3.401-3.08-6.723-4.265-10.203-3.239-9.017.632-15.107 10.585-16.372v5.536l.236 5.22c.316 0 .632 0 .948.079l.474-5.22c.869-7.355 1.185-7.672 9.005-7.672.869-.554 2.133.158 2.844-1.265-1.58-1.661-3.634-1.424-5.371-1.108-3.397.633-3.555-.949-2.765-3.48 1.975-6.802 4.265-13.525 7.504-19.852 1.817-3.56 4.265-6.644 7.504-8.938 4.898-3.559 7.662-2.531 9.637 3.164.632 1.977.395 4.587 3.081 5.457 1.342-2.768 1.026-5.932 2.448-8.621-.079-.158-.316-.396-.316-.396zM163.586 216.228c-1.738 2.293-3.476 4.587-6.556 7.197 2.291-5.062 4.186-9.096 5.213-13.446 2.212-9.096.553-14.079-7.03-19.457-6.161-4.429-13.112-7.83-18.642-13.13-4.818-4.587-7.188-9.966-4.739-17.954.948 12.497 10.111 14.632 18.326 18.033 3.396 1.424 6.793 2.769 9.952 4.667 11.217 6.802 13.271 18.903 5.451 31.163.316 1.582-.632 2.373-1.975 2.927zM128.832 202.544c12.481.949 21.643 7.356 22.354 15.344.79 7.91-5.055 16.373-13.27 18.825 5.134-13.367.474-24.124-9.084-34.169z"/><path fill="#FF6CC5" d="M163.586 216.227c.711-1.028 1.343-1.977 2.054-3.005 1.106 1.423 1.816.079 2.606-.396 4.977-2.847 10.032-5.378 15.957-2.531 1.5.712 3.001-1.028 4.976.237-2.291 2.848-3.002 6.091-3.239 9.808-.158 2.927-3.396 3.085-6.003 3.322-6.793.554-12.796-.791-16.351-7.435z"/><path fill="#333" d="M190.523 162.364c2.528-2.768 5.135-5.22 9.242-4.745 2.291.237 1.58-1.503 1.422-2.69-1.185-7.909-2.133-15.818-6.635-23.57 14.376 10.757 16.114 27.367 5.687 40.892.158-1.582.316-2.926.474-4.271-.79-.949-.395-1.977-.316-3.006.237-4.35-.079-4.508-4.344-3.163-1.817.553-3.555 2.214-5.53.553zM199.213 123.687c-.157 2.056-2.764 1.503-3.317 3.164-7.188 3.401-14.455 6.802-21.644 10.282-7.109 3.48-13.823 7.672-20.537 11.864 12.717-12.971 29.305-18.824 45.498-25.31zM146.445 166.24c3.555-.079 7.188-.633 10.664-.238 2.449.317 4.107 3.401 7.03 3.006 0 .395.079.87-.079 1.107-.316.475-.632 1.028-1.58.633-1.421-.633-2.922-1.107-4.423-1.661-1.027-.316-1.738-.475-2.607.712-3.712 5.299-8.215 6.011-10.901-.87-.316-.87-.631-1.74-.947-2.531.947-.633 1.895-.475 2.843-.158zM143.838 156.828c6.398-3.718 12.797-4.43 19.274-.238 2.054 1.345 4.502 1.82 7.504 2.927-4.661 2.61-8.689-.475-13.113.791 1.422-1.582 2.765-.633 4.266-1.582-5.845-1.898-11.375-1.424-16.904-.949-.948.316-1.185-.158-1.027-.949z"/><path fill="#333" d="M169.195 118.151c-2.764.632-5.371 1.502-7.188 3.954-1.58 1.345-3.08 2.69-4.66 3.955-1.738.396-2.528 1.661-3.002 3.243-1.106 1.344-2.133 2.768-3.238 4.113-2.765 4.745-6.162 9.254-7.426 14.79-2.448 6.091-2.606 12.181 0 18.271.948-.079 1.896-.079 2.765-.158-3.476-1.819-4.265-6.09-1.659-8.463l-.948-.949c-1.974-3.085.711-5.774.711-8.701 1.817-4.824 4.503-9.175 7.425-13.287 5.372-7.752 12.165-12.576 22.355-11.627 2.764.237 5.845-2.689 8.768-4.192-4.503-2.215-9.163-2.136-13.903-.949zM197.631 166.082c-3.713.791-7.347 1.898-10.98 2.847-.395-.316-1.896.949-1.264-.632.553-1.345 1.817-2.373 2.765-3.56-3.002.633-4.187 2.848-4.661 5.616-.869 7.118.79 13.446 5.451 18.903 2.922 3.718 2.922 3.718-2.528 9.887 7.425-3.48 8.294-6.248 3.317-10.677-1.816-1.978-3.001-4.351-3.633-6.882-.711-2.926-3.713-6.723 2.133-7.988.395-.079.869-.791.869-1.187-.079-3.796 2.843-3.242 5.134-3.559.395.317.711.317 1.106 0 1.58-.079 3.396 1.424 4.502-.949-.158-1.265-1.58-1.898-2.211-1.819z"/><path fill="#333" d="M194.313 168.85h1.106c-.632 3.243-.869 6.723-6.478 7.039 3.16-1.977 5.609-3.717 5.372-7.039zM176.621 198.352c1.896-1.819 3.871-1.028 5.924-.554-1.895-.158-3.317 1.661-5.213 1.108-.237-.079-.395-.317-.711-.554zM113.904 176.206c11.295-11.073 19.511-24.361 26.857-38.203 1.106-1.265 1.974-2.61 2.211-4.271a8.48 8.48 0 0 0-2.922 3.56c-8.926 12.734-18.879 24.598-30.491 35.038-6.24 5.616-10.584 12.576-9.873 21.593.789 2.136-.553 4.983 2.132 6.565 3.081 6.802 8.926 10.44 15.64 12.418 6.162 1.819 12.481 3.084 17.536 7.672-1.185-4.034-4.66-5.537-7.741-7.198-4.028-2.135-8.531-3.559-12.48-5.853-9.479-5.457-11.849-15.502-5.925-24.677 1.501-2.373 3.081-4.746 5.056-6.644zM224.251 181.742c10.111-9.887 9.874-20.406-.395-30.056-1.027-.949-2.448-1.661-2.922-3.084-3.713-10.441-11.375-17.48-20.143-23.491-2.133 1.424-.079 2.452.474 3.322 2.607 3.638 5.608 6.96 7.82 10.677-2.133-2.451-4.581-4.824-7.03-7.118-.948-.87-1.896-2.373-3.634-1.186 3.634 5.457 7.504 10.756 12.244 15.344 6.477 6.248 9.242 20.96 5.055 28.869-1.027 1.978-1.185 2.769.474 4.113.948.712 1.58 1.74.237 2.927-4.186 3.796-8.294 7.593-12.401 11.389.474-.395-.632-1.819-.948-2.056-.553-.475-1.422-.87-2.212-1.029.474.95 1.264 1.661 1.896 2.452.237.317.79.712.948 1.108.158.474-.158.791-.474 1.186-1.027 1.74-2.133 3.401-3.002 5.22-.869 1.74-1.659 3.56-2.054 5.537-.237 1.028-.395 1.977-.395 3.005-.079.95.316 2.136.158 3.085.869-5.774 4.029-10.44 7.583-14.87.158-.158 1.896 1.82 2.054 1.978 1.422 1.977 1.659 4.35 1.896 6.644.158 1.898 1.106 3.717.948 5.694 0-1.107.632-2.135.711-3.163.237-2.294-.237-4.509-1.106-6.644-.237-.554-3.081-5.932-2.923-6.011 3.871-3.006 7.741-5.853 11.533-8.938 1.343-1.107 1.896-.791 2.607.554 6.477 12.734 7.267 26.022-3.713 37.569-4.107 4.351-9.005 7.673-14.218 10.441-2.923 1.661-6.635 2.056-8.768 5.062 3.238-1.424 6.714-2.215 9.558-4.271 2.843-1.582 5.845-3.006 8.531-4.825 16.351-10.836 20.221-26.022 10.821-43.344-1.579-2.61-1.342-3.954.79-6.09z"/><path fill="#333" d="M199.369 181.426c-.237 5.062-2.291 9.649-4.265 14.158-1.027 1.502-1.738 3.084-1.975 5.22 1.659-1.345 2.212-2.927 2.844-4.429 2.448-4.667 5.213-9.254 3.396-14.949zM214.377 107.869c-.236-4.271-2.606-7.435-6.477-8.622-5.134-1.66-6.635-4.508-6.477-9.886.316-8.622-5.45-13.605-14.06-13.288-4.661.158-9.084 1.344-13.271 3.322-13.112 6.406-24.487 15.186-35.151 25.073.158.395.474.632.869.711 2.449 0 4.029-1.74 5.925-2.847 12.085-7.356 24.092-14.949 37.994-18.587 8.215-2.136 10.506-.791 13.113 7.277.474.87.395 1.581.237 2.372-.316 0-.79-.237-1.422-.79-1.738-1.503-3.713-2.848-5.609-4.192 1.659 2.768 3.871 4.903 6.557 6.564-.079.238-.158.475-.158.712.316 2.768-.079 5.379-.948 7.989-.79 2.452-2.054 4.745-2.291 7.355.158.633.474 1.029 1.106 1.108 3.475-2.215 4.502-6.011 6.082-9.412.632-1.424.948-3.085 3.318-2.373 3.317 1.028 6.793 4.587 7.03 7.355.158 3.243-1.817 5.774-5.766 7.435.316-3.401-.632-4.745-3.792-4.824-2.212-.08-4.502 0-6.161 1.819.237 1.186 1.264 1.344 2.212 1.502.789.238 1.816-.316 2.527.554-.948 1.345-2.527 1.819-3.791 2.689-2.133 1.424-4.819 2.136-6.241 4.588-2.29 2.135-5.371 2.373-8.057 3.796-2.053.554-2.053.554-3.87 4.113 1.422-.712 2.685-1.423 3.949-2.056 2.054-.87 4.108-1.74 6.162-2.531 3.87-1.503 7.662-3.48 12.006-3.085 2.528-2.294 6.082-2.373 8.768-4.271 3.318-2.531 5.924-5.141 5.687-9.57z"/><path fill="#333" d="M194.472 111.823c.316.079.553.158.869.158.79.238 1.659.475 2.449.791-1.58.317-3.239.633-4.818 1.029-.632.158-1.106 1.423-1.738.158-.553-1.187.632-1.108 1.106-1.582.474-.475.869-.949 1.264-1.424l.868.87zM182.624 99.09c-3.634-3.402-8.137-4.193-12.797-3.481-13.112 1.898-23.697 8.7-33.097 17.717-.869 1.107-1.659 2.294-2.528 3.401-5.529 6.723-10.9 13.525-15.245 21.197 1.659-.079 2.212-1.661 3.16-2.61 7.504-7.83 15.245-15.423 23.855-21.988 3.317-3.006 7.504-4.746 10.901-7.435 4.66-3.638 9.794-6.09 15.403-7.276 3.317-.712 6.793-.791 9.4 2.135 1.184 1.107 2.369 2.215 4.265 3.955-.79-2.848-1.58-4.509-3.317-5.616z"/><path fill="#F4CCE6" d="M182.227 215.595c-3.239 1.107-6.477.632-10.743.87 4.819-1.74 7.189-1.978 10.743-.87zM183.966 219.312c-.316.633-.316 1.74-1.343 1.582-1.106-.158-1.817-1.187-1.975-2.136-.237-1.107.948-.949 1.659-1.028 1.027 0 1.896.316 1.659 1.582z"/></g><defs><clipPath id="clip0"><path fill="#fff" d="M0 0h288v227H0z" transform="translate(6 37)"/></clipPath></defs></svg>