<svg xmlns="http://www.w3.org/2000/svg" viewBox="0 0 1024 1024"><path fill="#ff5f00" d="M650.342 263.263H373.484v497.461h276.858V263.263z"/><path fill="#eb001b" d="M391.113 512c0-101.074 47.461-190.722 120.41-248.73-53.614-42.188-121.29-67.676-195.119-67.676C141.504 195.594 0 337.099 0 512s141.504 316.406 316.404 316.406c73.829 0 141.505-25.488 195.119-67.676-72.949-57.129-120.41-147.655-120.41-248.73z"/><path fill="#f79e1b" d="M1024 512c0 174.901-141.505 316.406-316.409 316.406-73.829 0-141.503-25.488-195.116-67.676 73.826-58.009 120.41-147.655 120.41-248.73s-47.461-190.722-120.41-248.73c53.614-42.188 121.287-67.676 195.116-67.676C882.494 195.594 1024 337.977 1024 512z"/></svg>