<svg xmlns="http://www.w3.org/2000/svg" fill="none" viewBox="0 0 124 146"><path fill="#FFF4F4" d="M57.333 145.375c24.484 0 44.333-18.888 44.333-42.187 0-23.3-19.849-42.188-44.333-42.188C32.849 61 13 79.888 13 103.188c0 23.299 19.849 42.187 44.333 42.187z"/><path fill="#333" d="M104.119 86.458l1.573.064c.21-2.599 1.03-5.095 2.395-7.296a16.372 16.372 0 0 1 5.48-5.392l.983-.604-.974-.68a18.062 18.062 0 0 1-5.364-5.864 17.255 17.255 0 0 1-2.244-7.497l-1.568-.073a16.301 16.301 0 0 1-2.393 7.303 16.352 16.352 0 0 1-5.486 5.394l-.984.605.974.679a18.013 18.013 0 0 1 5.367 5.862 17.217 17.217 0 0 1 2.241 7.5zm7.691-13.321a17.45 17.45 0 0 0-6.817 9.019c-1.142-3.78-3.472-7.146-6.652-9.609a17.57 17.57 0 0 0 6.832-9.022c1.127 3.769 3.439 7.129 6.601 9.59l.036.022zM109.532 59.712c.514.292 1.091.45 1.676.461a3.371 3.371 0 0 0 1.662-.397c.505-.272.926-.67 1.222-1.154.295-.484.455-1.04.465-1.612a3.323 3.323 0 0 0-.247-1.283 3.458 3.458 0 0 0-.727-1.109 3.447 3.447 0 0 0-2.383-1.07 3.319 3.319 0 0 0-2.403.87 3.176 3.176 0 0 0-1.015 2.303c-.006.435.076.87.242 1.28.166.41.411.785.723 1.106.232.237.496.44.785.605zm2.538-4.396c.278.163.51.393.671.668.162.275.248.584.25.897a1.706 1.706 0 0 1-.902 1.514c-.276.148-.589.22-.908.21a1.888 1.888 0 0 1-1.571-.947 1.783 1.783 0 0 1-.239-.9c.007-.47.203-.912.547-1.23a1.781 1.781 0 0 1 1.286-.466c.298.021.587.116.842.275l.024-.021zM114.697 67.63a2.6 2.6 0 0 0 1.144.344c.339.058.685.044 1.013-.04a2.32 2.32 0 0 0 .891-.45 2.25 2.25 0 0 0 .831-1.74 2.36 2.36 0 0 0-.209-.981 2.485 2.485 0 0 0-.601-.824 2.534 2.534 0 0 0-.886-.518 2.479 2.479 0 0 0-1.013-.12 2.36 2.36 0 0 0-.922.132 2.271 2.271 0 0 0-1.507 2.11c-.003.31.056.62.174.912.119.292.294.56.516.788.171.154.363.284.569.388zm1.569-2.716a.885.885 0 0 1 .274.26.853.853 0 0 1 .137.347.808.808 0 0 1-.214.679.814.814 0 0 1-.43.208.865.865 0 0 1-.858-.383.825.825 0 0 1-.139-.461.795.795 0 0 1 .524-.734.808.808 0 0 1 .317-.047c.138.01.272.055.389.13zM117.868 60.82c.348.203.74.316 1.139.33.317.014.631-.032.924-.138.294-.105.562-.267.788-.477a2.247 2.247 0 0 0 .723-1.637c.006-.31-.053-.62-.171-.913a2.427 2.427 0 0 0-.519-.786 2.523 2.523 0 0 0-1.225-.7 2.437 2.437 0 0 0-1.393.072c-.442.159-.821.445-1.09.82a2.266 2.266 0 0 0-.419 1.294c-.004.426.109.85.327 1.225.219.376.536.69.916.91zm1.579-2.734c.076.029.147.07.21.122a.803.803 0 0 1 .237.582.793.793 0 0 1-.522.738.848.848 0 0 1-.485.027.878.878 0 0 1-.427-.243.844.844 0 0 1-.225-.43.788.788 0 0 1 .366-.827.83.83 0 0 1 .468-.117.88.88 0 0 1 .378.148z"/><path stroke="#333" stroke-linecap="round" stroke-linejoin="round" stroke-miterlimit="10" stroke-width="1.2" d="M82.313 125.023c3.895-.453 3.895-3.08 3.895-3.08V92.5l5.436-87.061V3.174c0-2.265-1.63-2.084-1.63-2.084H53.231c0-.09-1.63-.271-1.63 1.994v2.264L55.825 73l.606 9.705.606 9.705v29.443s0 2.718 3.896 3.081c0 .09 6.704.09 21.38.09zM86.207 92.408H56.945M61.559 115.873v3.895M61.559 97.663v14.586M59.656 56.08l1.446 20.42M59.297 49.648l.272 2.899M57.031 10.602l2.084 35.694M91.648 5.348H51.606M55.32.999v4.349M58.941.999v4.349M62.574.999v4.349M66.191.999v4.349M69.816.999v4.349M73.438.999v4.349M77.063.999v4.349M80.688.999v4.349M84.309.999v4.349M87.93.999v4.349"/><path fill="#333" d="M36.789 127.552a55.126 55.126 0 0 1-6.267-.367c-4.936-.582-8.69-1.667-11.816-3.428-5.077-2.875-8.57-7.611-11.59-12.312l-.367-.582c-1.54-2.408-3.126-4.894-5.4-6.627l-.747-.589.912-.338a54.014 54.014 0 0 1 20.939-3.313 41.574 41.574 0 0 1 17.753 4.463c5.534 2.811 9.952 7.294 12.571 12.758l-1.024.431c-2.528-5.234-6.774-9.527-12.085-12.218a40.534 40.534 0 0 0-17.26-4.313A52.813 52.813 0 0 0 2.8 104.042c2.034 1.783 3.5 4.076 4.92 6.296l.367.583c2.947 4.585 6.342 9.199 11.218 11.945 2.991 1.689 6.603 2.731 11.382 3.291 8.27.964 15.95 0 22.202-2.795l.472.984a40.668 40.668 0 0 1-16.572 3.206z"/><path fill="#333" d="M51.745 122.564c-1.361-1.912-3.343-3.299-5.908-4.779-11.377-6.579-24.219-10.462-37.466-11.327l.075-1.071c13.426.882 26.44 4.824 37.967 11.499 2.333 1.351 4.696 2.875 6.26 5.096l-.928.582zM50.465 100.906c-.288-10.072-4.032-19.77-10.65-27.585-6.464-7.509-15.338-12.744-25.231-14.884 1.496 4.312 1.144 9.027.83 13.555-.12 1.739-.247 3.536-.27 5.268-.066 7.397 1.792 14.693 5.408 21.224l-.988.503c-3.685-6.692-5.572-14.163-5.489-21.734 0-1.769.15-3.594.27-5.333.336-4.737.68-9.631-1.092-14.008l-.374-.913 1.002.187c10.533 2.038 20.017 7.493 26.862 15.452 6.775 8 10.608 17.928 10.903 28.239l-1.181.029z"/><path fill="#333" d="M37.373 101.498a128.654 128.654 0 0 0-5.518-18.162 56.467 56.467 0 0 0-9.722-16.25l.852-.719a57.45 57.45 0 0 1 9.931 16.53 129.937 129.937 0 0 1 5.587 18.357l-1.13.244z"/><path fill="#333" d="M31.761 81.474l-11.546-5.26.486-.971 10.185 4.636L32.36 70.7l1.106.165-1.705 10.608zM36.653 95.928l-12.055-5.886.508-.963 10.918 5.332 3.77-10.198 1.054.36-4.195 11.355zM32.378 118.058l-.554-.942 6.693-3.579-3.253-6.21 1.002-.489 3.732 7.137-7.62 4.083zM19.65 113.493l-.494-.97 7.329-3.407-4.936-5.311.838-.719 5.923 6.383-8.66 4.024z"/></svg>