<svg xmlns="http://www.w3.org/2000/svg" xmlns:xlink="http://www.w3.org/1999/xlink"><symbol fill="none" id="sprite-arrow-btn" viewBox="0 0 42 13"><title>arrow-btn</title><path d="M1 6.5h40m0 0L34.5 1M41 6.5L34.5 12" stroke="#333" stroke-linecap="round" stroke-linejoin="round"/></symbol><symbol id="sprite-arrow" viewBox="0 0 1024 1024"><title/><path d="M512.064 894.928L0 129.071h1024L512.064 894.928z"/></symbol><symbol id="sprite-card" viewBox="0 0 1024 1024"><title/><path d="M77.649 331.45h868.7V223.241h-868.7V331.45zM0 370.275v432.91c0 41.546 33.678 75.223 75.223 75.223h873.554c41.546 0 75.223-33.677 75.223-75.223V220.816c0-41.545-33.677-75.223-75.223-75.223H75.223C33.678 145.593 0 179.271 0 220.816v149.46zM946.351 409.1v391.659h-868.7V409.1h868.7zm-252.36 246.066h145.592c21.443 0 38.825 17.382 38.825 38.825s-17.382 38.825-38.825 38.825H693.991c-21.443 0-38.825-17.382-38.825-38.825s17.382-38.825 38.825-38.825zm-257.214 38.825c0 21.443 17.382 38.825 38.825 38.825h72.796c21.443 0 38.825-17.382 38.825-38.825s-17.382-38.825-38.825-38.825h-72.796c-21.443 0-38.825 17.382-38.825 38.825z"/></symbol><symbol fill="none" id="sprite-cart" viewBox="0 0 27 27"><title>cart</title><path fill-rule="evenodd" clip-rule="evenodd" d="M.998.15a.85.85 0 100 1.7h2.257a.15.15 0 01.147.123l.758 4.164.005.031 1.813 9.97a.81.81 0 00.005.03l.866 4.762a3.35 3.35 0 105.066.92h7.167a3.35 3.35 0 102.916-1.7H8.435l-.6-3.3h14.676a2.85 2.85 0 002.804-2.34l1.52-8.358a.85.85 0 00-.837-1.002H5.708l-.633-3.481a1.85 1.85 0 00-1.82-1.52H.998zm5.019 6.7l1.509 8.3h14.985a1.15 1.15 0 001.132-.944L24.98 6.85H6.017zM20.348 23.5a1.65 1.65 0 113.3 0 1.65 1.65 0 01-3.3 0zm-11.35-1.65a1.65 1.65 0 100 3.3 1.65 1.65 0 000-3.3z" fill="#333"/></symbol><symbol id="sprite-chevrone" viewBox="0 0 1024 1024"><title/><path d="M1023.982 259.593c.335-15.135-4.054-29.997-12.559-42.52s-20.706-22.087-34.896-27.359-29.669-5.992-44.287-2.06a72.823 72.823 0 00-37.273 24.002L513.176 657.317 131.52 211.656a72.829 72.829 0 00-80.048-26.5 72.873 72.873 0 00-26.075 14.358c-7.61 6.529-13.782 14.56-18.145 23.589S.44 241.963.053 251.983a72.818 72.818 0 0021.228 54.267l436.562 510.241a72.804 72.804 0 0055.401 25.556 72.832 72.832 0 0055.409-25.556l436.981-510.241a72.838 72.838 0 0018.363-46.657h-.016z"/></symbol><symbol id="sprite-close" viewBox="0 0 1024 1024"><title/><path d="M940.013 1009.459c19.208 19.218 50.363 19.218 69.581 0 19.208-19.208 19.208-50.363 0-69.578L581.583 511.872l427.755-427.753c19.208-19.214 19.208-50.367 0-69.581-19.218-19.214-50.372-19.214-69.581 0L512 442.291 84.248 14.538c-19.215-19.214-50.368-19.214-69.582 0s-19.214 50.367 0 69.581l427.753 427.753L14.41 939.881c-19.214 19.215-19.214 50.369 0 69.578 19.214 19.218 50.367 19.218 69.581 0L512 581.453l428.012 428.006z"/></symbol><symbol fill="none" id="sprite-favorite" viewBox="0 0 27 23"><title>favorite</title><path d="M26.651 7.21A7.104 7.104 0 0019.547.105a7.092 7.092 0 00-6.05 3.395A7.093 7.093 0 007.448.105 7.104 7.104 0 00.344 7.21c0 2.136.946 4.047 2.438 5.349L12.85 22.626a.917.917 0 001.297 0l10.067-10.068A7.078 7.078 0 0026.65 7.21z" fill="#fff"/></symbol><symbol id="sprite-insta" viewBox="0 0 1024 1024"><title/><path d="M511.999 249.143c45.714 0 89.143 13.714 130.286 36.571s73.143 54.857 96.004 96c22.85 41.143 36.571 84.571 36.571 130.286 0 48-13.722 91.429-36.571 132.571-22.861 41.143-54.861 73.143-96.004 96s-84.571 34.289-130.286 34.289c-48 0-91.429-11.432-132.571-34.289s-73.143-54.857-96-96S249.142 560 249.142 512c0-45.714 11.429-89.143 34.286-130.286s54.857-73.143 96-96 84.571-36.571 132.571-36.571zm0 434.286c45.714 0 86.857-16 121.143-50.286 32-32 50.286-73.143 50.286-121.143 0-45.714-18.286-86.857-50.286-121.143-34.286-32-75.429-50.286-121.143-50.286-48 0-89.143 18.286-121.143 50.286C356.57 425.143 340.57 466.286 340.57 512c0 48 16 89.143 50.286 121.143 32 34.286 73.143 50.286 121.143 50.286zm336.004-445.715c0-16-6.861-29.714-18.286-43.429-13.722-11.429-27.429-18.286-43.432-18.286-18.286 0-32 6.857-43.432 18.286-13.711 13.714-18.282 27.429-18.282 43.429 0 18.286 4.571 32 18.282 43.429 11.432 13.714 25.147 18.286 43.432 18.286 16.004 0 29.711-4.571 41.143-18.286 11.432-11.429 18.286-25.143 20.575-43.429zm173.714 61.715c0 43.429 2.282 114.286 2.282 212.571 0 100.571-2.282 171.429-4.571 214.857-2.289 43.425-9.143 79.996-18.286 112.004-13.714 38.853-36.571 73.143-64 100.571s-61.711 47.996-98.282 61.711c-32.007 11.432-70.861 18.286-114.289 20.575C681.142 1024 610.285 1024 512 1024c-100.571 0-171.429 0-214.857-2.282-43.429-2.289-80-9.143-112-22.864-38.857-11.425-73.143-31.993-100.571-59.421s-48-61.718-61.714-100.571C11.429 806.855 4.572 770.283 2.287 726.858.001 683.429.001 612.572.001 512.001c0-98.286 0-169.143 2.286-212.571s9.143-82.286 20.571-114.286c13.714-36.571 34.286-70.857 61.714-98.286s61.714-50.286 100.571-64c32-9.143 68.571-16 112-18.286S411.429.001 512 .001c98.286 0 169.143 2.286 212.571 4.571s82.282 9.143 114.289 18.286c36.571 13.714 70.853 36.571 98.282 64s50.286 61.714 64 98.286c9.143 32 15.996 70.857 20.575 114.286zM912.003 813.714c9.143-25.147 13.707-66.282 18.286-123.429 0-32 2.282-80 2.282-141.714v-73.143c0-61.714-2.282-109.714-2.282-141.714-4.579-57.143-9.143-98.286-18.286-123.429-18.286-45.714-52.575-80-98.289-98.286-25.147-9.143-66.282-13.714-123.429-18.286-34.286 0-82.286-2.286-141.714-2.286h-73.143c-61.714 0-109.714 2.286-141.714 2.286-57.143 4.571-98.286 9.143-123.429 18.286-48 18.286-80 52.571-98.286 98.286-9.143 25.143-16 66.286-18.286 123.429C91.427 368 91.427 416 91.427 475.428v73.143c0 61.714 0 109.714 2.286 141.714 2.286 57.147 9.143 98.282 18.286 123.429 18.286 47.996 52.571 80.004 98.286 98.289 25.143 9.143 66.286 15.996 123.429 18.286 32 2.282 80 2.282 141.714 2.282h73.143c61.714 0 109.714 0 141.714-2.282 57.147-2.289 98.282-9.143 123.429-18.286 45.714-18.286 80.004-52.575 98.289-98.289z"/></symbol><symbol id="sprite-like" viewBox="0 0 1024 1024"><title/><path d="M1024 345.008c0-152.723-123.81-276.525-276.531-276.525-99.727 0-186.82 52.962-235.47 132.113-48.651-79.151-135.778-132.113-235.502-132.113C123.774 68.483.001 192.285.001 345.008c0 83.149 36.845 157.54 94.917 208.195l391.847 391.863c6.691 6.695 15.768 10.451 25.234 10.451s18.54-3.756 25.234-10.451l391.844-391.863c58.074-50.656 94.924-125.046 94.924-208.195z"/></symbol><symbol id="sprite-money" viewBox="0 0 1024 1024"><title/><path d="M307.904 203.894H953.77c38.789 0 70.23 31.443 70.23 70.23v475.752c0 38.789-31.441 70.23-70.23 70.23H70.23c-38.787 0-70.23-31.441-70.23-70.23V546.158a24.067 24.067 0 010-.38v-67.554a24.067 24.067 0 010-.38V274.126c0-38.787 31.443-70.23 70.23-70.23h237.671zm394.374 72.496H321.729L72.499 494.466v35.068l249.23 218.076h380.549l249.229-218.076v-35.068L702.278 276.39zm110.092 0l139.137 121.747V276.39H812.37zm139.137 349.475L812.37 747.611h139.137V625.865zM211.638 747.611L72.499 625.865v121.746h139.139zM72.499 398.137L211.638 276.39H72.499v121.747zm439.503 14.182c-55.053 0-99.681 44.629-99.681 99.681s44.629 99.681 99.681 99.681c55.053 0 99.681-44.629 99.681-99.681s-44.629-99.681-99.681-99.681zm-172.176 99.682c0-95.09 77.088-172.177 172.177-172.177 95.092 0 172.177 77.086 172.177 172.177s-77.085 172.177-172.177 172.177c-95.089 0-172.177-77.085-172.177-172.177z"/></symbol><symbol class="ldi-47ibm8" preserveAspectRatio="xMidYMid" style="width:525px;webkit-user-select:none;webkit-transform-origin:262.5px 262.5px;webkit-perspective-origin:262.5px 262.5px;webkit-logical-width:525px;webkit-logical-height:525px;user-select:none;transform-origin:262.5px 262.5px;r:0;perspective-origin:262.5px 262.5px;overflow-y:hidden;overflow-x:hidden;inline-size:525px;height:525px;d:none;block-size:525px;background:0 0/auto padding-box border-box" pointer-events="all" overflow="hidden" display="block" id="sprite-ok" viewBox="0 0 100 100"><title>ok</title><svg version="1.1" id="圖層_1" xmlns="http://www.w3.org/2000/svg" x="0" y="0" viewBox="0 0 100 100" xml:space="preserve" style="x:0;webkit-user-select:none;webkit-transform-origin:50px 50px;webkit-perspective-origin:0 0;user-select:none;transform-origin:50px 50px;r:0;perspective-origin:0 0;overflow-y:hidden;overflow-x:hidden" pointer-events="all" overflow="hidden" display="block"><g style="x:0;webkit-user-select:none;webkit-transform-origin:50px 50px;webkit-perspective-origin:0 0;user-select:none;transform-origin:50px 50px;r:0;perspective-origin:0 0"><g style="x:0;webkit-user-select:none;webkit-transform-origin:50px 50px;webkit-transform:matrix(.7,0,0,.7,0,0);webkit-perspective-origin:0 0;user-select:none;transform-origin:50px 50px;r:0;perspective-origin:0 0"><g style="x:0;webkit-user-select:none;webkit-transform-origin:50px 50px;webkit-perspective-origin:0 0;user-select:none;transform-origin:50px 50px;r:0;perspective-origin:0 0"><g style="webkit-user-select:none;webkit-perspective-origin:0 0;user-select:none;perspective-origin:0 0" transform="scale(.7)"><style/><g style="y:0;x:0;webkit-user-select:none;webkit-transform-origin:50px 50px;webkit-perspective-origin:0 0;webkit-animation-duration:2.2s;webkit-animation-delay:.169231s;webkit-animation:2.2s ease .169231s 1 normal none running none;user-select:none;transform-origin:50px 50px;r:0;perspective-origin:0 0;d:none"><circle cx="50" cy="50" r="40" stroke="#3c3" style="webkit-user-select:none;webkit-perspective-origin:0 0;user-select:none;r:40px;perspective-origin:0 0;cy:50px;cx:50px" stroke-width="8" stroke-miterlimit="10" fill="none"/></g><g style="x:0;webkit-user-select:none;webkit-transform-origin:50px 50px;webkit-perspective-origin:0 0;user-select:none;transform-origin:50px 50px;r:0;perspective-origin:0 0"><g style="webkit-user-select:none;webkit-perspective-origin:0 0;user-select:none;perspective-origin:0 0"><g style="y:0;x:0;webkit-user-select:none;webkit-transform-origin:50px 50px;webkit-perspective-origin:0 0;webkit-animation-duration:2.2s;webkit-animation-delay:.338462s;webkit-animation:2.2s ease .338462s 1 normal none running none;user-select:none;transform-origin:50px 50px;r:0;perspective-origin:0 0;d:none" class="ld"><path fill="#3c3" style="webkit-user-select:none;webkit-perspective-origin:0 0;user-select:none;r:0;perspective-origin:0 0" d="M43.7 69.4L25 47.7l3.9-3.9 14.8 12.6 28.6-25.8 2.7 2.7z"/></g></g></g></g></g></g></g><style>@keyframes ldt-bounce-in{0%{-webkit-transform:scale(0);transform:scale(0)}5%{-webkit-transform:scale(.0846);transform:scale(.0846)}6%{-webkit-transform:scale(.191);transform:scale(.191)}7%{-webkit-transform:scale(.3255);transform:scale(.3255)}8%{-webkit-transform:scale(.4804);transform:scale(.4804)}9%{-webkit-transform:scale(.646);transform:scale(.646)}10%{-webkit-transform:scale(.8116);transform:scale(.8116)}11%{-webkit-transform:scale(.9665);transform:scale(.9665)}12%{-webkit-transform:scale(1.1);transform:scale(1.1)}13%{-webkit-transform:scale(1.2069);transform:scale(1.2069)}14%{-webkit-transform:scale(1.2796);transform:scale(1.2796)}19%{-webkit-transform:scale(1.1558);transform:scale(1.1558)}20%{-webkit-transform:scale(1.07);transform:scale(1.07)}21%{-webkit-transform:scale(.9823);transform:scale(.9823)}22%{-webkit-transform:scale(.901);transform:scale(.901)}23%{-webkit-transform:scale(.8328);transform:scale(.8328)}25%{-webkit-transform:scale(.7551);transform:scale(.7551)}29%{-webkit-transform:scale(.8516);transform:scale(.8516)}31%{-webkit-transform:scale(.973);transform:scale(.973)}33%{-webkit-transform:scale(1.0857);transform:scale(1.0857)}35%{-webkit-transform:scale(1.1538);transform:scale(1.1538)}40%{-webkit-transform:scale(1.0771);transform:scale(1.0771)}42%{-webkit-transform:scale(.9954);transform:scale(.9954)}45%{-webkit-transform:scale(.9057);transform:scale(.9057)}52%{-webkit-transform:scale(.9908);transform:scale(.9908)}56%{-webkit-transform:scale(1.0623);transform:scale(1.0623)}64%{-webkit-transform:scale(.9845);transform:scale(.9845)}}@-webkit-keyframes ldt-bounce-in{0%{-webkit-transform:scale(0);transform:scale(0)}5%{-webkit-transform:scale(.0846);transform:scale(.0846)}6%{-webkit-transform:scale(.191);transform:scale(.191)}7%{-webkit-transform:scale(.3255);transform:scale(.3255)}8%{-webkit-transform:scale(.4804);transform:scale(.4804)}9%{-webkit-transform:scale(.646);transform:scale(.646)}10%{-webkit-transform:scale(.8116);transform:scale(.8116)}11%{-webkit-transform:scale(.9665);transform:scale(.9665)}12%{-webkit-transform:scale(1.1);transform:scale(1.1)}13%{-webkit-transform:scale(1.2069);transform:scale(1.2069)}14%{-webkit-transform:scale(1.2796);transform:scale(1.2796)}19%{-webkit-transform:scale(1.1558);transform:scale(1.1558)}20%{-webkit-transform:scale(1.07);transform:scale(1.07)}21%{-webkit-transform:scale(.9823);transform:scale(.9823)}22%{-webkit-transform:scale(.901);transform:scale(.901)}23%{-webkit-transform:scale(.8328);transform:scale(.8328)}25%{-webkit-transform:scale(.7551);transform:scale(.7551)}29%{-webkit-transform:scale(.8516);transform:scale(.8516)}31%{-webkit-transform:scale(.973);transform:scale(.973)}33%{-webkit-transform:scale(1.0857);transform:scale(1.0857)}35%{-webkit-transform:scale(1.1538);transform:scale(1.1538)}40%{-webkit-transform:scale(1.0771);transform:scale(1.0771)}42%{-webkit-transform:scale(.9954);transform:scale(.9954)}45%{-webkit-transform:scale(.9057);transform:scale(.9057)}52%{-webkit-transform:scale(.9908);transform:scale(.9908)}56%{-webkit-transform:scale(1.0623);transform:scale(1.0623)}64%{-webkit-transform:scale(.9845);transform:scale(.9845)}}</style></svg></symbol><symbol fill="none" id="sprite-profile" viewBox="0 0 26 25"><title>profile</title><path fill-rule="evenodd" clip-rule="evenodd" d="M5.849 9a7.15 7.15 0 1114.3 0 7.15 7.15 0 01-14.3 0zm7.15-8.85a8.85 8.85 0 00-4.242 16.619 14.857 14.857 0 00-8.62 6.805.85.85 0 101.473.85 13.156 13.156 0 0122.78 0 .85.85 0 001.473-.85 14.854 14.854 0 00-8.621-6.806A8.85 8.85 0 0012.999.15z" fill="#333"/></symbol><symbol id="sprite-search" viewBox="0 0 1024 1024"><title/><path d="M88.358 453.524c0-201.654 163.473-365.127 365.126-365.127S818.611 251.87 818.611 453.524 655.138 818.651 453.484 818.651c-201.652 0-365.126-163.473-365.126-365.127zM453.484.038C203.032.038 0 203.071 0 453.524S203.032 907.01 453.484 907.01c109.336 0 209.638-38.695 287.95-103.134l207.148 207.148c17.255 17.251 45.224 17.251 62.48 0 17.251-17.255 17.251-45.224 0-62.48L803.909 741.391c64.398-78.301 103.062-178.567 103.062-287.866C906.971 203.072 703.939.039 453.485.039z"/></symbol><symbol id="sprite-shop" viewBox="0 0 1024 1024"><title/><path d="M145.231 111.596h733.54c.808 0 1.591.263 2.23.747a3.699 3.699 0 011.333 1.939l58.017 203.066H83.653l58.019-203.066a3.7 3.7 0 013.56-2.686zm806.835 277.685v43.372a122.7 122.7 0 01-56.557 103.352 35.905 35.905 0 00-9.275 5.382 122.724 122.724 0 01-56.879 13.976 122.7 122.7 0 01-86.769-35.942 122.7 122.7 0 01-35.942-86.769V389.28h245.422zm-7.405 200.188v319.233a75.64 75.64 0 01-22.152 53.485 75.649 75.649 0 01-53.485 22.152H154.976a75.632 75.632 0 01-75.637-75.637V589.469A194.649 194.649 0 010 432.653v-79.339c0-3.342.466-6.667 1.384-9.881L72.502 94.519a75.636 75.636 0 0172.727-54.858h733.54a75.638 75.638 0 0172.73 54.858l71.117 248.914a35.964 35.964 0 011.384 9.881v79.339a194.64 194.64 0 01-79.339 156.816zm-71.933 32.937a194.64 194.64 0 01-202.049-77.024 194.64 194.64 0 01-158.677 81.916 194.635 194.635 0 01-158.677-81.916 194.635 194.635 0 01-158.677 81.916 194.725 194.725 0 01-43.372-4.892v286.297a3.702 3.702 0 003.703 3.702h714.048c.982 0 1.925-.39 2.619-1.083s1.083-1.637 1.083-2.619V622.406zM137.797 541.4a122.707 122.707 0 00143.621-21.978 122.703 122.703 0 0035.942-86.769v-43.372H71.938v43.372a122.705 122.705 0 0056.527 103.33 36.1 36.1 0 019.334 5.416zM389.29 389.281v43.372a122.705 122.705 0 0035.942 86.769 122.7 122.7 0 0086.769 35.942 122.7 122.7 0 0086.769-35.942 122.7 122.7 0 0035.942-86.769v-43.372H389.29z"/></symbol><symbol id="sprite-star" viewBox="0 0 1024 1024"><title>star</title><path d="M512 0l158.215 337.08L1024 391.134l-256 262.38 60.436 370.487L512 849.081l-316.433 174.92L256 653.514 0 391.134l353.783-54.054L512 0z"/></symbol><symbol id="sprite-youtube" viewBox="0 0 1024 1024"><title/><path d="M1017.424 276.553c0-98.821-66.211-178.317-148.022-178.317-110.815-5.687-223.829-7.884-339.322-7.884h-36.005c-115.214 0-228.429 2.196-339.243 7.906-81.61 0-147.819 79.935-147.819 178.755-5 78.156-7.121 156.335-7.001 234.513-.2 78.179 2.067 156.43 6.801 234.752 0 98.822 66.209 178.977 147.819 178.977 116.414 5.934 235.83 8.566 357.245 8.349 121.618.434 240.697-2.343 357.247-8.349 81.812 0 148.016-80.155 148.016-178.977 4.8-78.395 6.999-156.574 6.801-234.971a3501.438 3501.438 0 00-6.517-234.755zM414.066 726.955V295.438l290.038 215.649-290.038 215.868z"/></symbol></svg>