<svg xmlns="http://www.w3.org/2000/svg" xmlns:xlink="http://www.w3.org/1999/xlink"><symbol fill="none" id="sprite-arrow-btn" viewBox="0 0 42 13"><title>arrow-btn</title><path d="M1 6.5h40m0 0L34.5 1M41 6.5L34.5 12" stroke="#333" stroke-linecap="round" stroke-linejoin="round"/></symbol><symbol id="sprite-arrow" viewBox="0 0 1024 1024"><title/><path d="M512.064 894.928L0 129.071h1024L512.064 894.928z"/></symbol><symbol fill="none" id="sprite-cart" viewBox="0 0 27 27"><title>cart</title><path fill-rule="evenodd" clip-rule="evenodd" d="M.998.15a.85.85 0 100 1.7h2.257a.15.15 0 01.147.123l.758 4.164.005.031 1.813 9.97a.81.81 0 00.005.03l.866 4.762a3.35 3.35 0 105.066.92h7.167a3.35 3.35 0 102.916-1.7H8.435l-.6-3.3h14.676a2.85 2.85 0 002.804-2.34l1.52-8.358a.85.85 0 00-.837-1.002H5.708l-.633-3.481a1.85 1.85 0 00-1.82-1.52H.998zm5.019 6.7l1.509 8.3h14.985a1.15 1.15 0 001.132-.944L24.98 6.85H6.017zM20.348 23.5a1.65 1.65 0 113.3 0 1.65 1.65 0 01-3.3 0zm-11.35-1.65a1.65 1.65 0 100 3.3 1.65 1.65 0 000-3.3z" fill="#333"/></symbol><symbol id="sprite-chevrone" viewBox="0 0 1024 1024"><title/><path d="M1023.982 259.593c.335-15.135-4.054-29.997-12.559-42.52s-20.706-22.087-34.896-27.359-29.669-5.992-44.287-2.06a72.823 72.823 0 00-37.273 24.002L513.176 657.317 131.52 211.656a72.829 72.829 0 00-80.048-26.5 72.873 72.873 0 00-26.075 14.358c-7.61 6.529-13.782 14.56-18.145 23.589S.44 241.963.053 251.983a72.818 72.818 0 0021.228 54.267l436.562 510.241a72.804 72.804 0 0055.401 25.556 72.832 72.832 0 0055.409-25.556l436.981-510.241a72.838 72.838 0 0018.363-46.657h-.016z"/></symbol><symbol fill="none" id="sprite-favorite" viewBox="0 0 27 23"><title>favorite</title><path d="M26.651 7.21A7.104 7.104 0 0019.547.105a7.092 7.092 0 00-6.05 3.395A7.093 7.093 0 007.448.105 7.104 7.104 0 00.344 7.21c0 2.136.946 4.047 2.438 5.349L12.85 22.626a.917.917 0 001.297 0l10.067-10.068A7.078 7.078 0 0026.65 7.21z" fill="#fff"/></symbol><symbol id="sprite-insta" viewBox="0 0 1024 1024"><title/><path d="M511.999 249.143c45.714 0 89.143 13.714 130.286 36.571s73.143 54.857 96.004 96c22.85 41.143 36.571 84.571 36.571 130.286 0 48-13.722 91.429-36.571 132.571-22.861 41.143-54.861 73.143-96.004 96s-84.571 34.289-130.286 34.289c-48 0-91.429-11.432-132.571-34.289s-73.143-54.857-96-96S249.142 560 249.142 512c0-45.714 11.429-89.143 34.286-130.286s54.857-73.143 96-96 84.571-36.571 132.571-36.571zm0 434.286c45.714 0 86.857-16 121.143-50.286 32-32 50.286-73.143 50.286-121.143 0-45.714-18.286-86.857-50.286-121.143-34.286-32-75.429-50.286-121.143-50.286-48 0-89.143 18.286-121.143 50.286C356.57 425.143 340.57 466.286 340.57 512c0 48 16 89.143 50.286 121.143 32 34.286 73.143 50.286 121.143 50.286zm336.004-445.715c0-16-6.861-29.714-18.286-43.429-13.722-11.429-27.429-18.286-43.432-18.286-18.286 0-32 6.857-43.432 18.286-13.711 13.714-18.282 27.429-18.282 43.429 0 18.286 4.571 32 18.282 43.429 11.432 13.714 25.147 18.286 43.432 18.286 16.004 0 29.711-4.571 41.143-18.286 11.432-11.429 18.286-25.143 20.575-43.429zm173.714 61.715c0 43.429 2.282 114.286 2.282 212.571 0 100.571-2.282 171.429-4.571 214.857-2.289 43.425-9.143 79.996-18.286 112.004-13.714 38.853-36.571 73.143-64 100.571s-61.711 47.996-98.282 61.711c-32.007 11.432-70.861 18.286-114.289 20.575C681.142 1024 610.285 1024 512 1024c-100.571 0-171.429 0-214.857-2.282-43.429-2.289-80-9.143-112-22.864-38.857-11.425-73.143-31.993-100.571-59.421s-48-61.718-61.714-100.571C11.429 806.855 4.572 770.283 2.287 726.858.001 683.429.001 612.572.001 512.001c0-98.286 0-169.143 2.286-212.571s9.143-82.286 20.571-114.286c13.714-36.571 34.286-70.857 61.714-98.286s61.714-50.286 100.571-64c32-9.143 68.571-16 112-18.286S411.429.001 512 .001c98.286 0 169.143 2.286 212.571 4.571s82.282 9.143 114.289 18.286c36.571 13.714 70.853 36.571 98.282 64s50.286 61.714 64 98.286c9.143 32 15.996 70.857 20.575 114.286zM912.003 813.714c9.143-25.147 13.707-66.282 18.286-123.429 0-32 2.282-80 2.282-141.714v-73.143c0-61.714-2.282-109.714-2.282-141.714-4.579-57.143-9.143-98.286-18.286-123.429-18.286-45.714-52.575-80-98.289-98.286-25.147-9.143-66.282-13.714-123.429-18.286-34.286 0-82.286-2.286-141.714-2.286h-73.143c-61.714 0-109.714 2.286-141.714 2.286-57.143 4.571-98.286 9.143-123.429 18.286-48 18.286-80 52.571-98.286 98.286-9.143 25.143-16 66.286-18.286 123.429C91.427 368 91.427 416 91.427 475.428v73.143c0 61.714 0 109.714 2.286 141.714 2.286 57.147 9.143 98.282 18.286 123.429 18.286 47.996 52.571 80.004 98.286 98.289 25.143 9.143 66.286 15.996 123.429 18.286 32 2.282 80 2.282 141.714 2.282h73.143c61.714 0 109.714 0 141.714-2.282 57.147-2.289 98.282-9.143 123.429-18.286 45.714-18.286 80.004-52.575 98.289-98.289z"/></symbol><symbol id="sprite-like" viewBox="0 0 1024 1024"><title/><path d="M1024 345.008c0-152.723-123.81-276.525-276.531-276.525-99.727 0-186.82 52.962-235.47 132.113-48.651-79.151-135.778-132.113-235.502-132.113C123.774 68.483.001 192.285.001 345.008c0 83.149 36.845 157.54 94.917 208.195l391.847 391.863c6.691 6.695 15.768 10.451 25.234 10.451s18.54-3.756 25.234-10.451l391.844-391.863c58.074-50.656 94.924-125.046 94.924-208.195z"/></symbol><symbol id="sprite-mastercard" viewBox="0 0 1024 1024"><title/><path fill="#ff5f00" d="M650.342 263.263H373.484v497.461h276.858V263.263z"/><path fill="#eb001b" d="M391.113 512c0-101.074 47.461-190.722 120.41-248.73-53.614-42.188-121.29-67.676-195.119-67.676C141.504 195.594 0 337.099 0 512s141.504 316.406 316.404 316.406c73.829 0 141.505-25.488 195.119-67.676-72.949-57.129-120.41-147.655-120.41-248.73z"/><path fill="#f79e1b" d="M1024 512c0 174.901-141.505 316.406-316.409 316.406-73.829 0-141.503-25.488-195.116-67.676 73.826-58.009 120.41-147.655 120.41-248.73s-47.461-190.722-120.41-248.73c53.614-42.188 121.287-67.676 195.116-67.676C882.494 195.594 1024 337.977 1024 512z"/></symbol><symbol class="ldi-47ibm8" preserveAspectRatio="xMidYMid" style="width:525px;webkit-user-select:none;webkit-transform-origin:262.5px 262.5px;webkit-perspective-origin:262.5px 262.5px;webkit-logical-width:525px;webkit-logical-height:525px;user-select:none;transform-origin:262.5px 262.5px;r:0;perspective-origin:262.5px 262.5px;overflow-y:hidden;overflow-x:hidden;inline-size:525px;height:525px;d:none;block-size:525px;background:0 0/auto padding-box border-box" pointer-events="all" overflow="hidden" display="block" id="sprite-ok" viewBox="0 0 100 100"><title>ok</title><svg version="1.1" id="圖層_1" xmlns="http://www.w3.org/2000/svg" x="0" y="0" viewBox="0 0 100 100" xml:space="preserve" style="x:0;webkit-user-select:none;webkit-transform-origin:50px 50px;webkit-perspective-origin:0 0;user-select:none;transform-origin:50px 50px;r:0;perspective-origin:0 0;overflow-y:hidden;overflow-x:hidden" pointer-events="all" overflow="hidden" display="block"><g style="x:0;webkit-user-select:none;webkit-transform-origin:50px 50px;webkit-perspective-origin:0 0;user-select:none;transform-origin:50px 50px;r:0;perspective-origin:0 0"><g style="x:0;webkit-user-select:none;webkit-transform-origin:50px 50px;webkit-transform:matrix(.7,0,0,.7,0,0);webkit-perspective-origin:0 0;user-select:none;transform-origin:50px 50px;r:0;perspective-origin:0 0"><g style="x:0;webkit-user-select:none;webkit-transform-origin:50px 50px;webkit-perspective-origin:0 0;user-select:none;transform-origin:50px 50px;r:0;perspective-origin:0 0"><g style="webkit-user-select:none;webkit-perspective-origin:0 0;user-select:none;perspective-origin:0 0" transform="scale(.7)"><style/><g style="y:0;x:0;webkit-user-select:none;webkit-transform-origin:50px 50px;webkit-perspective-origin:0 0;webkit-animation-duration:2.2s;webkit-animation-delay:.169231s;webkit-animation:2.2s ease .169231s 1 normal none running none;user-select:none;transform-origin:50px 50px;r:0;perspective-origin:0 0;d:none"><circle cx="50" cy="50" r="40" stroke="#3c3" style="webkit-user-select:none;webkit-perspective-origin:0 0;user-select:none;r:40px;perspective-origin:0 0;cy:50px;cx:50px" stroke-width="8" stroke-miterlimit="10" fill="none"/></g><g style="x:0;webkit-user-select:none;webkit-transform-origin:50px 50px;webkit-perspective-origin:0 0;user-select:none;transform-origin:50px 50px;r:0;perspective-origin:0 0"><g style="webkit-user-select:none;webkit-perspective-origin:0 0;user-select:none;perspective-origin:0 0"><g style="y:0;x:0;webkit-user-select:none;webkit-transform-origin:50px 50px;webkit-perspective-origin:0 0;webkit-animation-duration:2.2s;webkit-animation-delay:.338462s;webkit-animation:2.2s ease .338462s 1 normal none running none;user-select:none;transform-origin:50px 50px;r:0;perspective-origin:0 0;d:none" class="ld"><path fill="#3c3" style="webkit-user-select:none;webkit-perspective-origin:0 0;user-select:none;r:0;perspective-origin:0 0" d="M43.7 69.4L25 47.7l3.9-3.9 14.8 12.6 28.6-25.8 2.7 2.7z"/></g></g></g></g></g></g></g><style>@keyframes ldt-bounce-in{0%{-webkit-transform:scale(0);transform:scale(0)}5%{-webkit-transform:scale(.0846);transform:scale(.0846)}6%{-webkit-transform:scale(.191);transform:scale(.191)}7%{-webkit-transform:scale(.3255);transform:scale(.3255)}8%{-webkit-transform:scale(.4804);transform:scale(.4804)}9%{-webkit-transform:scale(.646);transform:scale(.646)}10%{-webkit-transform:scale(.8116);transform:scale(.8116)}11%{-webkit-transform:scale(.9665);transform:scale(.9665)}12%{-webkit-transform:scale(1.1);transform:scale(1.1)}13%{-webkit-transform:scale(1.2069);transform:scale(1.2069)}14%{-webkit-transform:scale(1.2796);transform:scale(1.2796)}19%{-webkit-transform:scale(1.1558);transform:scale(1.1558)}20%{-webkit-transform:scale(1.07);transform:scale(1.07)}21%{-webkit-transform:scale(.9823);transform:scale(.9823)}22%{-webkit-transform:scale(.901);transform:scale(.901)}23%{-webkit-transform:scale(.8328);transform:scale(.8328)}25%{-webkit-transform:scale(.7551);transform:scale(.7551)}29%{-webkit-transform:scale(.8516);transform:scale(.8516)}31%{-webkit-transform:scale(.973);transform:scale(.973)}33%{-webkit-transform:scale(1.0857);transform:scale(1.0857)}35%{-webkit-transform:scale(1.1538);transform:scale(1.1538)}40%{-webkit-transform:scale(1.0771);transform:scale(1.0771)}42%{-webkit-transform:scale(.9954);transform:scale(.9954)}45%{-webkit-transform:scale(.9057);transform:scale(.9057)}52%{-webkit-transform:scale(.9908);transform:scale(.9908)}56%{-webkit-transform:scale(1.0623);transform:scale(1.0623)}64%{-webkit-transform:scale(.9845);transform:scale(.9845)}}@-webkit-keyframes ldt-bounce-in{0%{-webkit-transform:scale(0);transform:scale(0)}5%{-webkit-transform:scale(.0846);transform:scale(.0846)}6%{-webkit-transform:scale(.191);transform:scale(.191)}7%{-webkit-transform:scale(.3255);transform:scale(.3255)}8%{-webkit-transform:scale(.4804);transform:scale(.4804)}9%{-webkit-transform:scale(.646);transform:scale(.646)}10%{-webkit-transform:scale(.8116);transform:scale(.8116)}11%{-webkit-transform:scale(.9665);transform:scale(.9665)}12%{-webkit-transform:scale(1.1);transform:scale(1.1)}13%{-webkit-transform:scale(1.2069);transform:scale(1.2069)}14%{-webkit-transform:scale(1.2796);transform:scale(1.2796)}19%{-webkit-transform:scale(1.1558);transform:scale(1.1558)}20%{-webkit-transform:scale(1.07);transform:scale(1.07)}21%{-webkit-transform:scale(.9823);transform:scale(.9823)}22%{-webkit-transform:scale(.901);transform:scale(.901)}23%{-webkit-transform:scale(.8328);transform:scale(.8328)}25%{-webkit-transform:scale(.7551);transform:scale(.7551)}29%{-webkit-transform:scale(.8516);transform:scale(.8516)}31%{-webkit-transform:scale(.973);transform:scale(.973)}33%{-webkit-transform:scale(1.0857);transform:scale(1.0857)}35%{-webkit-transform:scale(1.1538);transform:scale(1.1538)}40%{-webkit-transform:scale(1.0771);transform:scale(1.0771)}42%{-webkit-transform:scale(.9954);transform:scale(.9954)}45%{-webkit-transform:scale(.9057);transform:scale(.9057)}52%{-webkit-transform:scale(.9908);transform:scale(.9908)}56%{-webkit-transform:scale(1.0623);transform:scale(1.0623)}64%{-webkit-transform:scale(.9845);transform:scale(.9845)}}</style></svg></symbol><symbol fill="none" id="sprite-profile" viewBox="0 0 26 25"><title>profile</title><path fill-rule="evenodd" clip-rule="evenodd" d="M5.849 9a7.15 7.15 0 1114.3 0 7.15 7.15 0 01-14.3 0zm7.15-8.85a8.85 8.85 0 00-4.242 16.619 14.857 14.857 0 00-8.62 6.805.85.85 0 101.473.85 13.156 13.156 0 0122.78 0 .85.85 0 001.473-.85 14.854 14.854 0 00-8.621-6.806A8.85 8.85 0 0012.999.15z" fill="#333"/></symbol><symbol id="sprite-search" viewBox="0 0 1024 1024"><title/><path d="M88.358 453.524c0-201.654 163.473-365.127 365.126-365.127S818.611 251.87 818.611 453.524 655.138 818.651 453.484 818.651c-201.652 0-365.126-163.473-365.126-365.127zM453.484.038C203.032.038 0 203.071 0 453.524S203.032 907.01 453.484 907.01c109.336 0 209.638-38.695 287.95-103.134l207.148 207.148c17.255 17.251 45.224 17.251 62.48 0 17.251-17.255 17.251-45.224 0-62.48L803.909 741.391c64.398-78.301 103.062-178.567 103.062-287.866C906.971 203.072 703.939.039 453.485.039z"/></symbol><symbol id="sprite-star" viewBox="0 0 1024 1024"><title>star</title><path d="M512 0l158.215 337.08L1024 391.134l-256 262.38 60.436 370.487L512 849.081l-316.433 174.92L256 653.514 0 391.134l353.783-54.054L512 0z"/></symbol><symbol id="sprite-visa" viewBox="0 0 1024 1024"><title/><path fill="#0e4595" d="M361.761 665.258l51.784-303.887h82.829l-51.823 303.887h-82.79zm382.046-297.335c-16.407-6.157-42.123-12.763-74.236-12.763-81.847 0-139.497 41.216-139.991 100.287-.461 43.666 41.161 68.026 72.578 82.561 32.243 14.9 43.081 24.397 42.926 37.697-.207 20.371-25.747 29.673-49.557 29.673-33.15 0-50.763-4.606-77.965-15.948l-10.678-4.829-11.622 68.027c19.346 8.487 55.12 15.833 92.268 16.214 87.07 0 143.594-40.745 144.237-103.828.309-34.571-21.757-60.875-69.546-82.566-28.951-14.058-46.682-23.439-46.494-37.674 0-12.631 15.008-26.138 47.44-26.138 27.082-.421 46.705 5.486 61.994 11.643l7.422 3.507 11.225-65.861zm213.151-6.556h-64.004c-19.826 0-34.666 5.412-43.371 25.2l-123.016 278.49h86.979s14.218-37.444 17.434-45.667c9.506 0 94.002.13 106.081.13 2.478 10.64 10.079 45.537 10.079 45.537H1024l-67.041-303.69zM855.409 557.598c6.852-17.508 33.002-84.95 33.002-84.95-.486.809 6.801-17.594 10.982-29.004l5.598 26.2s15.86 72.538 19.175 87.749l-68.757.005zM291.444 361.367l-81.093 207.237-8.639-42.113c-15.099-48.547-62.133-101.145-114.715-127.477l74.15 265.761 87.638-.097 130.403-303.312-87.744-.002z"/><path fill="#f2ae14" d="M134.623 361.355H1.058l-1.059 6.323c103.912 25.154 172.667 85.942 201.214 158.99L172.171 387.02c-5.013-19.243-19.555-24.986-37.545-25.657z"/></symbol><symbol id="sprite-youtube" viewBox="0 0 1024 1024"><title/><path d="M1017.424 276.553c0-98.821-66.211-178.317-148.022-178.317-110.815-5.687-223.829-7.884-339.322-7.884h-36.005c-115.214 0-228.429 2.196-339.243 7.906-81.61 0-147.819 79.935-147.819 178.755-5 78.156-7.121 156.335-7.001 234.513-.2 78.179 2.067 156.43 6.801 234.752 0 98.822 66.209 178.977 147.819 178.977 116.414 5.934 235.83 8.566 357.245 8.349 121.618.434 240.697-2.343 357.247-8.349 81.812 0 148.016-80.155 148.016-178.977 4.8-78.395 6.999-156.574 6.801-234.971a3501.438 3501.438 0 00-6.517-234.755zM414.066 726.955V295.438l290.038 215.649-290.038 215.868z"/></symbol></svg>