<svg xmlns="http://www.w3.org/2000/svg" xmlns:xlink="http://www.w3.org/1999/xlink"><symbol fill="none" id="sprite-arrow-btn" viewBox="0 0 42 13"><title>arrow-btn</title><path d="M1 6.5h40m0 0L34.5 1M41 6.5L34.5 12" stroke="#333" stroke-linecap="round" stroke-linejoin="round"/></symbol><symbol id="sprite-arrow-submit" viewBox="0 0 1024 1024"><title/><path d="M515.37 36.436c-18.437 17.914-18.86 47.382-.95 65.819l352.908 363.199H46.546C20.84 465.454 0 486.294 0 512s20.839 46.546 46.546 46.546h820.782L514.42 921.744c-17.911 18.437-17.487 47.905.95 65.82s47.905 17.492 65.815-.945l429.651-442.181c17.552-18.064 17.552-46.811 0-64.874L581.185 37.383c-17.911-18.436-47.379-18.86-65.815-.946z"/></symbol><symbol id="sprite-arrow" viewBox="0 0 1024 1024"><title/><path d="M512.064 894.928L0 129.071h1024L512.064 894.928z"/></symbol><symbol id="sprite-book" viewBox="0 0 1024 1024"><title/><path d="M516.413 953.38c-4.414 0-8.828 0-17.655-4.414h-4.414c-4.414 0-8.828-4.414-13.241-8.828l-4.414-4.414c-48.552-61.793-127.998-114.759-397.24-114.759-44.138 0-79.448-35.31-79.448-79.448v-591.45c0-8.828 0-22.069 4.414-30.897s8.828-17.655 17.655-26.483c8.828-8.828 17.655-13.241 26.483-17.655 17.655-4.414 26.483-4.414 39.724-4.414 145.656 0 339.86 17.655 428.136 141.242C609.103 88.273 798.901 70.618 944.556 70.618c13.241 0 22.065 0 30.892 4.414s17.655 8.828 26.483 17.655c8.828 8.828 13.241 17.655 17.655 26.483s4.414 17.655 4.414 30.897v595.864c0 22.069-8.828 39.724-22.069 52.966s-35.31 22.069-52.966 22.069c-264.828 0-348.691 57.379-397.242 114.759l-4.414 4.414c-4.414 4.414-8.828 4.414-13.241 8.828 0 0-4.414 0-8.828 4.414h-8.828zm44.138-635.587v489.932c83.862-48.552 198.621-75.035 375.173-75.035V158.895c-291.311 4.414-353.104 88.276-375.173 158.897zM97.104 732.69c176.552 0 291.311 26.483 375.171 79.448V317.792c-22.069-70.621-83.86-154.483-375.171-158.897V732.69z"/></symbol><symbol id="sprite-call" viewBox="0 0 1024 1024"><title/><path d="M258.656 74.976A210.58 210.58 0 0074.957 283.823c0 176.428 70.086 345.627 194.839 470.383C394.549 878.957 563.75 949.044 740.181 949.044zm481.525 874.068a210.593 210.593 0 00139.138-52.526 210.573 210.573 0 0069.708-131.175 3.727 3.727 0 00-2.248-3.809L704.666 657.775a3.79 3.79 0 00-1.874-.295 3.811 3.811 0 00-1.786.631l-129.284 86.207a78.423 78.423 0 01-77.366 5.797l-.265-.128a473.294 473.294 0 01-219.137-218.141l-.126-.26a78.454 78.454 0 01-7.529-39.32 78.415 78.415 0 0112.788-37.812L366 323.181a3.863 3.863 0 00.319-3.632L262.466 77.225a3.721 3.721 0 00-3.811-2.246zM249.589.57a78.678 78.678 0 0181.839 47.284l.026.061 103.762 242.104c5.118 11.945 7.205 24.971 6.071 37.919s-5.454 25.413-12.571 36.287l-86.068 131.51a3.49 3.49 0 00-.267 3.374 398.352 398.352 0 00184.136 183.304c.53.234 1.111.335 1.689.291a3.482 3.482 0 001.685-.582l129.53-86.375c10.909-7.275 23.457-11.711 36.512-12.91s26.208.877 38.258 6.041l241.941 103.694a78.653 78.653 0 0137.297 33.003 78.665 78.665 0 0110 48.839l-.031.247a285.525 285.525 0 01-94.554 178.119 285.532 285.532 0 01-188.666 71.221c-196.307 0-384.575-77.984-523.386-216.791C77.982 668.398-.001 480.129-.001 283.823A285.535 285.535 0 01249.338.604l.249-.031z"/></symbol><symbol id="sprite-card" viewBox="0 0 1024 1024"><title/><path d="M77.649 331.45h868.7V223.241h-868.7V331.45zM0 370.275v432.91c0 41.546 33.678 75.223 75.223 75.223h873.554c41.546 0 75.223-33.677 75.223-75.223V220.816c0-41.545-33.677-75.223-75.223-75.223H75.223C33.678 145.593 0 179.271 0 220.816v149.46zM946.351 409.1v391.659h-868.7V409.1h868.7zm-252.36 246.066h145.592c21.443 0 38.825 17.382 38.825 38.825s-17.382 38.825-38.825 38.825H693.991c-21.443 0-38.825-17.382-38.825-38.825s17.382-38.825 38.825-38.825zm-257.214 38.825c0 21.443 17.382 38.825 38.825 38.825h72.796c21.443 0 38.825-17.382 38.825-38.825s-17.382-38.825-38.825-38.825h-72.796c-21.443 0-38.825 17.382-38.825 38.825z"/></symbol><symbol fill="none" id="sprite-cart" viewBox="0 0 27 27"><title>cart</title><path fill-rule="evenodd" clip-rule="evenodd" d="M.998.15a.85.85 0 100 1.7h2.257a.15.15 0 01.147.123l.758 4.164.005.031 1.813 9.97a.81.81 0 00.005.03l.866 4.762a3.35 3.35 0 105.066.92h7.167a3.35 3.35 0 102.916-1.7H8.435l-.6-3.3h14.676a2.85 2.85 0 002.804-2.34l1.52-8.358a.85.85 0 00-.837-1.002H5.708l-.633-3.481a1.85 1.85 0 00-1.82-1.52H.998zm5.019 6.7l1.509 8.3h14.985a1.15 1.15 0 001.132-.944L24.98 6.85H6.017zM20.348 23.5a1.65 1.65 0 113.3 0 1.65 1.65 0 01-3.3 0zm-11.35-1.65a1.65 1.65 0 100 3.3 1.65 1.65 0 000-3.3z" fill="#333"/></symbol><symbol id="sprite-check" viewBox="0 0 1024 1024"><title/><path d="M512 0C229.686 0 0 229.686 0 512s229.686 512 512 512c282.314 0 512-229.686 512-512S794.314 0 512 0zm266.461 340.406L447.631 734.25a39.281 39.281 0 01-13.241 10.24 39.359 39.359 0 01-16.297 3.817h-.665a39.393 39.393 0 01-29.268-13.044L246.375 577.725c-3.601-3.823-6.402-8.323-8.239-13.239s-2.672-10.151-2.456-15.397a39.387 39.387 0 0169.23-24.045l111.483 123.868 301.761-359.163a39.373 39.373 0 0126.661-13.495 39.365 39.365 0 0128.456 9.104c7.924 6.655 12.908 16.16 13.879 26.462s-2.148 20.571-8.691 28.589z"/></symbol><symbol id="sprite-chevrone" viewBox="0 0 1024 1024"><title/><path d="M1023.982 259.593c.335-15.135-4.054-29.997-12.559-42.52s-20.706-22.087-34.896-27.359-29.669-5.992-44.287-2.06a72.823 72.823 0 00-37.273 24.002L513.176 657.317 131.52 211.656a72.829 72.829 0 00-80.048-26.5 72.873 72.873 0 00-26.075 14.358c-7.61 6.529-13.782 14.56-18.145 23.589S.44 241.963.053 251.983a72.818 72.818 0 0021.228 54.267l436.562 510.241a72.804 72.804 0 0055.401 25.556 72.832 72.832 0 0055.409-25.556l436.981-510.241a72.838 72.838 0 0018.363-46.657h-.016z"/></symbol><symbol id="sprite-close" viewBox="0 0 1024 1024"><title/><path d="M940.013 1009.459c19.208 19.218 50.363 19.218 69.581 0 19.208-19.208 19.208-50.363 0-69.578L581.583 511.872l427.755-427.753c19.208-19.214 19.208-50.367 0-69.581-19.218-19.214-50.372-19.214-69.581 0L512 442.291 84.248 14.538c-19.215-19.214-50.368-19.214-69.582 0s-19.214 50.367 0 69.581l427.753 427.753L14.41 939.881c-19.214 19.215-19.214 50.369 0 69.578 19.214 19.218 50.367 19.218 69.581 0L512 581.453l428.012 428.006z"/></symbol><symbol id="sprite-dialog" viewBox="0 0 1024 1024"><title/><path d="M49.955 501.009C49.158 252.589 255.311 49.951 511.58 49.951c223.38 0 409.294 154.71 452.641 359.169l.01.06a440.788 440.788 0 019.816 92.272c-.005 249.67-198.625 454.844-454.06 454.844-39.916 0-95.373-10.245-125.491-18.677-30.455-8.522-61.163-19.93-68.934-22.933a97.908 97.908 0 00-34.926-6.509h-.06l-.028 24.976.088-24.976a96.936 96.936 0 00-37.439 7.383L96.388 972.144l45.12-163.21c3.268-11.928.871-23.546-1.611-31.459-2.653-8.456-6.576-16.314-10.017-22.333l-.206-.344a124.466 124.466 0 00-6.958-10.485 442.859 442.859 0 01-72.761-243.226v-.08zM511.58.001C228.861.001-.863 223.908.004 501.13a492.836 492.836 0 0081.392 271.268l.412.625.449.599a74.306 74.306 0 014.358 6.499c2.392 4.206 4.442 8.552 5.619 12.303.583 1.863.818 3.157.888 3.916l.01.12-45.677 165.228a61.931 61.931 0 00-2.285 12.662l-.057.764-.01.764a47.465 47.465 0 0013.624 33.931 47.51 47.51 0 0015.432 10.469 47.53 47.53 0 0018.273 3.716l1.34.005 1.333-.14a62.505 62.505 0 0017.424-4.43l159.473-57.589a46.917 46.917 0 0118.457-3.711h.061a47.961 47.961 0 0117.134 3.187c8.544 3.296 40.81 15.295 73.379 24.406 32.961 9.226 93.125 20.525 138.954 20.525 283.562 0 504.01-228.095 504.01-504.825a490.851 490.851 0 00-10.919-102.693C964.765 170.924 758.258-.001 511.58-.001zM362.147 511.999c0 27.588-22.363 49.951-49.951 49.951s-49.951-22.363-49.951-49.951c0-27.587 22.364-49.951 49.951-49.951s49.951 22.364 49.951 49.951zM512 561.949c27.588 0 49.951-22.363 49.951-49.951S539.588 462.047 512 462.047c-27.587 0-49.951 22.364-49.951 49.951s22.364 49.951 49.951 49.951zm249.754-49.95c0 27.588-22.363 49.951-49.951 49.951s-49.951-22.363-49.951-49.951c0-27.587 22.363-49.951 49.951-49.951s49.951 22.364 49.951 49.951z"/></symbol><symbol fill="none" id="sprite-eye-closed" viewBox="0 0 24 24"><title>eye-closed</title><path d="M18.86 11.935l2.138 3.703m-6.545-1.645l.667 3.782m-5.582-3.784l-.667 3.783m-3.734-5.842l-2.149 3.721M3 9.832c1.576 1.951 4.466 4.418 9 4.418s7.424-2.467 9-4.418" stroke="#333" stroke-width="1.7" stroke-linecap="round" stroke-linejoin="round"/></symbol><symbol fill="none" id="sprite-eye-open" viewBox="0 0 24 24"><title>eye-open</title><path d="M12 5.249c-7.5 0-10.5 6.75-10.5 6.75s3 6.75 10.5 6.75 10.5-6.75 10.5-6.75-3-6.75-10.5-6.75z" stroke="#333" stroke-width="1.7" stroke-linecap="round" stroke-linejoin="round"/><path d="M12 15.75a3.75 3.75 0 100-7.5 3.75 3.75 0 000 7.5z" stroke="#333" stroke-width="1.7" stroke-linecap="round" stroke-linejoin="round"/></symbol><symbol fill="none" id="sprite-facebook-btn" viewBox="0 0 9 18"><title>facebook-btn</title><path d="M2.297 18V9.554H0V6.513h2.297V3.915C2.297 1.875 3.655 0 6.782 0c1.266 0 2.202.118 2.202.118l-.074 2.84s-.954-.01-1.996-.01c-1.128 0-1.309.506-1.309 1.344v2.22H9l-.148 3.042H5.605V18H2.297z" fill="#1877F2"/></symbol><symbol fill="none" id="sprite-favorite" viewBox="0 0 27 23"><title>favorite</title><path d="M26.651 7.21A7.104 7.104 0 0019.547.105a7.092 7.092 0 00-6.05 3.395A7.093 7.093 0 007.448.105 7.104 7.104 0 00.344 7.21c0 2.136.946 4.047 2.438 5.349L12.85 22.626a.917.917 0 001.297 0l10.067-10.068A7.078 7.078 0 0026.65 7.21z" fill="#fff"/></symbol><symbol id="sprite-fb" viewBox="0 0 1024 1024"><title/><path d="M398.094 1024V543.512h-118.82V370.51h118.82V222.746C398.094 106.632 468.282.001 630.007.001c65.481 0 113.901 6.712 113.901 6.712l-3.817 161.552s-49.38-.514-103.266-.514c-58.321 0-67.665 28.738-67.665 76.437v126.321h175.566l-7.638 173.002H569.16v480.488H398.093z"/></symbol><symbol fill="none" id="sprite-google-btn" viewBox="0 0 18 18"><title>google-btn</title><path d="M17.164 9.205c0-.614-.049-1.226-.15-1.831H8.755v3.465h4.728a4.171 4.171 0 01-1.748 2.735v2.25h2.823c1.652-1.563 2.605-3.88 2.605-6.62z" fill="#4285F4"/><path d="M8.754 18c2.363 0 4.353-.797 5.803-2.173l-2.823-2.25c-.786.547-1.797.86-2.98.86-2.283 0-4.222-1.582-4.915-3.714H.932v2.319C2.417 16.082 5.444 18 8.754 18z" fill="#34A853"/><path d="M3.84 10.723a5.534 5.534 0 010-3.445V4.96H.933a9.222 9.222 0 000 8.083l2.907-2.319z" fill="#FBBC04"/><path d="M8.754 3.564a4.685 4.685 0 013.358 1.349l2.5-2.568A8.299 8.299 0 008.754 0C5.444 0 2.417 1.92.932 4.959l2.907 2.319c.693-2.132 2.632-3.714 4.915-3.714z" fill="#EA4335"/></symbol><symbol id="sprite-inst" viewBox="0 0 1024 1024"><title/><path d="M512.115 249.46c-145.292 0-262.483 117.218-262.483 262.54 0 145.325 117.191 262.539 262.483 262.539 145.286 0 262.479-117.215 262.479-262.539 0-145.322-117.192-262.54-262.479-262.54zm0 433.226c-93.892 0-170.649-76.548-170.649-170.687s76.528-170.686 170.649-170.686c94.115 0 170.645 76.546 170.645 170.686 0 94.138-76.758 170.687-170.645 170.687zM846.553 238.72c0 34.045-27.41 61.237-61.221 61.237-34.039 0-61.221-27.419-61.221-61.237s27.41-61.237 61.221-61.237c33.811 0 61.221 27.419 61.221 61.237zm173.848 62.151c-3.882-82.03-22.616-154.69-82.697-214.556C877.851 26.45 805.208 7.713 723.195 3.6c-84.522-4.799-337.867-4.799-422.391 0-81.783 3.884-154.428 22.621-214.508 82.486S7.711 218.613 3.6 300.642c-4.798 84.544-4.798 337.942 0 422.487 3.884 82.028 22.616 154.689 82.696 214.555s132.497 78.601 214.508 82.716c84.524 4.799 337.869 4.799 422.391 0 82.012-3.887 154.656-22.621 214.509-82.716 59.853-59.866 78.588-132.529 82.697-214.555 4.799-84.545 4.799-337.716 0-422.259zm-109.196 512.97c-17.817 44.786-52.312 79.285-97.317 97.336-67.393 26.736-227.3 20.568-301.772 20.568-74.475 0-234.613 5.939-301.775-20.568-44.776-17.821-79.271-52.322-97.317-97.336-26.728-67.406-20.56-227.35-20.56-301.842s-5.939-234.665 20.56-301.841c17.818-44.785 52.313-79.288 97.317-97.339 67.391-26.735 227.302-20.564 301.775-20.564s234.612-5.941 301.772 20.564c44.777 17.822 79.272 52.325 97.317 97.339 26.726 67.405 20.559 227.35 20.559 301.841s6.167 234.664-20.559 301.842z"/></symbol><symbol id="sprite-insta" viewBox="0 0 1024 1024"><title/><path d="M511.999 249.143c45.714 0 89.143 13.714 130.286 36.571s73.143 54.857 96.004 96c22.85 41.143 36.571 84.571 36.571 130.286 0 48-13.722 91.429-36.571 132.571-22.861 41.143-54.861 73.143-96.004 96s-84.571 34.289-130.286 34.289c-48 0-91.429-11.432-132.571-34.289s-73.143-54.857-96-96S249.142 560 249.142 512c0-45.714 11.429-89.143 34.286-130.286s54.857-73.143 96-96 84.571-36.571 132.571-36.571zm0 434.286c45.714 0 86.857-16 121.143-50.286 32-32 50.286-73.143 50.286-121.143 0-45.714-18.286-86.857-50.286-121.143-34.286-32-75.429-50.286-121.143-50.286-48 0-89.143 18.286-121.143 50.286C356.57 425.143 340.57 466.286 340.57 512c0 48 16 89.143 50.286 121.143 32 34.286 73.143 50.286 121.143 50.286zm336.004-445.715c0-16-6.861-29.714-18.286-43.429-13.722-11.429-27.429-18.286-43.432-18.286-18.286 0-32 6.857-43.432 18.286-13.711 13.714-18.282 27.429-18.282 43.429 0 18.286 4.571 32 18.282 43.429 11.432 13.714 25.147 18.286 43.432 18.286 16.004 0 29.711-4.571 41.143-18.286 11.432-11.429 18.286-25.143 20.575-43.429zm173.714 61.715c0 43.429 2.282 114.286 2.282 212.571 0 100.571-2.282 171.429-4.571 214.857-2.289 43.425-9.143 79.996-18.286 112.004-13.714 38.853-36.571 73.143-64 100.571s-61.711 47.996-98.282 61.711c-32.007 11.432-70.861 18.286-114.289 20.575C681.142 1024 610.285 1024 512 1024c-100.571 0-171.429 0-214.857-2.282-43.429-2.289-80-9.143-112-22.864-38.857-11.425-73.143-31.993-100.571-59.421s-48-61.718-61.714-100.571C11.429 806.855 4.572 770.283 2.287 726.858.001 683.429.001 612.572.001 512.001c0-98.286 0-169.143 2.286-212.571s9.143-82.286 20.571-114.286c13.714-36.571 34.286-70.857 61.714-98.286s61.714-50.286 100.571-64c32-9.143 68.571-16 112-18.286S411.429.001 512 .001c98.286 0 169.143 2.286 212.571 4.571s82.282 9.143 114.289 18.286c36.571 13.714 70.853 36.571 98.282 64s50.286 61.714 64 98.286c9.143 32 15.996 70.857 20.575 114.286zM912.003 813.714c9.143-25.147 13.707-66.282 18.286-123.429 0-32 2.282-80 2.282-141.714v-73.143c0-61.714-2.282-109.714-2.282-141.714-4.579-57.143-9.143-98.286-18.286-123.429-18.286-45.714-52.575-80-98.289-98.286-25.147-9.143-66.282-13.714-123.429-18.286-34.286 0-82.286-2.286-141.714-2.286h-73.143c-61.714 0-109.714 2.286-141.714 2.286-57.143 4.571-98.286 9.143-123.429 18.286-48 18.286-80 52.571-98.286 98.286-9.143 25.143-16 66.286-18.286 123.429C91.427 368 91.427 416 91.427 475.428v73.143c0 61.714 0 109.714 2.286 141.714 2.286 57.147 9.143 98.282 18.286 123.429 18.286 47.996 52.571 80.004 98.286 98.289 25.143 9.143 66.286 15.996 123.429 18.286 32 2.282 80 2.282 141.714 2.282h73.143c61.714 0 109.714 0 141.714-2.282 57.147-2.289 98.282-9.143 123.429-18.286 45.714-18.286 80.004-52.575 98.289-98.289z"/></symbol><symbol id="sprite-like" viewBox="0 0 1024 1024"><title/><path d="M1024 345.008c0-152.723-123.81-276.525-276.531-276.525-99.727 0-186.82 52.962-235.47 132.113-48.651-79.151-135.778-132.113-235.502-132.113C123.774 68.483.001 192.285.001 345.008c0 83.149 36.845 157.54 94.917 208.195l391.847 391.863c6.691 6.695 15.768 10.451 25.234 10.451s18.54-3.756 25.234-10.451l391.844-391.863c58.074-50.656 94.924-125.046 94.924-208.195z"/></symbol><symbol id="sprite-mail" viewBox="0 0 1024 1024"><title/><path d="M492.049 45.71a35.968 35.968 0 0139.902 0l476.033 317.355A35.962 35.962 0 011024 392.992v515.702a75.64 75.64 0 01-21.517 52.838 35.058 35.058 0 01-2.937 2.852 75.654 75.654 0 01-51.183 19.947H75.636a75.641 75.641 0 01-53.483-22.151A75.641 75.641 0 010 908.695V392.993a35.966 35.966 0 0116.017-29.927L492.049 45.711zm460.017 830.482V462.805L660.814 670.461l291.252 205.73zM587.357 706.644l291.285 205.752H145.751l291.284-205.752h150.32zm-.313-71.934l337.64-240.725-412.685-275.122L99.316 393.985 436.955 634.71h150.088zm-223.661 35.891L71.935 462.806v413.662l291.448-205.866z"/></symbol><symbol id="sprite-money" viewBox="0 0 1024 1024"><title/><path d="M307.904 203.894H953.77c38.789 0 70.23 31.443 70.23 70.23v475.752c0 38.789-31.441 70.23-70.23 70.23H70.23c-38.787 0-70.23-31.441-70.23-70.23V546.158a24.067 24.067 0 010-.38v-67.554a24.067 24.067 0 010-.38V274.126c0-38.787 31.443-70.23 70.23-70.23h237.671zm394.374 72.496H321.729L72.499 494.466v35.068l249.23 218.076h380.549l249.229-218.076v-35.068L702.278 276.39zm110.092 0l139.137 121.747V276.39H812.37zm139.137 349.475L812.37 747.611h139.137V625.865zM211.638 747.611L72.499 625.865v121.746h139.139zM72.499 398.137L211.638 276.39H72.499v121.747zm439.503 14.182c-55.053 0-99.681 44.629-99.681 99.681s44.629 99.681 99.681 99.681c55.053 0 99.681-44.629 99.681-99.681s-44.629-99.681-99.681-99.681zm-172.176 99.682c0-95.09 77.088-172.177 172.177-172.177 95.092 0 172.177 77.086 172.177 172.177s-77.085 172.177-172.177 172.177c-95.089 0-172.177-77.085-172.177-172.177z"/></symbol><symbol class="ldi-47ibm8" preserveAspectRatio="xMidYMid" style="width:525px;webkit-user-select:none;webkit-transform-origin:262.5px 262.5px;webkit-perspective-origin:262.5px 262.5px;webkit-logical-width:525px;webkit-logical-height:525px;user-select:none;transform-origin:262.5px 262.5px;r:0;perspective-origin:262.5px 262.5px;overflow-y:hidden;overflow-x:hidden;inline-size:525px;height:525px;d:none;block-size:525px;background:0 0/auto padding-box border-box" pointer-events="all" overflow="hidden" display="block" id="sprite-ok" viewBox="0 0 100 100"><title>ok</title><svg version="1.1" id="圖層_1" xmlns="http://www.w3.org/2000/svg" x="0" y="0" viewBox="0 0 100 100" xml:space="preserve" style="x:0;webkit-user-select:none;webkit-transform-origin:50px 50px;webkit-perspective-origin:0 0;user-select:none;transform-origin:50px 50px;r:0;perspective-origin:0 0;overflow-y:hidden;overflow-x:hidden" pointer-events="all" overflow="hidden" display="block"><g style="x:0;webkit-user-select:none;webkit-transform-origin:50px 50px;webkit-perspective-origin:0 0;user-select:none;transform-origin:50px 50px;r:0;perspective-origin:0 0"><g style="x:0;webkit-user-select:none;webkit-transform-origin:50px 50px;webkit-transform:matrix(.7,0,0,.7,0,0);webkit-perspective-origin:0 0;user-select:none;transform-origin:50px 50px;r:0;perspective-origin:0 0"><g style="x:0;webkit-user-select:none;webkit-transform-origin:50px 50px;webkit-perspective-origin:0 0;user-select:none;transform-origin:50px 50px;r:0;perspective-origin:0 0"><g style="webkit-user-select:none;webkit-perspective-origin:0 0;user-select:none;perspective-origin:0 0" transform="scale(.7)"><style/><g style="y:0;x:0;webkit-user-select:none;webkit-transform-origin:50px 50px;webkit-perspective-origin:0 0;webkit-animation-duration:2.2s;webkit-animation-delay:.169231s;webkit-animation:2.2s ease .169231s 1 normal none running none;user-select:none;transform-origin:50px 50px;r:0;perspective-origin:0 0;d:none"><circle cx="50" cy="50" r="40" stroke="#3c3" style="webkit-user-select:none;webkit-perspective-origin:0 0;user-select:none;r:40px;perspective-origin:0 0;cy:50px;cx:50px" stroke-width="8" stroke-miterlimit="10" fill="none"/></g><g style="x:0;webkit-user-select:none;webkit-transform-origin:50px 50px;webkit-perspective-origin:0 0;user-select:none;transform-origin:50px 50px;r:0;perspective-origin:0 0"><g style="webkit-user-select:none;webkit-perspective-origin:0 0;user-select:none;perspective-origin:0 0"><g style="y:0;x:0;webkit-user-select:none;webkit-transform-origin:50px 50px;webkit-perspective-origin:0 0;webkit-animation-duration:2.2s;webkit-animation-delay:.338462s;webkit-animation:2.2s ease .338462s 1 normal none running none;user-select:none;transform-origin:50px 50px;r:0;perspective-origin:0 0;d:none" class="ld"><path fill="#3c3" style="webkit-user-select:none;webkit-perspective-origin:0 0;user-select:none;r:0;perspective-origin:0 0" d="M43.7 69.4L25 47.7l3.9-3.9 14.8 12.6 28.6-25.8 2.7 2.7z"/></g></g></g></g></g></g></g><style>@keyframes ldt-bounce-in{0%{-webkit-transform:scale(0);transform:scale(0)}5%{-webkit-transform:scale(.0846);transform:scale(.0846)}6%{-webkit-transform:scale(.191);transform:scale(.191)}7%{-webkit-transform:scale(.3255);transform:scale(.3255)}8%{-webkit-transform:scale(.4804);transform:scale(.4804)}9%{-webkit-transform:scale(.646);transform:scale(.646)}10%{-webkit-transform:scale(.8116);transform:scale(.8116)}11%{-webkit-transform:scale(.9665);transform:scale(.9665)}12%{-webkit-transform:scale(1.1);transform:scale(1.1)}13%{-webkit-transform:scale(1.2069);transform:scale(1.2069)}14%{-webkit-transform:scale(1.2796);transform:scale(1.2796)}19%{-webkit-transform:scale(1.1558);transform:scale(1.1558)}20%{-webkit-transform:scale(1.07);transform:scale(1.07)}21%{-webkit-transform:scale(.9823);transform:scale(.9823)}22%{-webkit-transform:scale(.901);transform:scale(.901)}23%{-webkit-transform:scale(.8328);transform:scale(.8328)}25%{-webkit-transform:scale(.7551);transform:scale(.7551)}29%{-webkit-transform:scale(.8516);transform:scale(.8516)}31%{-webkit-transform:scale(.973);transform:scale(.973)}33%{-webkit-transform:scale(1.0857);transform:scale(1.0857)}35%{-webkit-transform:scale(1.1538);transform:scale(1.1538)}40%{-webkit-transform:scale(1.0771);transform:scale(1.0771)}42%{-webkit-transform:scale(.9954);transform:scale(.9954)}45%{-webkit-transform:scale(.9057);transform:scale(.9057)}52%{-webkit-transform:scale(.9908);transform:scale(.9908)}56%{-webkit-transform:scale(1.0623);transform:scale(1.0623)}64%{-webkit-transform:scale(.9845);transform:scale(.9845)}}@-webkit-keyframes ldt-bounce-in{0%{-webkit-transform:scale(0);transform:scale(0)}5%{-webkit-transform:scale(.0846);transform:scale(.0846)}6%{-webkit-transform:scale(.191);transform:scale(.191)}7%{-webkit-transform:scale(.3255);transform:scale(.3255)}8%{-webkit-transform:scale(.4804);transform:scale(.4804)}9%{-webkit-transform:scale(.646);transform:scale(.646)}10%{-webkit-transform:scale(.8116);transform:scale(.8116)}11%{-webkit-transform:scale(.9665);transform:scale(.9665)}12%{-webkit-transform:scale(1.1);transform:scale(1.1)}13%{-webkit-transform:scale(1.2069);transform:scale(1.2069)}14%{-webkit-transform:scale(1.2796);transform:scale(1.2796)}19%{-webkit-transform:scale(1.1558);transform:scale(1.1558)}20%{-webkit-transform:scale(1.07);transform:scale(1.07)}21%{-webkit-transform:scale(.9823);transform:scale(.9823)}22%{-webkit-transform:scale(.901);transform:scale(.901)}23%{-webkit-transform:scale(.8328);transform:scale(.8328)}25%{-webkit-transform:scale(.7551);transform:scale(.7551)}29%{-webkit-transform:scale(.8516);transform:scale(.8516)}31%{-webkit-transform:scale(.973);transform:scale(.973)}33%{-webkit-transform:scale(1.0857);transform:scale(1.0857)}35%{-webkit-transform:scale(1.1538);transform:scale(1.1538)}40%{-webkit-transform:scale(1.0771);transform:scale(1.0771)}42%{-webkit-transform:scale(.9954);transform:scale(.9954)}45%{-webkit-transform:scale(.9057);transform:scale(.9057)}52%{-webkit-transform:scale(.9908);transform:scale(.9908)}56%{-webkit-transform:scale(1.0623);transform:scale(1.0623)}64%{-webkit-transform:scale(.9845);transform:scale(.9845)}}</style></svg></symbol><symbol fill="none" id="sprite-profile" viewBox="0 0 26 25"><title>profile</title><path fill-rule="evenodd" clip-rule="evenodd" d="M5.849 9a7.15 7.15 0 1114.3 0 7.15 7.15 0 01-14.3 0zm7.15-8.85a8.85 8.85 0 00-4.242 16.619 14.857 14.857 0 00-8.62 6.805.85.85 0 101.473.85 13.156 13.156 0 0122.78 0 .85.85 0 001.473-.85 14.854 14.854 0 00-8.621-6.806A8.85 8.85 0 0012.999.15z" fill="#333"/></symbol><symbol fill="none" id="sprite-quote-end" viewBox="0 0 53 41"><title>quote-end</title><g filter="url(#filter0_d)"><path d="M30.103 32.761c-.534.319-.854.319-.96 0-.214-.212-.054-.424.48-.636 3.63-1.802 6.512-4.029 8.647-6.68 2.029-2.544 3.043-4.982 3.043-7.315 0-.954-.373-1.643-1.12-2.067-.855-.318-2.136-.636-3.844-.955-2.67-.424-4.751-1.113-6.246-2.067-1.495-.954-2.242-2.704-2.242-5.248 0-1.909 1.068-3.711 3.203-5.407C33.093.796 35.708 0 38.911 0c3.31 0 5.819.742 7.527 2.227C48.146 3.817 49 5.778 49 8.11c0 4.983-1.815 9.542-5.445 13.677-3.736 4.24-8.22 7.899-13.452 10.973zm-23.861 0c-.534.319-.907.319-1.121 0-.214-.212-.053-.424.48-.636 3.63-1.696 6.513-3.87 8.648-6.52 2.029-2.65 3.043-5.142 3.043-7.475 0-.954-.374-1.643-1.121-2.067-.854-.318-2.135-.636-3.844-.955-2.669-.424-4.697-1.113-6.085-2.067C4.747 12.193 4 10.443 4 7.793c0-1.909 1.068-3.711 3.203-5.407C9.23.796 11.847 0 15.05 0c3.31 0 5.818.742 7.526 2.227 1.709 1.59 2.563 3.551 2.563 5.884 0 4.983-1.815 9.542-5.445 13.677-3.737 4.24-8.22 7.899-13.452 10.973z" fill="#333"/></g><defs><filter id="filter0_d" x="0" y="0" width="53" height="41" filterUnits="userSpaceOnUse" color-interpolation-filters="sRGB"><feFlood flood-opacity="0" result="BackgroundImageFix"/><feColorMatrix in="SourceAlpha" values="0 0 0 0 0 0 0 0 0 0 0 0 0 0 0 0 0 0 127 0" result="hardAlpha"/><feOffset dy="4"/><feGaussianBlur stdDeviation="2"/><feColorMatrix values="0 0 0 0 1 0 0 0 0 1 0 0 0 0 1 0 0 0 1 0"/><feBlend in2="BackgroundImageFix" result="effect1_dropShadow"/><feBlend in="SourceGraphic" in2="effect1_dropShadow" result="shape"/></filter></defs></symbol><symbol fill="none" id="sprite-quote-start" viewBox="0 0 53 41"><title>quote-start</title><g filter="url(#filter0_d)"><path d="M22.897.239c.534-.319.854-.319.96 0 .214.212.054.424-.48.636-3.63 1.802-6.512 4.029-8.647 6.68-2.029 2.544-3.043 4.982-3.043 7.315 0 .954.373 1.643 1.12 2.067.855.318 2.136.636 3.844.955 2.67.424 4.751 1.113 6.246 2.067 1.495.954 2.242 2.704 2.242 5.248 0 1.909-1.068 3.711-3.203 5.407C19.907 32.205 17.292 33 14.089 33c-3.31 0-5.819-.742-7.527-2.227C4.854 29.183 4 27.222 4 24.89c0-4.983 1.815-9.542 5.445-13.677 3.736-4.24 8.22-7.899 13.452-10.973zm23.861 0c.534-.319.907-.319 1.121 0 .214.212.053.424-.48.636-3.63 1.696-6.513 3.87-8.648 6.52-2.029 2.65-3.043 5.142-3.043 7.475 0 .954.374 1.643 1.121 2.067.854.318 2.135.636 3.844.955 2.669.424 4.697 1.113 6.085 2.067 1.495.848 2.242 2.598 2.242 5.248 0 1.909-1.068 3.711-3.203 5.407C43.77 32.205 41.153 33 37.95 33c-3.31 0-5.818-.742-7.527-2.227-1.708-1.59-2.562-3.551-2.562-5.884 0-4.983 1.815-9.542 5.445-13.677 3.737-4.24 8.22-7.899 13.452-10.973z" fill="#333"/></g><defs><filter id="filter0_d" x="0" y="0" width="53" height="41" filterUnits="userSpaceOnUse" color-interpolation-filters="sRGB"><feFlood flood-opacity="0" result="BackgroundImageFix"/><feColorMatrix in="SourceAlpha" values="0 0 0 0 0 0 0 0 0 0 0 0 0 0 0 0 0 0 127 0" result="hardAlpha"/><feOffset dy="4"/><feGaussianBlur stdDeviation="2"/><feColorMatrix values="0 0 0 0 1 0 0 0 0 1 0 0 0 0 1 0 0 0 1 0"/><feBlend in2="BackgroundImageFix" result="effect1_dropShadow"/><feBlend in="SourceGraphic" in2="effect1_dropShadow" result="shape"/></filter></defs></symbol><symbol id="sprite-search" viewBox="0 0 1024 1024"><title/><path d="M88.358 453.524c0-201.654 163.473-365.127 365.126-365.127S818.611 251.87 818.611 453.524 655.138 818.651 453.484 818.651c-201.652 0-365.126-163.473-365.126-365.127zM453.484.038C203.032.038 0 203.071 0 453.524S203.032 907.01 453.484 907.01c109.336 0 209.638-38.695 287.95-103.134l207.148 207.148c17.255 17.251 45.224 17.251 62.48 0 17.251-17.255 17.251-45.224 0-62.48L803.909 741.391c64.398-78.301 103.062-178.567 103.062-287.866C906.971 203.072 703.939.039 453.485.039z"/></symbol><symbol id="sprite-shop" viewBox="0 0 1024 1024"><title/><path d="M145.231 111.596h733.54c.808 0 1.591.263 2.23.747a3.699 3.699 0 011.333 1.939l58.017 203.066H83.653l58.019-203.066a3.7 3.7 0 013.56-2.686zm806.835 277.685v43.372a122.7 122.7 0 01-56.557 103.352 35.905 35.905 0 00-9.275 5.382 122.724 122.724 0 01-56.879 13.976 122.7 122.7 0 01-86.769-35.942 122.7 122.7 0 01-35.942-86.769V389.28h245.422zm-7.405 200.188v319.233a75.64 75.64 0 01-22.152 53.485 75.649 75.649 0 01-53.485 22.152H154.976a75.632 75.632 0 01-75.637-75.637V589.469A194.649 194.649 0 010 432.653v-79.339c0-3.342.466-6.667 1.384-9.881L72.502 94.519a75.636 75.636 0 0172.727-54.858h733.54a75.638 75.638 0 0172.73 54.858l71.117 248.914a35.964 35.964 0 011.384 9.881v79.339a194.64 194.64 0 01-79.339 156.816zm-71.933 32.937a194.64 194.64 0 01-202.049-77.024 194.64 194.64 0 01-158.677 81.916 194.635 194.635 0 01-158.677-81.916 194.635 194.635 0 01-158.677 81.916 194.725 194.725 0 01-43.372-4.892v286.297a3.702 3.702 0 003.703 3.702h714.048c.982 0 1.925-.39 2.619-1.083s1.083-1.637 1.083-2.619V622.406zM137.797 541.4a122.707 122.707 0 00143.621-21.978 122.703 122.703 0 0035.942-86.769v-43.372H71.938v43.372a122.705 122.705 0 0056.527 103.33 36.1 36.1 0 019.334 5.416zM389.29 389.281v43.372a122.705 122.705 0 0035.942 86.769 122.7 122.7 0 0086.769 35.942 122.7 122.7 0 0086.769-35.942 122.7 122.7 0 0035.942-86.769v-43.372H389.29z"/></symbol><symbol id="sprite-star" viewBox="0 0 1024 1024"><title>star</title><path d="M512 0l158.215 337.08L1024 391.134l-256 262.38 60.436 370.487L512 849.081l-316.433 174.92L256 653.514 0 391.134l353.783-54.054L512 0z"/></symbol><symbol id="sprite-youtube" viewBox="0 0 1024 1024"><title/><path d="M1017.424 276.553c0-98.821-66.211-178.317-148.022-178.317-110.815-5.687-223.829-7.884-339.322-7.884h-36.005c-115.214 0-228.429 2.196-339.243 7.906-81.61 0-147.819 79.935-147.819 178.755-5 78.156-7.121 156.335-7.001 234.513-.2 78.179 2.067 156.43 6.801 234.752 0 98.822 66.209 178.977 147.819 178.977 116.414 5.934 235.83 8.566 357.245 8.349 121.618.434 240.697-2.343 357.247-8.349 81.812 0 148.016-80.155 148.016-178.977 4.8-78.395 6.999-156.574 6.801-234.971a3501.438 3501.438 0 00-6.517-234.755zM414.066 726.955V295.438l290.038 215.649-290.038 215.868z"/></symbol></svg>