<svg xmlns="http://www.w3.org/2000/svg" viewBox="0 0 1024 1024"><path fill="#0e4595" d="M361.761 665.258l51.784-303.887h82.829l-51.823 303.887h-82.79zm382.046-297.335c-16.407-6.157-42.123-12.763-74.236-12.763-81.847 0-139.497 41.216-139.991 100.287-.461 43.666 41.161 68.026 72.578 82.561 32.243 14.9 43.081 24.397 42.926 37.697-.207 20.371-25.747 29.673-49.557 29.673-33.15 0-50.763-4.606-77.965-15.948l-10.678-4.829-11.622 68.027c19.346 8.487 55.12 15.833 92.268 16.214 87.07 0 143.594-40.745 144.237-103.828.309-34.571-21.757-60.875-69.546-82.566-28.951-14.058-46.682-23.439-46.494-37.674 0-12.631 15.008-26.138 47.44-26.138 27.082-.421 46.705 5.486 61.994 11.643l7.422 3.507 11.225-65.861zm213.151-6.556h-64.004c-19.826 0-34.666 5.412-43.371 25.2l-123.016 278.49h86.979s14.218-37.444 17.434-45.667c9.506 0 94.002.13 106.081.13 2.478 10.64 10.079 45.537 10.079 45.537H1024l-67.041-303.69zM855.409 557.598c6.852-17.508 33.002-84.95 33.002-84.95-.486.809 6.801-17.594 10.982-29.004l5.598 26.2s15.86 72.538 19.175 87.749l-68.757.005zM291.444 361.367l-81.093 207.237-8.639-42.113c-15.099-48.547-62.133-101.145-114.715-127.477l74.15 265.761 87.638-.097 130.403-303.312-87.744-.002z"/><path fill="#f2ae14" d="M134.623 361.355H1.058l-1.059 6.323c103.912 25.154 172.667 85.942 201.214 158.99L172.171 387.02c-5.013-19.243-19.555-24.986-37.545-25.657z"/></svg>