<svg xmlns="http://www.w3.org/2000/svg" fill="none" viewBox="0 0 124 145"><path fill="#FFF4F4" d="M76.361 140.988c25.868 0 46.838-20.058 46.838-44.8 0-24.744-20.97-44.802-46.838-44.802-25.868 0-46.838 20.058-46.838 44.801 0 24.743 20.97 44.801 46.838 44.801z"/><path fill="#333" d="M58.602 144.545l.39-.854a25.396 25.396 0 0 0 1.972-6.748c.315-1.98.497-3.978.546-5.981v-1.237-3.914c-.08-3.379.058-6.76.415-10.123.837-6.473 3.254-12.664 7.054-18.068 3.128-4.431 7.193-8.447 13.18-13.035a171.664 171.664 0 0 1 5.865-4.282c.863-.61 1.727-1.221 2.598-1.824 6.818-4.776 13.848-9.716 19.11-15.955l.815-.97.252 1.22a149.445 149.445 0 0 1 2.444 20.488c.399 5.88.668 11.18 0 16.526-1.703 12.618-8.326 24.143-18.532 32.247-9.946 7.838-22.338 12.248-35.197 12.525l-.912-.015zm51.317-80.338c-5.245 5.903-11.982 10.624-18.507 15.203l-2.606 1.825c-2.257 1.565-4.073 2.935-5.816 4.25-5.89 4.51-9.881 8.448-12.936 12.777-3.69 5.25-6.038 11.264-6.85 17.552a77.249 77.249 0 0 0-.407 9.981v5.198a45.793 45.793 0 0 1-.563 6.13 27.61 27.61 0 0 1-1.686 6.193c12.252-.454 24.014-4.736 33.504-12.197 9.963-7.914 16.429-19.168 18.091-31.487.644-5.245.367-10.49 0-16.315a156.24 156.24 0 0 0-2.24-19.11h.016z"/><path fill="#333" d="M67.22 139.37l-.814-.869c6.916-6.035 10.378-14.874 13.726-23.423a220.52 220.52 0 0 1 2.403-5.981c4.024-9.512 10.15-21.427 21.855-29.185l.7.963c-11.445 7.585-17.456 19.305-21.423 28.66-.815 1.934-1.58 3.915-2.395 5.958-3.389 8.674-6.9 17.646-14.051 23.877z"/><path fill="#333" d="M88.5 97.894V84.86h1.222v11.376l14.825-5.066.407 1.112L88.5 97.894zM79.563 117.56L75.93 97.777l1.205-.204 3.38 18.437 19.64-6.435.391 1.111-20.983 6.874zM71.506 133.883l-2.916-18.726 1.205-.173 2.689 17.216 18.189-7.5.489 1.072-19.656 8.111zM13.289 73.148h-1.222a12.4 12.4 0 0 0-1.778-5.557 12.983 12.983 0 0 0-4.16-4.221l-.758-.493.758-.447a12.996 12.996 0 0 0 4.15-4.227 12.413 12.413 0 0 0 1.772-5.559h1.221c.14 1.96.748 3.864 1.778 5.561a12.998 12.998 0 0 0 4.16 4.225l.766.486-.765.493a12.981 12.981 0 0 0-4.143 4.206 12.4 12.4 0 0 0-1.78 5.533zM7.546 62.877c2.434 1.738 4.231 4.175 5.132 6.96.907-2.783 2.706-5.22 5.14-6.96-2.446-1.737-4.257-4.173-5.173-6.96-.892 2.78-2.677 5.216-5.099 6.96zM102.785 22.598a10.402 10.402 0 0 0-1.487-4.647 10.883 10.883 0 0 0-3.474-3.534l-.758-.493.758-.485a10.894 10.894 0 0 0 3.468-3.524c.86-1.415 1.371-3 1.493-4.634h1.222a10.37 10.37 0 0 0 1.481 4.647 10.87 10.87 0 0 0 3.471 3.534l.766.486-.766.493a10.825 10.825 0 0 0-3.477 3.53 10.325 10.325 0 0 0-1.475 4.65l-1.222-.023zm-3.568-8.705a11.777 11.777 0 0 1 4.179 5.59 11.77 11.77 0 0 1 4.178-5.59 11.72 11.72 0 0 1-4.178-5.582 11.716 11.716 0 0 1-4.18 5.582zM8.118 53.2c-.515 0-1.02-.147-1.448-.422a2.53 2.53 0 0 1-.96-1.124 2.415 2.415 0 0 1-.148-1.448c.1-.486.349-.932.713-1.282a2.64 2.64 0 0 1 1.335-.686 2.705 2.705 0 0 1 1.506.143c.476.19.883.51 1.17.922.286.412.439.897.439 1.392 0 .665-.275 1.302-.763 1.772a2.661 2.661 0 0 1-1.844.733zm0-3.836c-.274 0-.541.078-.769.225a1.344 1.344 0 0 0-.51.597c-.105.243-.132.51-.079.769.054.258.186.495.38.681.193.186.44.313.708.364.269.052.547.026.8-.075.253-.101.47-.272.622-.49a1.294 1.294 0 0 0-.172-1.68c-.26-.25-.612-.39-.98-.39zM4.501 58.892c-.365 0-.723-.105-1.027-.3a1.795 1.795 0 0 1-.68-.797 1.713 1.713 0 0 1-.106-1.027c.071-.345.247-.662.506-.91.259-.249.588-.418.947-.486a1.92 1.92 0 0 1 1.068.1c.338.135.627.363.83.655.203.292.311.636.311.987 0 .472-.194.924-.541 1.257-.347.333-.817.52-1.308.52zm0-2.349a.646.646 0 0 0-.348.102.609.609 0 0 0-.231.27.581.581 0 0 0 .136.657.65.65 0 0 0 .684.13.623.623 0 0 0 .28-.221.586.586 0 0 0 .107-.335.582.582 0 0 0-.172-.447.627.627 0 0 0-.456-.187v.031zM2.056 53.67c-.367 0-.727-.104-1.032-.3a1.802 1.802 0 0 1-.684-.803 1.72 1.72 0 0 1-.104-1.033c.072-.346.25-.664.51-.913.26-.25.592-.42.953-.487.36-.068.735-.032 1.074.105.339.136.629.366.832.66a1.735 1.735 0 0 1-.236 2.254 1.854 1.854 0 0 1-.602.384 1.914 1.914 0 0 1-.71.133zm0-2.387a.654.654 0 0 0-.353.103.617.617 0 0 0-.234.274.589.589 0 0 0 .138.665.66.66 0 0 0 .692.132.63.63 0 0 0 .286-.224.594.594 0 0 0-.08-.771.649.649 0 0 0-.449-.18zM108.985 31.515a3.535 3.535 0 0 1-1.912-.553 3.33 3.33 0 0 1-1.27-1.48 3.186 3.186 0 0 1-.199-1.91 3.27 3.27 0 0 1 .939-1.694 3.481 3.481 0 0 1 1.76-.906 3.565 3.565 0 0 1 1.987.186c.629.25 1.166.674 1.544 1.217.378.544.58 1.183.58 1.836a3.24 3.24 0 0 1-1.004 2.334 3.509 3.509 0 0 1-2.425.97zm0-5.425a2.28 2.28 0 0 0-1.234.355 2.151 2.151 0 0 0-.82.956c-.169.39-.213.818-.128 1.232.085.414.297.794.607 1.092.31.298.706.501 1.136.583a2.3 2.3 0 0 0 1.282-.123 2.2 2.2 0 0 0 .994-.788 2.067 2.067 0 0 0-.279-2.683 2.261 2.261 0 0 0-1.558-.624zM110.914 22.45a2.06 2.06 0 0 1-1.113-.325 1.937 1.937 0 0 1-.738-.865 1.848 1.848 0 0 1-.114-1.112c.077-.374.268-.717.548-.986.28-.27.637-.453 1.026-.527a2.08 2.08 0 0 1 1.158.11c.366.145.679.392.899.708a1.856 1.856 0 0 1 .185 1.807c-.1.234-.248.446-.434.625s-.407.32-.65.418a2.077 2.077 0 0 1-.767.146zm0-2.678a.84.84 0 0 0-.453.132.763.763 0 0 0-.123 1.204c.114.11.259.184.417.215.158.03.322.014.471-.045a.803.803 0 0 0 .365-.288.758.758 0 0 0-.101-.989.832.832 0 0 0-.576-.23zM101.017 33.8c-.498 0-.984-.142-1.398-.407a2.442 2.442 0 0 1-.927-1.086 2.331 2.331 0 0 1-.144-1.398c.097-.469.337-.9.69-1.238a2.55 2.55 0 0 1 1.288-.662 2.611 2.611 0 0 1 1.454.137c.46.184.853.494 1.13.892.276.397.424.865.424 1.343 0 .642-.265 1.257-.737 1.71a2.57 2.57 0 0 1-1.78.71zm0-3.663c-.256 0-.507.073-.72.21a1.256 1.256 0 0 0-.477.558 1.2 1.2 0 0 0-.073.72c.05.24.173.462.354.637.181.174.412.292.663.34.252.048.512.024.749-.07.236-.095.439-.254.581-.46a1.212 1.212 0 0 0-.161-1.57 1.322 1.322 0 0 0-.916-.365z"/><g clip-path="url(#clip0)"><path fill="#333" fill-rule="evenodd" d="M41.985 18.192c-9.193 0-16.74 7.546-16.74 16.74v91.72c0 1.464 1.203 2.729 2.73 2.729H56.81a.61.61 0 1 1 0 1.222H27.974c-2.22 0-3.95-1.831-3.95-3.951v-91.72c0-9.868 8.093-17.962 17.96-17.962h28.103c9.868 0 17.962 8.094 17.962 17.962v40.89a.61.61 0 1 1-1.222 0v-40.89c0-9.194-7.547-16.74-16.74-16.74H41.985z" clip-rule="evenodd"/><path fill="#333" fill-rule="evenodd" d="M48.664 1.493c-2.514 0-4.602 2.09-4.602 4.603V16.97h24.192V6.096c0-2.514-2.088-4.603-4.602-4.603H48.664zM42.84 6.096c0-3.189 2.636-5.825 5.824-5.825h14.988c3.189 0 5.824 2.636 5.824 5.825V17.58c0 .338-.273.611-.61.611H43.45a.611.611 0 0 1-.611-.61V6.095zM28.709 53.87a.61.61 0 0 1 .61.611v3.584a.611.611 0 1 1-1.221 0v-3.584a.61.61 0 0 1 .61-.61zM28.709 60.876a.61.61 0 0 1 .61.61v64.433a.611.611 0 0 1-1.221 0V61.486a.61.61 0 0 1 .61-.61zM41.986 22.265c-6.994 0-12.666 5.673-12.666 12.666v15.803a.611.611 0 1 1-1.222 0V34.931c0-7.668 6.22-13.888 13.888-13.888a.61.61 0 1 1 0 1.222z" clip-rule="evenodd"/><path fill="#333" fill-rule="evenodd" d="M46.873 5.81a.61.61 0 0 1 .61.611v8.553a.61.61 0 0 1-1.221 0V6.421a.61.61 0 0 1 .61-.61zM50.701 41.489a7.616 7.616 0 1 0 0 15.232 7.616 7.616 0 0 0 0-15.232zm-8.838 7.616a8.838 8.838 0 1 1 17.676 0 8.838 8.838 0 0 1-17.676 0z" clip-rule="evenodd"/><path fill="#333" fill-rule="evenodd" d="M50.09 44.136c0-.338.273-.611.61-.611a5.548 5.548 0 0 1 5.58 5.58.611.611 0 0 1-1.221 0 4.326 4.326 0 0 0-4.358-4.358.611.611 0 0 1-.611-.611zM42.638 69.428a5.58 5.58 0 1 0 0 11.16 5.58 5.58 0 0 0 0-11.16zm-6.802 5.58a6.802 6.802 0 1 1 13.603 0 6.802 6.802 0 0 1-13.603 0z" clip-rule="evenodd"/><path fill="#333" fill-rule="evenodd" d="M42.027 72.076c0-.338.274-.611.611-.611a3.531 3.531 0 0 1 3.544 3.543.61.61 0 1 1-1.222 0 2.31 2.31 0 0 0-2.322-2.321.611.611 0 0 1-.61-.611zM66.668 60.55c-6.231 0-11.282 5.05-11.282 11.281 0 6.231 5.05 11.282 11.282 11.282 6.23 0 11.281-5.051 11.281-11.282 0-6.23-5.05-11.282-11.281-11.282zM54.164 71.83c0-6.905 5.598-12.503 12.504-12.503 6.905 0 12.503 5.598 12.503 12.503 0 6.906-5.598 12.504-12.503 12.504-6.906 0-12.504-5.598-12.504-12.504z" clip-rule="evenodd"/><path fill="#333" fill-rule="evenodd" d="M66.059 63.197c0-.338.273-.611.61-.611 5.148 0 9.246 4.187 9.246 9.245a.61.61 0 1 1-1.222 0c0-4.39-3.559-8.023-8.023-8.023a.61.61 0 0 1-.611-.611z" clip-rule="evenodd"/><path fill="#FFF4F4" d="M58.519 101.889c8.322 0 15.07-6.747 15.07-15.07s-6.748-15.07-15.07-15.07c-8.323 0-15.07 6.747-15.07 15.07s6.747 15.07 15.07 15.07z"/><path fill="#333" fill-rule="evenodd" d="M58.52 72.36c-7.985 0-14.458 6.474-14.458 14.46 0 7.984 6.473 14.458 14.458 14.458 7.986 0 14.459-6.474 14.459-14.459 0-7.985-6.473-14.459-14.459-14.459zM42.84 86.82c0-8.66 7.02-15.681 15.68-15.681s15.68 7.02 15.68 15.68S67.18 102.5 58.52 102.5s-15.68-7.02-15.68-15.68z" clip-rule="evenodd"/><path fill="#333" fill-rule="evenodd" d="M57.91 75.008a.61.61 0 0 1 .611-.611c6.854 0 12.422 5.568 12.422 12.422a.611.611 0 0 1-1.222 0c0-6.179-5.02-11.2-11.2-11.2a.61.61 0 0 1-.61-.611z" clip-rule="evenodd"/></g><defs><clipPath id="clip0"><path fill="#fff" d="M0 0h64.351v130.738H0z" transform="translate(23.82 .068)"/></clipPath></defs></svg>