<!-- Generated by IcoMoon.io -->
<svg version="1.1" xmlns="http://www.w3.org/2000/svg" width="1024" height="1024" viewBox="0 0 1024 1024">
<title></title>
<g id="icomoon-ignore">
</g>
<path d="M516.413 953.38c-4.414 0-8.828 0-17.655-4.414 0 0 0 0-4.414 0s-8.828-4.414-13.241-8.828l-4.414-4.414c-48.552-61.793-127.998-114.759-397.24-114.759-44.138 0-79.448-35.31-79.448-79.448v-591.45c0-8.828 0-22.069 4.414-30.897s8.828-17.655 17.655-26.483c8.828-8.828 17.655-13.241 26.483-17.655 17.655-4.414 26.483-4.414 39.724-4.414 145.656 0 339.86 17.655 428.136 141.242 92.69-123.587 282.488-141.242 428.143-141.242 13.241 0 22.065 0 30.892 4.414s17.655 8.828 26.483 17.655c8.828 8.828 13.241 17.655 17.655 26.483s4.414 17.655 4.414 30.897v595.864c0 22.069-8.828 39.724-22.069 52.966s-35.31 22.069-52.966 22.069c-264.828 0-348.691 57.379-397.242 114.759l-4.414 4.414c-4.414 4.414-8.828 4.414-13.241 8.828 0 0-4.414 0-8.828 4.414 0 0-4.414 0-8.828 0zM560.551 317.793v489.932c83.862-48.552 198.621-75.035 375.173-75.035v-573.795c-291.311 4.414-353.104 88.276-375.173 158.897zM97.104 732.69c176.552 0 291.311 26.483 375.171 79.448v-494.346c-22.069-70.621-83.86-154.483-375.171-158.897v573.795z"></path>
</svg>
