<!-- Generated by IcoMoon.io -->
<svg version="1.1" xmlns="http://www.w3.org/2000/svg" width="1024" height="1024" viewBox="0 0 1024 1024">
<title></title>
<g id="icomoon-ignore">
</g>
<path d="M258.656 74.976c-50.738 6.531-97.367 31.307-131.174 69.708-33.849 38.447-52.523 87.914-52.525 139.139 0 176.428 70.086 345.627 194.839 470.383 124.753 124.751 293.954 194.838 470.385 194.838zM740.181 949.044c51.22-0.004 100.69-18.677 139.138-52.526 38.399-33.805 63.179-80.435 69.708-131.175 0.080-0.78-0.088-1.565-0.48-2.244-0.406-0.701-1.023-1.248-1.768-1.565l-242.113-103.759c-0.591-0.256-1.235-0.357-1.874-0.295-0.639 0.057-1.252 0.273-1.786 0.631l-129.284 86.207c-11.269 7.579-24.316 12.108-37.856 13.13-13.585 1.027-27.2-1.499-39.51-7.333l-0.265-0.128c-95.406-46.128-172.572-122.944-219.137-218.141l-0.126-0.26c-5.868-12.235-8.462-25.784-7.529-39.32 0.93-13.496 5.336-26.526 12.788-37.812l85.913-131.273c0.349-0.533 0.56-1.143 0.616-1.776s-0.046-1.271-0.297-1.856l-103.853-242.324c-0.315-0.743-0.863-1.363-1.562-1.766-0.68-0.394-1.468-0.561-2.249-0.48zM249.589 0.57c16.934-2.050 34.075 1.461 48.84 9.999 14.746 8.529 26.325 21.612 32.999 37.285l0.026 0.061 103.762 242.104c5.118 11.945 7.205 24.971 6.071 37.919s-5.454 25.413-12.571 36.287l-86.068 131.51c-0.334 0.503-0.531 1.085-0.573 1.689-0.040 0.578 0.066 1.159 0.306 1.685 39.167 79.964 103.997 144.499 184.136 183.304 0.53 0.234 1.111 0.335 1.689 0.291 0.604-0.044 1.186-0.247 1.685-0.582l129.53-86.375c10.909-7.275 23.457-11.711 36.512-12.91s26.208 0.877 38.258 6.041l241.941 103.694c15.678 6.671 28.765 18.249 37.297 33.003 8.54 14.767 12.050 31.905 10 48.839l-0.031 0.247c-8.805 68.897-42.42 132.225-94.554 178.119-52.133 45.898-119.204 71.216-188.666 71.221-196.307 0-384.575-77.984-523.386-216.791-138.81-138.812-216.793-327.081-216.793-523.387 0.003-69.457 25.324-136.534 71.221-188.666s109.221-85.748 178.118-94.553l0.249-0.031z"></path>
</svg>
