<!-- Generated by IcoMoon.io -->
<svg version="1.1" xmlns="http://www.w3.org/2000/svg" width="1024" height="1024" viewBox="0 0 1024 1024">
<title></title>
<g id="icomoon-ignore">
</g>
<path d="M77.649 331.45h868.7v-108.209h-868.7v108.209zM0 370.275v432.91c0 41.546 33.678 75.223 75.223 75.223h873.554c41.546 0 75.223-33.677 75.223-75.223v-582.369c0-41.545-33.677-75.223-75.223-75.223h-873.554c-41.545 0-75.223 33.678-75.223 75.223v149.46zM946.351 409.1v391.659h-868.7v-391.659h868.7zM693.991 655.166h145.592c21.443 0 38.825 17.382 38.825 38.825s-17.382 38.825-38.825 38.825h-145.592c-21.443 0-38.825-17.382-38.825-38.825s17.382-38.825 38.825-38.825zM436.777 693.991c0 21.443 17.382 38.825 38.825 38.825h72.796c21.443 0 38.825-17.382 38.825-38.825s-17.382-38.825-38.825-38.825h-72.796c-21.443 0-38.825 17.382-38.825 38.825z"></path>
</svg>
