<svg width="27" height="27" viewBox="0 0 27 27" fill="none" xmlns="http://www.w3.org/2000/svg">
<path fill-rule="evenodd" clip-rule="evenodd" d="M0.998438 0.149902C0.528995 0.149902 0.148438 0.53046 0.148438 0.999902C0.148438 1.46934 0.528995 1.8499 0.998438 1.8499H3.25477C3.2899 1.8499 3.32391 1.86223 3.35088 1.88474C3.37785 1.90725 3.39607 1.93851 3.40235 1.97307L4.1595 6.13739C4.16119 6.1478 4.16308 6.15815 4.16514 6.16843L5.97765 16.1372C5.97936 16.1478 5.98126 16.1582 5.98336 16.1686L6.8491 20.9302C6.11518 21.5447 5.64844 22.4678 5.64844 23.4999C5.64844 25.3501 7.14828 26.8499 8.99844 26.8499C10.8486 26.8499 12.3484 25.3501 12.3484 23.4999C12.3484 22.9 12.1908 22.337 11.9146 21.8499H19.0823C18.8061 22.337 18.6484 22.9 18.6484 23.4999C18.6484 25.3501 20.1483 26.8499 21.9984 26.8499C23.8486 26.8499 25.3484 25.3501 25.3484 23.4999C25.3484 21.6497 23.8486 20.1499 21.9984 20.1499H8.99844H8.4351L7.8351 16.8499H22.5111C23.1785 16.8499 23.8248 16.6157 24.3372 16.188C24.8497 15.7603 25.1957 15.1664 25.3151 14.5097L26.8347 6.15195C26.8798 5.90398 26.8125 5.64878 26.651 5.45527C26.4895 5.26176 26.2505 5.1499 25.9984 5.1499H5.70783L5.07493 1.66897C4.99743 1.2427 4.77278 0.857165 4.44015 0.579562C4.10753 0.301959 3.68802 0.149902 3.25477 0.149902H0.998438ZM6.01692 6.8499L7.52601 15.1499H22.5111C22.7804 15.1499 23.0412 15.0554 23.248 14.8828C23.4547 14.7103 23.5944 14.4706 23.6426 14.2056L24.98 6.8499H6.01692ZM20.3484 23.4999C20.3484 22.5886 21.0872 21.8499 21.9984 21.8499C22.9097 21.8499 23.6484 22.5886 23.6484 23.4999C23.6484 24.4112 22.9097 25.1499 21.9984 25.1499C21.0872 25.1499 20.3484 24.4112 20.3484 23.4999ZM8.99844 21.8499C8.08717 21.8499 7.34844 22.5886 7.34844 23.4999C7.34844 24.4112 8.08717 25.1499 8.99844 25.1499C9.90971 25.1499 10.6484 24.4112 10.6484 23.4999C10.6484 22.5886 9.90971 21.8499 8.99844 21.8499Z" fill="#333333"/>
</svg>
