<!-- Generated by IcoMoon.io -->
<svg version="1.1" xmlns="http://www.w3.org/2000/svg" width="1024" height="1024" viewBox="0 0 1024 1024">
<title></title>
<g id="icomoon-ignore">
</g>
<path d="M512 0c-282.314 0-512 229.686-512 512s229.686 512 512 512c282.314 0 512-229.686 512-512s-229.686-512-512-512zM778.461 340.406l-330.83 393.844c-3.629 4.327-8.145 7.819-13.241 10.24-5.096 2.426-10.654 3.728-16.297 3.817h-0.665c-5.52 0-10.978-1.166-16.021-3.413s-9.555-5.529-13.247-9.631l-141.785-157.538c-3.601-3.823-6.402-8.323-8.239-13.239s-2.672-10.151-2.456-15.397c0.215-5.246 1.477-10.392 3.71-15.145 2.234-4.747 5.394-9.006 9.295-12.514 3.902-3.513 8.466-6.207 13.425-7.929 4.959-1.723 10.211-2.437 15.449-2.099s10.356 1.717 15.053 4.058c4.696 2.348 8.878 5.603 12.298 9.584l111.483 123.868 301.761-359.163c6.769-7.826 16.342-12.674 26.661-13.495 10.314-0.822 20.537 2.448 28.456 9.104 7.924 6.655 12.908 16.16 13.879 26.462s-2.148 20.571-8.691 28.589z"></path>
</svg>
