<!-- Generated by IcoMoon.io -->
<svg version="1.1" xmlns="http://www.w3.org/2000/svg" width="1024" height="1024" viewBox="0 0 1024 1024">
<title></title>
<g id="icomoon-ignore">
</g>
<path d="M1023.982 259.593c0.335-15.135-4.054-29.997-12.559-42.52s-20.706-22.087-34.896-27.359-29.669-5.992-44.287-2.060c-14.618 3.933-27.643 12.321-37.273 24.002l-381.791 445.661-381.656-445.661c-5.939-8.080-13.477-14.846-22.152-19.876-8.676-5.030-18.297-8.214-28.26-9.354s-20.050-0.211-29.636 2.73-18.465 7.829-26.075 14.358c-7.61 6.529-13.782 14.56-18.145 23.589s-6.812 18.86-7.199 28.88c-0.387 10.020 1.294 20.012 4.948 29.349 3.654 9.339 9.196 17.822 16.28 24.918l436.562 510.241c6.838 8.013 15.325 14.447 24.891 18.859s19.977 6.697 30.51 6.697c10.534 0 20.945-2.284 30.51-6.697s18.061-10.846 24.899-18.859l436.981-510.241c11.449-12.89 17.958-29.422 18.363-46.657h-0.016z"></path>
</svg>
