<!-- Generated by IcoMoon.io -->
<svg version="1.1" xmlns="http://www.w3.org/2000/svg" width="1024" height="1024" viewBox="0 0 1024 1024">
<title></title>
<g id="icomoon-ignore">
</g>
<path d="M702.531 14.358c22.883-9.48 47.41-14.359 72.185-14.359 24.769 0 49.297 4.879 72.179 14.359 22.888 9.48 43.681 23.373 61.195 40.889s31.409 38.31 40.889 61.194c9.48 22.885 14.363 47.413 14.363 72.184s-4.883 49.299-14.363 72.184c-9.464 22.856-23.335 43.626-40.819 61.127l-0.070 0.067-501.752 508.745c-20.213 20.215-47.631 31.571-76.217 31.571s-56.003-11.361-76.216-31.571c-20.214-20.215-31.57-47.631-31.57-76.216 0-28.547 11.325-55.931 31.485-76.135l420.842-427.83c10.434-10.61 27.496-10.75 38.108-0.314 10.606 10.437 10.752 27.497 0.313 38.107l-421.069 428.063c-10.107 10.105-15.786 23.81-15.786 38.108 0 14.293 5.678 27.997 15.785 38.108 10.107 10.105 23.815 15.786 38.109 15.786 14.265 0 27.947-5.659 38.048-15.726l0.060-0.059 501.753-508.745c12.514-12.512 22.435-27.364 29.205-43.711 6.775-16.347 10.262-33.867 10.262-51.561s-3.487-35.214-10.262-51.561c-6.769-16.347-16.691-31.199-29.205-43.711-12.509-12.511-27.361-22.435-43.708-29.206-16.352-6.771-33.866-10.256-51.56-10.256-17.699 0-35.214 3.485-51.565 10.256-16.319 6.76-31.15 16.663-43.648 29.144l-0.059 0.062-501.754 508.742c-40.428 40.431-63.14 95.262-63.14 152.437 0 57.171 22.712 112.001 63.139 152.432 40.428 40.425 95.26 63.141 152.433 63.141s112.005-22.716 152.433-63.141l414.584-414.046c10.531-10.517 27.593-10.506 38.108 0.025 10.52 10.53 10.509 27.591-0.022 38.109l-414.563 414.021c-50.533 50.525-119.081 78.927-190.541 78.927-71.467 0-140.006-28.391-190.541-78.927s-78.925-119.077-78.925-190.54c0-71.435 28.365-139.95 78.857-190.475l0.068-0.070 501.755-508.742c17.516-17.516 38.307-31.41 61.195-40.889z"></path>
</svg>
