<!-- Generated by IcoMoon.io -->
<svg version="1.1" xmlns="http://www.w3.org/2000/svg" width="1024" height="1024" viewBox="0 0 1024 1024">
<title></title>
<g id="icomoon-ignore">
</g>
<path d="M940.013 1009.459c19.208 19.218 50.363 19.218 69.581 0 19.208-19.208 19.208-50.363 0-69.578l-428.011-428.009 427.755-427.753c19.208-19.214 19.208-50.367 0-69.581-19.218-19.214-50.372-19.214-69.581 0l-427.757 427.753-427.752-427.753c-19.215-19.214-50.368-19.214-69.582 0s-19.214 50.367 0 69.581l427.753 427.753-428.009 428.009c-19.214 19.215-19.214 50.369 0 69.578 19.214 19.218 50.367 19.218 69.581 0l428.009-428.006 428.012 428.006z"></path>
</svg>
