<!-- Generated by IcoMoon.io -->
<svg version="1.1" xmlns="http://www.w3.org/2000/svg" width="1024" height="1024" viewBox="0 0 1024 1024">
<title></title>
<g id="icomoon-ignore">
</g>
<path d="M49.955 501.009c-0.797-248.42 205.356-451.058 461.625-451.058 223.38 0 409.294 154.71 452.641 359.169l0.010 0.060c6.509 30.327 9.8 61.255 9.816 92.272-0.005 249.67-198.625 454.844-454.060 454.844-39.916 0-95.373-10.245-125.491-18.677-30.455-8.522-61.163-19.93-68.934-22.933-11.148-4.281-22.985-6.488-34.926-6.509h-0.060l-0.028 24.976 0.088-24.976c-12.849-0.045-25.575 2.468-37.439 7.383l-156.809 56.584 45.12-163.21c3.268-11.928 0.871-23.546-1.611-31.459-2.653-8.456-6.576-16.314-10.017-22.333l-0.206-0.344c-2.141-3.611-4.463-7.108-6.958-10.485-47.468-72.234-72.764-156.781-72.761-243.226v-0.080zM511.58 0.001c-282.719 0-512.443 223.907-511.576 501.129 0.004 96.435 28.304 190.753 81.392 271.268l0.412 0.625 0.449 0.599c1.565 2.088 3.020 4.256 4.358 6.499 2.392 4.206 4.442 8.552 5.619 12.303 0.583 1.863 0.818 3.157 0.888 3.916l0.010 0.12-45.677 165.228c-1.199 4.131-1.965 8.371-2.285 12.662l-0.057 0.764-0.010 0.764c-0.085 6.273 1.076 12.508 3.414 18.332s5.809 11.124 10.21 15.599c4.402 4.476 9.647 8.032 15.432 10.469 5.786 2.433 11.996 3.696 18.273 3.716l1.34 0.005 1.333-0.14c5.994-0.629 11.862-2.123 17.424-4.43l159.473-57.589c5.838-2.473 12.117-3.732 18.457-3.711h0.061c5.857 0.005 11.665 1.089 17.134 3.187 8.544 3.296 40.81 15.295 73.379 24.406 32.961 9.226 93.125 20.525 138.954 20.525 283.562 0 504.010-228.095 504.010-504.825-0.020-34.52-3.677-68.941-10.919-102.693-48.313-227.805-254.82-398.73-501.498-398.73zM362.147 511.999c0 27.588-22.363 49.951-49.951 49.951s-49.951-22.363-49.951-49.951c0-27.587 22.364-49.951 49.951-49.951s49.951 22.364 49.951 49.951zM512 561.949c27.588 0 49.951-22.363 49.951-49.951s-22.363-49.951-49.951-49.951c-27.587 0-49.951 22.364-49.951 49.951s22.364 49.951 49.951 49.951zM761.754 511.999c0 27.588-22.363 49.951-49.951 49.951s-49.951-22.363-49.951-49.951c0-27.587 22.363-49.951 49.951-49.951s49.951 22.364 49.951 49.951z"></path>
</svg>
