<!-- Generated by IcoMoon.io -->
<svg version="1.1" xmlns="http://www.w3.org/2000/svg" width="1024" height="1024" viewBox="0 0 1024 1024">
<title></title>
<g id="icomoon-ignore">
</g>
<path fill="#ef5da8" d="M1001.365 131.931c30.179-30.181 30.179-79.114 0-109.295s-79.114-30.181-109.294 0l-380.070 380.070-380.070-380.070c-30.181-30.181-79.114-30.181-109.295 0s-30.181 79.113 0 109.295l380.070 380.070-380.070 380.070c-30.181 30.179-30.181 79.114 0 109.294s79.113 30.179 109.295 0l380.070-380.070 380.070 380.070c30.179 30.179 79.114 30.179 109.294 0s30.179-79.114 0-109.294l-380.070-380.070 380.070-380.070z"></path>
</svg>
