<!-- Generated by IcoMoon.io -->
<svg version="1.1" xmlns="http://www.w3.org/2000/svg" width="1024" height="1024" viewBox="0 0 1024 1024">
<title></title>
<g id="icomoon-ignore">
</g>
<path d="M85.333 85.333h256v256h-256v-256zM42.667 0c-23.564 0-42.667 19.103-42.667 42.667v341.333c0 23.564 19.103 42.667 42.667 42.667h341.333c23.564 0 42.667-19.103 42.667-42.667v-341.333c0-23.564-19.103-42.667-42.667-42.667h-341.333z"></path>
<path d="M85.333 682.667h256v256h-256v-256zM42.667 597.333c-23.564 0-42.667 19.102-42.667 42.667v341.333c0 23.565 19.103 42.667 42.667 42.667h341.333c23.564 0 42.667-19.102 42.667-42.667v-341.333c0-23.565-19.103-42.667-42.667-42.667h-341.333z"></path>
<path d="M682.667 85.333h256v256h-256v-256zM640 0c-23.565 0-42.667 19.103-42.667 42.667v341.333c0 23.564 19.102 42.667 42.667 42.667h341.333c23.565 0 42.667-19.103 42.667-42.667v-341.333c0-23.564-19.102-42.667-42.667-42.667h-341.333z"></path>
<path d="M682.667 682.667h256v256h-256v-256zM640 597.333c-23.565 0-42.667 19.102-42.667 42.667v341.333c0 23.565 19.102 42.667 42.667 42.667h341.333c23.565 0 42.667-19.102 42.667-42.667v-341.333c0-23.565-19.102-42.667-42.667-42.667h-341.333z"></path>
</svg>
