<svg width="18" height="18" viewBox="0 0 18 18" fill="none" xmlns="http://www.w3.org/2000/svg">
<path d="M17.1642 9.2048C17.1642 8.59074 17.1153 7.97896 17.0132 7.37402H8.75586V10.8393H13.4841C13.2887 11.9578 12.658 12.9462 11.7363 13.574V15.8248H14.5591C16.2114 14.2611 17.1642 11.9441 17.1642 9.2048Z" fill="#4285F4"/>
<path d="M8.75363 18.0001C11.1167 18.0001 13.1066 17.2034 14.5568 15.8269L11.7341 13.5761C10.9479 14.124 9.93737 14.4367 8.75363 14.4367C6.47055 14.4367 4.53171 12.8548 3.83879 10.7227H0.931641V13.0419C2.41742 16.0826 5.4445 18.0001 8.75363 18.0001Z" fill="#34A853"/>
<path d="M3.83993 10.723C3.47348 9.60669 3.47348 8.39454 3.83993 7.27827V4.95898H0.932776C-0.310925 7.50198 -0.310925 10.4992 0.932776 13.0422L3.83993 10.723Z" fill="#FBBC04"/>
<path d="M8.75363 3.56394C10.0018 3.54339 11.2077 4.02734 12.1116 4.91305L14.6124 2.34494C13.0266 0.815493 10.9279 -0.0245632 8.75363 0.000547137C5.4445 0.000547137 2.41742 1.92035 0.931641 4.95871L3.83879 7.27799C4.53171 5.14589 6.47055 3.56394 8.75363 3.56394Z" fill="#EA4335"/>
</svg>
