<!-- Generated by IcoMoon.io -->
<svg version="1.1" xmlns="http://www.w3.org/2000/svg" width="1024" height="1024" viewBox="0 0 1024 1024">
<title></title>
<g id="icomoon-ignore">
</g>
<path d="M511.999 249.143c45.714 0 89.143 13.714 130.286 36.571s73.143 54.857 96.004 96c22.85 41.143 36.571 84.571 36.571 130.286 0 48-13.722 91.429-36.571 132.571-22.861 41.143-54.861 73.143-96.004 96s-84.571 34.289-130.286 34.289c-48 0-91.429-11.432-132.571-34.289s-73.143-54.857-96-96c-22.857-41.143-34.286-84.571-34.286-132.571 0-45.714 11.429-89.143 34.286-130.286s54.857-73.143 96-96c41.143-22.857 84.571-36.571 132.571-36.571zM511.999 683.429c45.714 0 86.857-16 121.143-50.286 32-32 50.286-73.143 50.286-121.143 0-45.714-18.286-86.857-50.286-121.143-34.286-32-75.429-50.286-121.143-50.286-48 0-89.143 18.286-121.143 50.286-34.286 34.286-50.286 75.429-50.286 121.143 0 48 16 89.143 50.286 121.143 32 34.286 73.143 50.286 121.143 50.286zM848.003 237.714c0-16-6.861-29.714-18.286-43.429-13.722-11.429-27.429-18.286-43.432-18.286-18.286 0-32 6.857-43.432 18.286-13.711 13.714-18.282 27.429-18.282 43.429 0 18.286 4.571 32 18.282 43.429 11.432 13.714 25.147 18.286 43.432 18.286 16.004 0 29.711-4.571 41.143-18.286 11.432-11.429 18.286-25.143 20.575-43.429zM1021.717 299.429c0 43.429 2.282 114.286 2.282 212.571 0 100.571-2.282 171.429-4.571 214.857-2.289 43.425-9.143 79.996-18.286 112.004-13.714 38.853-36.571 73.143-64 100.571s-61.711 47.996-98.282 61.711c-32.007 11.432-70.861 18.286-114.289 20.575-43.429 2.282-114.286 2.282-212.571 2.282-100.571 0-171.429 0-214.857-2.282-43.429-2.289-80-9.143-112-22.864-38.857-11.425-73.143-31.993-100.571-59.421s-48-61.718-61.714-100.571c-11.429-32.007-18.286-68.579-20.571-112.004-2.286-43.429-2.286-114.286-2.286-214.857 0-98.286 0-169.143 2.286-212.571s9.143-82.286 20.571-114.286c13.714-36.571 34.286-70.857 61.714-98.286s61.714-50.286 100.571-64c32-9.143 68.571-16 112-18.286s114.286-4.571 214.857-4.571c98.286 0 169.143 2.286 212.571 4.571s82.282 9.143 114.289 18.286c36.571 13.714 70.853 36.571 98.282 64s50.286 61.714 64 98.286c9.143 32 15.996 70.857 20.575 114.286zM912.003 813.714c9.143-25.147 13.707-66.282 18.286-123.429 0-32 2.282-80 2.282-141.714v-73.143c0-61.714-2.282-109.714-2.282-141.714-4.579-57.143-9.143-98.286-18.286-123.429-18.286-45.714-52.575-80-98.289-98.286-25.147-9.143-66.282-13.714-123.429-18.286-34.286 0-82.286-2.286-141.714-2.286h-73.143c-61.714 0-109.714 2.286-141.714 2.286-57.143 4.571-98.286 9.143-123.429 18.286-48 18.286-80 52.571-98.286 98.286-9.143 25.143-16 66.286-18.286 123.429-2.286 34.286-2.286 82.286-2.286 141.714v73.143c0 61.714 0 109.714 2.286 141.714 2.286 57.147 9.143 98.282 18.286 123.429 18.286 47.996 52.571 80.004 98.286 98.289 25.143 9.143 66.286 15.996 123.429 18.286 32 2.282 80 2.282 141.714 2.282h73.143c61.714 0 109.714 0 141.714-2.282 57.147-2.289 98.282-9.143 123.429-18.286 45.714-18.286 80.004-52.575 98.289-98.289z"></path>
</svg>
