<!-- Generated by IcoMoon.io -->
<svg version="1.1" xmlns="http://www.w3.org/2000/svg" width="1024" height="1024" viewBox="0 0 1024 1024">
<title></title>
<g id="icomoon-ignore">
</g>
<path d="M512.115 249.46c-145.292 0-262.483 117.218-262.483 262.54 0 145.325 117.191 262.539 262.483 262.539 145.286 0 262.479-117.215 262.479-262.539 0-145.322-117.192-262.54-262.479-262.54zM512.115 682.686c-93.892 0-170.649-76.548-170.649-170.687s76.528-170.686 170.649-170.686c94.115 0 170.645 76.546 170.645 170.686 0 94.138-76.758 170.687-170.645 170.687zM846.553 238.72c0 34.045-27.41 61.237-61.221 61.237-34.039 0-61.221-27.419-61.221-61.237s27.41-61.237 61.221-61.237c33.811 0 61.221 27.419 61.221 61.237zM1020.401 300.871c-3.882-82.030-22.616-154.69-82.697-214.556-59.853-59.865-132.496-78.602-214.509-82.715-84.522-4.799-337.867-4.799-422.391 0-81.783 3.884-154.428 22.621-214.508 82.486s-78.585 132.527-82.696 214.556c-4.798 84.544-4.798 337.942 0 422.487 3.884 82.028 22.616 154.689 82.696 214.555s132.497 78.601 214.508 82.716c84.524 4.799 337.869 4.799 422.391 0 82.012-3.887 154.656-22.621 214.509-82.716 59.853-59.866 78.588-132.529 82.697-214.555 4.799-84.545 4.799-337.716 0-422.259zM911.205 813.841c-17.817 44.786-52.312 79.285-97.317 97.336-67.393 26.736-227.3 20.568-301.772 20.568-74.475 0-234.613 5.939-301.775-20.568-44.776-17.821-79.271-52.322-97.317-97.336-26.728-67.406-20.56-227.35-20.56-301.842s-5.939-234.665 20.56-301.841c17.818-44.785 52.313-79.288 97.317-97.339 67.391-26.735 227.302-20.564 301.775-20.564s234.612-5.941 301.772 20.564c44.777 17.822 79.272 52.325 97.317 97.339 26.726 67.405 20.559 227.35 20.559 301.841s6.167 234.664-20.559 301.842z"></path>
</svg>
