<svg width="36" height="41" viewBox="0 0 36 41" fill="none" xmlns="http://www.w3.org/2000/svg">
<path d="M33 14H26.25V8.75C26.25 6.56196 25.3808 4.46354 23.8336 2.91637C22.2865 1.36919 20.188 0.5 18 0.5C15.812 0.5 13.7135 1.36919 12.1664 2.91637C10.6192 4.46354 9.75 6.56196 9.75 8.75V14H3C2.20463 14.0009 1.4421 14.3173 0.879684 14.8797C0.317272 15.4421 0.000909634 16.2046 0 17V38C0.000909634 38.7954 0.317272 39.5579 0.879684 40.1203C1.4421 40.6827 2.20463 40.9991 3 41H33C33.7954 40.9991 34.5579 40.6827 35.1203 40.1203C35.6827 39.5579 35.9991 38.7954 36 38V17C35.9991 16.2046 35.6827 15.4421 35.1203 14.8797C34.5579 14.3173 33.7954 14.0009 33 14ZM19.5 30.2805V33.5C19.5 33.8978 19.342 34.2794 19.0607 34.5607C18.7794 34.842 18.3978 35 18 35C17.6022 35 17.2206 34.842 16.9393 34.5607C16.658 34.2794 16.5 33.8978 16.5 33.5V30.2805C15.2915 29.9202 14.2531 29.1369 13.5746 28.0739C12.8961 27.011 12.6229 25.7393 12.805 24.4914C12.9871 23.2436 13.6122 22.1029 14.5661 21.2781C15.52 20.4533 16.7389 19.9994 18 19.9994C19.2611 19.9994 20.48 20.4533 21.4339 21.2781C22.3878 22.1029 23.0129 23.2436 23.195 24.4914C23.3771 25.7393 23.1039 27.011 22.4254 28.0739C21.7469 29.1369 20.7085 29.9202 19.5 30.2805ZM23.25 14H12.75V8.75C12.75 7.35761 13.3031 6.02226 14.2877 5.03769C15.2723 4.05312 16.6076 3.5 18 3.5C19.3924 3.5 20.7277 4.05312 21.7123 5.03769C22.6969 6.02226 23.25 7.35761 23.25 8.75V14Z" fill="#333333"/>
</svg>
