<!-- Generated by IcoMoon.io -->
<svg version="1.1" xmlns="http://www.w3.org/2000/svg" width="1024" height="1024" viewBox="0 0 1024 1024">
<title></title>
<g id="icomoon-ignore">
</g>
<path fill="#000" d="M891.259 341.333h-170.666v-132.741c0-55.323-21.977-108.379-61.096-147.497-39.117-39.119-92.175-61.095-147.497-61.095s-108.38 21.977-147.497 61.095c-39.119 39.119-61.096 92.175-61.096 147.497v132.741h-170.666c-20.11 0.022-39.39 8.023-53.61 22.242s-22.219 33.499-22.242 53.61v530.963c0.023 20.111 8.022 39.39 22.242 53.61s33.5 22.22 53.61 22.242h758.518c20.111-0.022 39.39-8.023 53.61-22.242s22.22-33.499 22.242-53.61v-530.963c-0.022-20.111-8.023-39.39-22.242-53.61s-33.499-22.22-53.61-22.242zM549.926 752.968v81.402c0 10.058-3.995 19.706-11.107 26.819s-16.76 11.107-26.819 11.107c-10.058 0-19.706-3.995-26.819-11.107s-11.107-16.76-11.107-26.819v-81.402c-30.556-9.11-56.811-28.915-73.966-55.791-17.155-26.875-24.062-59.028-19.458-90.58 4.604-31.55 20.409-60.39 44.528-81.245s54.937-32.33 86.823-32.33c31.886 0 62.705 11.476 86.823 32.33s39.923 49.696 44.528 81.245c4.604 31.552-2.303 63.706-19.458 90.58-17.155 26.877-43.41 46.681-73.966 55.791zM644.741 341.333h-265.482v-132.741c0-35.205 13.985-68.968 38.879-93.862s58.656-38.879 93.862-38.879c35.205 0 68.967 13.986 93.862 38.879s38.879 58.656 38.879 93.862v132.741z"></path>
</svg>
