<!-- Generated by IcoMoon.io -->
<svg version="1.1" xmlns="http://www.w3.org/2000/svg" width="1024" height="1024" viewBox="0 0 1024 1024">
<title></title>
<g id="icomoon-ignore">
</g>
<path d="M492.049 45.71c12.080-8.054 27.821-8.054 39.902 0l476.033 317.355c10.008 6.67 16.016 17.901 16.016 29.927v515.702c0 19.756-7.731 38.717-21.517 52.838-0.931 1.016-1.913 1.968-2.937 2.852-13.93 12.8-32.189 19.947-51.183 19.947h-872.727c-20.060 0-39.298-7.968-53.483-22.151-14.185-14.188-22.153-33.423-22.153-53.485v-515.702c0-12.026 6.010-23.256 16.017-29.927l476.032-317.355zM952.066 876.192v-413.387l-291.252 207.656 291.252 205.73zM587.357 706.644l291.285 205.752h-732.891l291.284-205.752h150.32zM587.044 634.71l337.64-240.725-412.685-275.122-412.683 275.122 337.639 240.725h150.088zM363.383 670.601l-291.448-207.795v413.662l291.448-205.866z"></path>
</svg>
