<!-- Generated by IcoMoon.io -->
<svg version="1.1" xmlns="http://www.w3.org/2000/svg" width="1024" height="1024" viewBox="0 0 1024 1024">
<title></title>
<g id="icomoon-ignore">
</g>
<path fill="#000" d="M511.999 109.34l100.295 245.655c10.516 25.755 30.955 46.195 56.712 56.707l245.652 100.295-245.656 100.295c-25.753 10.516-46.191 30.955-56.707 56.712l-100.295 245.652-100.295-245.656c-10.512-25.753-30.953-46.191-56.707-56.707l-245.655-100.295 245.655-100.295c25.755-10.512 46.195-30.953 56.707-56.707l100.295-245.655zM547.494 23.847c-12.982-31.797-58.007-31.797-70.989 0l-125.141 306.512c-3.895 9.539-11.465 17.108-21.003 21.003l-306.512 125.141c-31.797 12.982-31.797 58.007 0 70.989l306.512 125.143c9.539 3.895 17.108 11.464 21.003 21.002l125.141 306.511c12.982 31.799 58.007 31.799 70.989 0l125.143-306.511c3.895-9.539 11.464-17.107 21.002-21.002l306.511-125.143c31.799-12.982 31.799-58.007 0-70.989l-306.511-125.141c-9.539-3.895-17.107-11.465-21.002-21.003l-125.143-306.512z"></path>
</svg>
