<!-- Generated by IcoMoon.io -->
<svg version="1.1" xmlns="http://www.w3.org/2000/svg" width="1024" height="1024" viewBox="0 0 1024 1024">
<title></title>
<g id="icomoon-ignore">
</g>
<path fill="none" stroke-linejoin="miter" stroke-linecap="butt" stroke-miterlimit="4" stroke-width="56.1548" stroke="#000" d="M506.669 35.58c0.664-1.629 1.447-2.314 2.067-2.709 0.771-0.492 1.902-0.871 3.268-0.871s2.493 0.383 3.268 0.871c0.619 0.391 1.403 1.081 2.067 2.709l125.294 306.885c7.218 17.67 21.234 31.692 38.906 38.906l306.887 125.299c1.629 0.664 2.317 1.444 2.711 2.063 0.492 0.775 0.87 1.907 0.87 3.268s-0.381 2.493-0.87 3.27c-0.39 0.616-1.083 1.398-2.711 2.063l-306.887 125.299c-17.67 7.214-31.688 21.234-38.906 38.906l-125.294 306.887c-0.664 1.629-1.447 2.313-2.067 2.707-0.771 0.492-1.902 0.873-3.268 0.873s-2.493-0.385-3.268-0.873c-0.619-0.39-1.403-1.078-2.067-2.707l-125.294-306.887c-7.218-17.67-21.234-31.692-38.906-38.906l-306.888-125.299c-1.629-0.664-2.314-1.447-2.708-2.063-0.492-0.775-0.871-1.907-0.871-3.27 0-1.357 0.383-2.49 0.871-3.268 0.391-0.619 1.081-1.398 2.709-2.063l306.888-125.299c17.67-7.214 31.688-21.234 38.906-38.906l125.294-306.887z"></path>
</svg>
