<!-- Generated by IcoMoon.io -->
<svg version="1.1" xmlns="http://www.w3.org/2000/svg" width="1024" height="1024" viewBox="0 0 1024 1024">
<title></title>
<g id="icomoon-ignore">
</g>
<path fill="none" stroke-linejoin="round" stroke-linecap="round" stroke-miterlimit="4" stroke-width="56.1548" stroke="#000" d="M306.273 515.419c43.369 88.668 115.245 160.222 204.111 203.19 6.504 3.078 13.697 4.413 20.868 3.87 7.175-0.544 14.084-2.944 20.053-6.972l130.847-87.252c5.79-3.859 12.449-6.21 19.374-6.852s13.9 0.463 20.294 3.208l244.796 104.911c8.317 3.532 15.264 9.669 19.783 17.49s6.384 16.898 5.299 25.869c-7.738 60.55-37.283 116.195-83.093 156.527s-104.756 62.583-165.793 62.587c-188.52 0-369.32-74.888-502.62-208.193-133.302-133.3-208.192-314.1-208.192-502.62 0.003-61.038 22.254-119.978 62.587-165.794s95.98-75.353 156.525-83.090c8.97-1.086 18.047 0.773 25.87 5.298s13.958 11.466 17.49 19.781l105.007 245.010c2.718 6.335 3.821 13.249 3.219 20.119s-2.89 13.482-6.668 19.249l-86.953 132.861c-3.956 5.974-6.297 12.874-6.789 20.030-0.497 7.15 0.878 14.31 3.979 20.771v0z"></path>
</svg>
