<!-- Generated by IcoMoon.io -->
<svg version="1.1" xmlns="http://www.w3.org/2000/svg" width="1024" height="1024" viewBox="0 0 1024 1024">
<title></title>
<g id="icomoon-ignore">
</g>
<path fill="#000" d="M258.655 74.979c-50.739 6.53-97.368 31.307-131.175 69.708-33.848 38.447-52.522 87.914-52.525 139.139 0 176.427 70.086 345.63 194.839 470.381 124.753 124.755 293.954 194.838 470.38 194.838zM740.174 949.045c51.225 0 100.695-18.677 139.142-52.522 38.398-33.809 63.174-80.436 69.704-131.176 0.084-0.78-0.084-1.57-0.476-2.249-0.406-0.701-1.023-1.247-1.768-1.56l-242.113-103.764c-0.591-0.251-1.235-0.358-1.874-0.296-0.64 0.057-1.252 0.274-1.786 0.63l-129.284 86.207c-11.27 7.584-24.317 12.107-37.857 13.13-13.585 1.027-27.2-1.499-39.51-7.332l-0.265-0.128c-95.407-46.128-172.573-122.944-219.137-218.14l33.667-16.468-33.792 16.208c-5.869-12.235-8.462-25.78-7.528-39.316 0.93-13.501 5.336-26.525 12.788-37.817l85.913-131.272c0.348-0.532 0.56-1.143 0.615-1.776s-0.047-1.271-0.298-1.856l-103.853-242.324c-0.315-0.743-0.863-1.362-1.561-1.766-0.681-0.394-1.467-0.561-2.249-0.479zM342.381 499.113c39.167 79.959 103.997 144.495 184.137 183.3 0.529 0.238 1.111 0.34 1.689 0.296 0.605-0.049 1.186-0.251 1.684-0.586l129.526-86.374c10.908-7.271 23.461-11.71 36.517-12.91s26.204 0.877 38.258 6.040l241.972 103.706c15.661 6.67 28.738 18.25 37.266 32.989 8.541 14.766 12.050 31.905 10 48.84l-0.031 0.247c-8.805 68.897-42.42 132.225-94.554 178.119-52.133 45.899-119.209 71.22-188.666 71.22-196.307 0-384.575-77.979-523.385-216.792s-216.794-327.076-216.794-523.385c0.003-69.457 25.324-136.533 71.221-188.666s109.221-85.748 178.118-94.553l0.248-0.032c16.934-2.049 34.075 1.461 48.84 10 14.744 8.526 26.322 21.608 32.996 37.276l0.030 0.069 103.757 242.104c5.119 11.946 7.209 24.972 6.075 37.918s-5.454 25.412-12.569 36.286l-86.070 131.508c-0.334 0.502-0.531 1.085-0.572 1.689-0.040 0.578 0.065 1.159 0.307 1.689z"></path>
</svg>
