<!-- Generated by IcoMoon.io -->
<svg version="1.1" xmlns="http://www.w3.org/2000/svg" width="1024" height="1024" viewBox="0 0 1024 1024">
<title></title>
<g id="icomoon-ignore">
</g>
<path fill="#000" d="M511.998 171.727c-182.097 0-309.81 82.246-391.261 163.704-40.635 40.64-69.941 81.225-89.128 111.703-9.609 15.264-16.725 28.063-21.493 37.165-2.385 4.553-4.186 8.189-5.42 10.752-0.617 1.282-1.093 2.297-1.43 3.025l-0.402 0.876-0.123 0.272-0.042 0.094-0.016 0.037c-3.578 8.053-3.578 17.302 0.001 25.355l0.016 0.036 0.042 0.094 0.123 0.272 0.402 0.876c0.337 0.728 0.812 1.743 1.43 3.025 1.234 2.564 3.035 6.197 5.42 10.751 4.768 9.1 11.884 21.895 21.493 37.158 19.188 30.471 48.494 71.048 89.129 111.679 81.45 81.442 209.164 163.668 391.259 163.668 182.097 0 309.809-82.226 391.263-163.668 40.635-40.632 69.942-81.208 89.128-111.679 9.61-15.264 16.725-28.057 21.492-37.158 2.385-4.554 4.188-8.189 5.423-10.751 0.615-1.282 1.092-2.296 1.429-3.025l0.403-0.876 0.121-0.272 0.059-0.13c3.579-8.053 3.579-17.302 0-25.355l-0.059-0.131-0.121-0.272-0.403-0.876c-0.337-0.728-0.809-1.743-1.429-3.025-1.234-2.564-3.033-6.199-5.419-10.752-4.771-9.103-11.886-21.902-21.495-37.165-19.187-30.478-48.494-71.064-89.128-111.703-81.449-81.459-209.162-163.704-391.263-163.704zM992.869 512.034c28.461 12.649 28.453 12.663 28.446 12.679l-28.446-12.679zM1021.314 499.358c0.007 0.015 0.015 0.029-28.446 12.676l28.446-12.676zM31.129 512.034c-28.459-12.647-28.453-12.661-28.446-12.676l28.446 12.676zM2.685 524.713c-0.007-0.015-0.013-0.029 28.445-12.679l-28.445 12.679zM84.316 543.736c-8.216-13.048-14.318-23.954-18.412-31.703 4.094-7.751 10.196-18.662 18.413-31.713 17.306-27.491 43.816-64.196 80.464-100.848 73.115-73.123 185.838-145.46 347.217-145.46 161.382 0 274.105 72.337 347.22 145.46 36.648 36.651 63.156 73.357 80.464 100.848 8.218 13.053 14.318 23.963 18.414 31.713-4.096 7.749-10.196 18.656-18.414 31.703-17.304 27.486-43.815 64.182-80.461 100.824-73.118 73.107-185.838 145.43-347.224 145.43-161.382 0-274.104-72.323-347.219-145.43-36.647-36.641-63.157-73.338-80.464-100.824zM371.415 512.036c0-77.65 62.947-140.598 140.598-140.598s140.598 62.947 140.598 140.598c0 77.651-62.947 140.599-140.598 140.599s-140.598-62.947-140.598-140.599zM512.013 309.155c-112.049 0-202.881 90.833-202.881 202.881 0 112.050 90.832 202.882 202.881 202.882s202.881-90.832 202.881-202.882c0-112.049-90.832-202.881-202.881-202.881z"></path>
</svg>
