<!-- Generated by IcoMoon.io -->
<svg version="1.1" xmlns="http://www.w3.org/2000/svg" width="1024" height="1024" viewBox="0 0 1024 1024">
<title></title>
<g id="icomoon-ignore">
</g>
<path fill="#000" d="M79.148 79.162c0.753-0.753 1.773-1.175 2.838-1.175h300.999c21.531 0 38.986-17.455 38.986-38.986s-17.455-38.986-38.986-38.986h-300.999c-21.745 0-42.598 8.638-57.973 24.013s-24.013 36.229-24.013 57.973v859.998c0 21.746 8.638 42.596 24.013 57.975 15.376 15.375 36.229 24.011 57.973 24.011h300.999c21.531 0 38.986-17.457 38.986-38.986s-17.455-38.986-38.986-38.986h-300.999c-1.064 0-2.085-0.422-2.838-1.174s-1.175-1.775-1.175-2.839v-859.998c0-1.064 0.422-2.085 1.175-2.838zM731.758 258.679c15.227-15.223 39.913-15.22 55.137 0.007l225.691 225.748c15.218 15.227 15.218 39.904 0 55.131l-225.691 225.746c-15.223 15.227-39.908 15.233-55.137 0.009s-15.227-39.908-0.004-55.137l159.157-159.199h-507.927c-21.531 0-38.986-17.457-38.986-38.986s17.455-38.986 38.986-38.986h507.927l-159.157-159.199c-15.223-15.227-15.223-39.912 0.004-55.136z"></path>
</svg>
