<!-- Generated by IcoMoon.io -->
<svg version="1.1" xmlns="http://www.w3.org/2000/svg" width="1024" height="1024" viewBox="0 0 1024 1024">
<title></title>
<g id="icomoon-ignore">
</g>
<path fill="none" stroke-linejoin="round" stroke-linecap="round" stroke-miterlimit="4" stroke-width="56.1548" stroke="#000" d="M512 938.558c0 0-484.726-271.446-484.726-601.056 0.011-58.256 20.196-114.717 57.13-159.772s88.324-75.932 145.448-87.374c57.124-11.443 116.444-2.75 167.882 24.601 51.434 27.352 91.814 71.675 114.267 125.434v0c22.452-53.758 62.829-98.081 114.267-125.434s110.765-36.044 167.883-24.601c57.125 11.441 108.518 42.317 145.445 87.374 36.932 45.055 57.12 101.51 57.132 159.772 0 329.611-484.728 601.056-484.728 601.056z"></path>
</svg>
