<!-- Generated by IcoMoon.io -->
<svg version="1.1" xmlns="http://www.w3.org/2000/svg" width="1024" height="1024" viewBox="0 0 1024 1024">
<title></title>
<g id="icomoon-ignore">
</g>
<path fill="#000" d="M514.040 967.546c-4.080 0-12.239 0-16.319-4.080-20.399-12.239-497.721-281.498-497.721-624.191 0-65.275 24.478-130.55 65.275-179.506s97.912-85.674 163.187-97.912c65.275-12.239 130.55-4.080 187.665 28.558 36.718 20.399 73.434 48.956 97.912 85.674 24.478-36.718 57.115-65.275 93.833-85.674 57.115-32.637 126.47-40.797 187.665-28.558 65.275 12.239 122.39 48.956 163.187 97.912s65.275 114.231 65.275 179.506c0 342.693-477.322 611.953-497.721 624.191 0 4.080-8.159 4.080-12.239 4.080zM281.498 127.13c-12.239 0-28.558 0-40.797 4.080-48.956 8.159-89.753 36.718-122.39 73.434-32.637 40.797-48.956 85.674-48.956 134.63 0 269.259 359.012 501.801 444.685 550.757 81.593-48.956 444.685-285.577 444.685-550.757 0-48.956-16.319-97.912-48.956-134.63s-73.434-65.275-122.39-73.434c-48.956-8.159-97.912-4.080-142.789 20.399s-77.514 61.196-97.912 106.072c-4.080 12.239-16.319 20.399-32.637 20.399s-28.558-8.159-32.637-20.399c-20.399-44.877-53.036-81.593-97.912-106.072-32.637-16.319-65.275-24.478-101.992-24.478z"></path>
</svg>
