<!-- Generated by IcoMoon.io -->
<svg version="1.1" xmlns="http://www.w3.org/2000/svg" width="1024" height="1024" viewBox="0 0 1024 1024">
<title></title>
<g id="icomoon-ignore">
</g>
<path fill="none" stroke="#333" stroke-linejoin="round" stroke-linecap="round" stroke-miterlimit="4" stroke-width="56.1548" d="M473.138 32.706l-367.025 73.406-73.406 367.022c-1.174 5.879-0.88 11.958 0.856 17.69s4.864 10.952 9.099 15.191l475.32 475.321c3.38 3.38 7.394 6.061 11.808 7.891 4.418 1.831 9.151 2.774 13.934 2.774s9.512-0.943 13.934-2.774c4.414-1.831 8.428-4.513 11.808-7.891l411.87-411.87c3.384-3.384 6.061-7.394 7.891-11.812 1.831-4.414 2.774-9.151 2.774-13.93 0-4.784-0.943-9.516-2.774-13.934s-4.509-8.431-7.891-11.812l-475.321-475.317c-4.235-4.236-9.453-7.363-15.191-9.1s-11.812-2.030-17.687-0.856v0z"></path>
<path fill="#000" d="M297.148 351.809c30.158 0 54.608-24.451 54.608-54.605 0-30.158-24.451-54.608-54.608-54.608s-54.608 24.451-54.608 54.608c0 30.155 24.451 54.605 54.608 54.605z"></path>
</svg>
