<!-- Generated by IcoMoon.io -->
<svg version="1.1" xmlns="http://www.w3.org/2000/svg" width="1024" height="1024" viewBox="0 0 1024 1024">
<title></title>
<g id="icomoon-ignore">
</g>
<path fill="#000" d="M500.414 2.972c-10.914-3.305-22.478-3.864-33.659-1.627l-366.305 73.261c-13.040 2.608-23.234 12.801-25.842 25.842l-73.261 366.305c-2.237 11.181-1.678 22.746 1.627 33.659 3.305 10.918 9.253 20.846 17.318 28.912l474.385 474.384c6.434 6.434 14.072 11.538 22.474 15.017 8.406 3.48 17.413 5.275 26.512 5.275 9.096 0 18.106-1.794 26.508-5.275 8.406-3.48 16.044-8.585 22.474-15.017l411.062-411.062c6.434-6.434 11.538-14.068 15.017-22.474 3.485-8.402 5.275-17.413 5.275-26.508 0-9.1-1.794-18.106-5.275-26.512-3.48-8.402-8.585-16.041-15.017-22.474l-474.384-474.386c-8.065-8.065-17.994-14.013-28.912-17.318zM479.676 65.949c0.547-0.109 1.112-0.082 1.647 0.080s1.019 0.453 1.414 0.847v0l474.388 474.387c0.314 0.314 0.562 0.69 0.733 1.101s0.26 0.852 0.26 1.299c0 0.446-0.089 0.884-0.26 1.299-0.171 0.411-0.419 0.783-0.733 1.096l-411.062 411.062c-0.318 0.318-0.69 0.566-1.101 0.737s-0.852 0.26-1.299 0.26c-0.446 0-0.888-0.089-1.299-0.26s-0.787-0.419-1.101-0.737l-474.386-474.384c-0.394-0.395-0.686-0.88-0.847-1.414s-0.189-1.101-0.080-1.647l68.954-344.77 344.77-68.954zM352.055 297.627c0 30.099-24.4 54.499-54.499 54.499s-54.499-24.4-54.499-54.499c0-30.099 24.4-54.499 54.499-54.499s54.499 24.4 54.499 54.499z"></path>
</svg>
