<!-- Generated by IcoMoon.io -->
<svg version="1.1" xmlns="http://www.w3.org/2000/svg" width="1024" height="1024" viewBox="0 0 1024 1024">
<title></title>
<g id="icomoon-ignore">
</g>
<path fill="none" stroke-linejoin="round" stroke-linecap="round" stroke-miterlimit="4" stroke-width="56.1548" stroke="#000" d="M358.399 646.402h307.201"></path>
<path fill="none" stroke-linejoin="round" stroke-linecap="round" stroke-miterlimit="4" stroke-width="56.1548" stroke="#000" d="M358.399 492.801h307.201"></path>
<path fill="none" stroke-linejoin="round" stroke-linecap="round" stroke-miterlimit="4" stroke-width="56.1548" stroke="#000" d="M665.608 108.802h191.992c10.182 0 19.95 4.048 27.151 11.249s11.25 16.967 11.25 27.151v806.401c0 10.186-4.049 19.95-11.25 27.154-7.201 7.201-16.969 11.245-27.151 11.245h-691.202c-10.183 0-19.95-4.044-27.151-11.245-7.202-7.205-11.249-16.969-11.249-27.154v-806.401c0-10.183 4.048-19.95 11.249-27.151s16.967-11.249 27.151-11.249h191.988"></path>
<path fill="none" stroke-linejoin="round" stroke-linecap="round" stroke-miterlimit="4" stroke-width="56.1548" stroke="#000" d="M319.999 262.402v-38.4c0-50.921 20.231-99.757 56.235-135.765 36.009-36.008 84.845-56.236 135.766-56.236s99.757 20.229 135.766 56.236c36.004 36.008 56.235 84.844 56.235 135.765v38.4h-384.001z"></path>
</svg>
