<!-- Generated by IcoMoon.io -->
<svg version="1.1" xmlns="http://www.w3.org/2000/svg" width="1024" height="1024" viewBox="0 0 1024 1024">
<title></title>
<g id="icomoon-ignore">
</g>
<path fill="#000" d="M401.462 115.038c-29.317 29.317-45.787 69.077-45.787 110.538v3.564h312.648v-3.564c0-41.459-16.469-81.221-45.787-110.538-29.313-29.317-69.075-45.787-110.537-45.787-41.459 0-81.221 16.47-110.538 45.787zM512 0.001c59.825 0 117.201 23.766 159.505 66.070 3.344 3.344 6.575 6.783 9.683 10.31h174.521c19.313 0 37.831 7.671 51.49 21.327 13.655 13.656 21.325 32.176 21.325 51.488v801.989c0 19.313-7.67 37.831-21.325 51.49-13.659 13.655-32.177 21.325-51.49 21.325h-687.419c-19.312 0-37.833-7.67-51.488-21.325-13.656-13.659-21.327-32.177-21.327-51.49v-801.989c0-19.312 7.671-37.833 21.327-51.488s32.176-21.327 51.488-21.327h174.52c3.11-3.527 6.339-6.966 9.684-10.31 42.303-42.303 99.68-66.070 159.505-66.070zM722.935 145.632c9.589 25.302 14.641 52.363 14.641 79.944v38.19c0 19.123-15.504 34.626-34.626 34.626h-381.9c-19.123 0-34.626-15.502-34.626-34.626v-38.19c0-27.581 5.052-54.642 14.642-79.944h-132.776c-0.945 0-1.851 0.375-2.521 1.044s-1.044 1.575-1.044 2.521v801.989c0 0.945 0.375 1.853 1.044 2.522s1.575 1.043 2.521 1.043h687.419c0.945 0 1.853-0.374 2.522-1.043s1.043-1.576 1.043-2.522v-801.989c0-0.945-0.374-1.851-1.043-2.521s-1.576-1.044-2.522-1.044h-132.774zM359.241 458.28h305.52c19.121 0 34.626 15.504 34.626 34.626s-15.504 34.626-34.626 34.626h-305.52c-19.123 0-34.626-15.504-34.626-34.626s15.502-34.626 34.626-34.626zM359.241 611.039h305.52c19.121 0 34.626 15.504 34.626 34.626s-15.504 34.626-34.626 34.626h-305.52c-19.123 0-34.626-15.504-34.626-34.626s15.502-34.626 34.626-34.626z"></path>
</svg>
