<!-- Generated by IcoMoon.io -->
<svg version="1.1" xmlns="http://www.w3.org/2000/svg" width="1024" height="1024" viewBox="0 0 1024 1024">
<title></title>
<g id="icomoon-ignore">
</g>
<path fill="#000" d="M539.48 72.822c106.998 6.695 207.868 52.22 283.673 128.024s121.327 176.675 128.024 283.67c6.697 106.995-25.898 212.753-91.659 297.418-65.765 84.665-160.171 142.408-265.496 162.392-105.124 19.942-213.907 0.902-305.997-53.552-8.51-5.249-18.941-6.777-28.769-3.97l-164.476 46.996c-0.635 0.182-1.307 0.19-1.946 0.021-0.64-0.166-1.223-0.5-1.691-0.965s-0.801-1.050-0.966-1.689c-0.166-0.64-0.158-1.312 0.024-1.948v0l46.993-164.475c2.85-9.977 1.206-20.387-3.982-28.793-54.444-92.085-73.481-200.858-53.539-305.973 19.983-105.324 77.727-199.732 162.391-265.494s190.421-98.357 297.416-91.661zM264.432 960.167c104.3 57.62 225.614 77.131 343.005 54.86 122.546-23.252 232.395-90.439 308.911-188.95 76.517-98.507 114.44-221.562 106.652-346.056-7.793-124.492-60.762-241.857-148.965-330.060-88.2-88.201-205.566-141.17-330.060-148.96-124.489-7.79-247.545 30.134-346.055 106.651s-165.697 186.364-188.947 308.915c-22.271 117.39-2.759 238.702 54.859 343l-42.823 149.884c-3.707 12.974-3.877 26.702-0.492 39.765s10.201 24.984 19.743 34.525c9.542 9.541 21.462 16.356 34.524 19.743s26.793 3.213 39.768-0.491l149.882-42.825z"></path>
</svg>
