<!-- Generated by IcoMoon.io -->
<svg version="1.1" xmlns="http://www.w3.org/2000/svg" width="1024" height="1024" viewBox="0 0 1024 1024">
<title></title>
<g id="icomoon-ignore">
</g>
<path fill="none" stroke-linejoin="round" stroke-linecap="round" stroke-miterlimit="4" stroke-width="56.1548" stroke="#000" d="M99.171 756.892c-59.663-100.579-80.553-219.47-58.76-334.363 21.798-114.889 84.786-217.87 177.139-289.604 92.355-71.734 207.718-107.29 324.425-99.987 116.713 7.302 226.745 56.963 309.433 139.65s132.347 192.721 139.65 309.429c7.307 116.713-28.248 232.074-99.986 324.428-71.73 92.358-174.711 155.341-289.604 177.142-114.889 21.801-233.785 0.905-334.358-58.756l0.001-0.004-165.853 47.383c-6.863 1.958-14.124 2.050-21.030 0.261s-13.212-5.395-18.26-10.441c-5.046-5.045-8.652-11.35-10.441-18.261-1.789-6.907-1.702-14.167 0.262-21.030l47.381-165.847z"></path>
</svg>
