<!-- Generated by IcoMoon.io -->
<svg version="1.1" xmlns="http://www.w3.org/2000/svg" width="1024" height="1024" viewBox="0 0 1024 1024">
<title></title>
<g id="icomoon-ignore">
</g>
<path fill="#000" d="M233.364 374.52c0-153.896 124.758-278.656 278.656-278.656s278.656 124.758 278.656 278.656c0 153.897-124.758 278.656-278.656 278.656s-278.656-124.758-278.656-278.656zM512.019 24.63c-193.24 0-349.891 156.651-349.891 349.89 0 130.582 71.533 244.454 177.551 304.572-41.834 12.877-82.267 30.455-120.496 52.517-89.033 51.385-162.976 125.299-214.401 214.309-9.84 17.034-4.010 38.819 13.023 48.657s38.818 4.010 48.658-13.024c45.171-78.187 110.123-143.107 188.328-188.245s166.914-68.897 257.211-68.897c90.297 0 179.001 23.763 257.21 68.901 78.204 45.138 143.154 110.063 188.325 188.249 9.839 17.034 31.625 22.866 48.657 13.024 17.034-9.839 22.862-31.625 13.024-48.657-51.424-89.011-125.366-162.923-214.397-214.309-38.224-22.062-78.652-39.64-120.48-52.517 106.027-60.114 177.568-173.994 177.568-304.581 0-193.239-156.65-349.89-349.891-349.89z"></path>
</svg>
