<!-- Generated by IcoMoon.io -->
<svg version="1.1" xmlns="http://www.w3.org/2000/svg" width="1024" height="1024" viewBox="0 0 1024 1024">
<title></title>
<g id="icomoon-ignore">
</g>
<path fill="none" stroke-linejoin="round" stroke-linecap="round" stroke-miterlimit="4" stroke-width="69.632" stroke="#000" d="M332.579 983.982h-250.774c-11.084 0-21.716-4.401-29.553-12.24s-12.243-18.474-12.243-29.557v-233.458c0-5.49 1.083-10.923 3.18-15.995s5.178-9.68 9.058-13.558l626.932-626.933c7.834-7.837 18.468-12.243 29.551-12.243s21.717 4.402 29.551 12.243l233.464 233.459c7.834 7.837 12.24 18.469 12.24 29.553s-4.401 21.716-12.24 29.553l-639.176 639.173z"></path>
<path fill="none" stroke-linejoin="round" stroke-linecap="round" stroke-miterlimit="4" stroke-width="69.632" stroke="#000" d="M541.556 189.881l292.567 292.564"></path>
<path fill="none" stroke-linejoin="round" stroke-linecap="round" stroke-miterlimit="4" stroke-width="69.632" stroke="#000" d="M959.571 984.001h-626.93l-289.906-289.908"></path>
</svg>
