<!-- Generated by IcoMoon.io -->
<svg version="1.1" xmlns="http://www.w3.org/2000/svg" width="1024" height="1024" viewBox="0 0 1024 1024">
<title></title>
<g id="icomoon-ignore">
</g>
<path d="M705.947 95.669l-98.777 98.776 222.379 222.38 98.777-98.776-222.379-222.38zM112.767 688.848l222.38 222.379 428.368-428.364-222.382-222.38-428.365 428.365zM93.402 801.562v129.030h129.034l-129.034-129.030zM334.065 1023.984h-246.157c-23.312 0-45.669-9.257-62.154-25.743-16.485-16.481-25.745-38.841-25.745-62.156v-230.146c0-11.542 2.273-22.975 6.691-33.638s10.892-20.354 19.054-28.518l618.037-618.037c16.487-16.485 38.846-25.745 62.156-25.745s45.669 9.261 62.156 25.745l230.146 230.148c16.487 16.485 25.743 38.842 25.743 62.154s-9.257 45.669-25.743 62.154l-550.404 550.405h505.378c25.793 0 46.697 20.903 46.697 46.697 0 25.787-20.903 46.697-46.697 46.697h-618.038c-0.373 0-0.747-0.005-1.119-0.016z"></path>
</svg>
