<svg width="26" height="25" viewBox="0 0 26 25" fill="none" xmlns="http://www.w3.org/2000/svg">
<path fill-rule="evenodd" clip-rule="evenodd" d="M5.84861 8.9999C5.84861 5.05107 9.04977 1.8499 12.9986 1.8499C16.9474 1.8499 20.1486 5.05107 20.1486 8.9999C20.1486 12.9487 16.9474 16.1499 12.9986 16.1499C9.04977 16.1499 5.84861 12.9487 5.84861 8.9999ZM12.9986 0.149902C8.11089 0.149902 4.14861 4.11218 4.14861 8.9999C4.14861 12.3506 6.01075 15.2665 8.75662 16.7689C7.65084 17.0985 6.58257 17.5573 5.57471 18.1389C3.31693 19.442 1.44182 21.3163 0.137752 23.5735C-0.0970867 23.98 0.0420571 24.4999 0.448538 24.7347C0.855019 24.9696 1.37491 24.8304 1.60975 24.4239C2.76458 22.4251 4.4251 20.7653 6.42449 19.6113C8.42389 18.4574 10.6918 17.8499 13.0003 17.8499C15.3088 17.8499 17.5766 18.4575 19.576 19.6114C21.5754 20.7654 23.2358 22.4253 24.3906 24.4242C24.6255 24.8307 25.1454 24.9698 25.5518 24.735C25.9583 24.5002 26.0975 23.9803 25.8626 23.5738C24.5586 21.3165 22.6835 19.4422 20.4258 18.1391C19.4173 17.557 18.3482 17.098 17.2417 16.7683C19.9869 15.2657 21.8486 12.3502 21.8486 8.9999C21.8486 4.11218 17.8863 0.149902 12.9986 0.149902Z" fill="#333333"/>
</svg>
