<svg width="53" height="41" viewBox="0 0 53 41" fill="none" xmlns="http://www.w3.org/2000/svg">
<g filter="url(#filter0_d)">
<path d="M22.8968 0.238551C23.4306 -0.079517 23.7509 -0.079517 23.8577 0.238551C24.0712 0.450603 23.911 0.662652 23.3772 0.874697C19.7473 2.67711 16.8648 4.90361 14.7295 7.55421C12.7011 10.0988 11.6868 12.5373 11.6868 14.8699C11.6868 15.8241 12.0605 16.5133 12.8078 16.9373C13.6619 17.2554 14.9431 17.5735 16.6512 17.8916C19.3203 18.3157 21.4021 19.0048 22.8968 19.959C24.3915 20.9133 25.1388 22.6626 25.1388 25.2072C25.1388 27.1157 24.0712 28.9181 21.9359 30.6145C19.9075 32.2048 17.2918 33 14.089 33C10.7794 33 8.27046 32.2578 6.56228 30.7735C4.85409 29.1831 4 27.2217 4 24.8892C4 19.906 5.81495 15.347 9.44484 11.212C13.1815 6.97109 17.6655 3.31325 22.8968 0.238551ZM46.758 0.238551C47.2918 -0.079517 47.6655 -0.079517 47.879 0.238551C48.0925 0.450603 47.9324 0.662652 47.3986 0.874697C43.7687 2.57109 40.8861 4.74458 38.7509 7.39518C36.7224 10.0458 35.7082 12.5373 35.7082 14.8699C35.7082 15.8241 36.0819 16.5133 36.8292 16.9373C37.6833 17.2554 38.9644 17.5735 40.6726 17.8916C43.3416 18.3157 45.3701 19.0048 46.758 19.959C48.2527 20.8072 49 22.5566 49 25.2072C49 27.1157 47.9324 28.9181 45.7972 30.6145C43.7687 32.2048 41.153 33 37.9502 33C34.6406 33 32.1317 32.2578 30.4235 30.7735C28.7153 29.1831 27.8612 27.2217 27.8612 24.8892C27.8612 19.906 29.6762 15.347 33.306 11.212C37.0427 6.97109 41.5267 3.31325 46.758 0.238551Z" fill="#333333"/>
</g>
<defs>
<filter id="filter0_d" x="0" y="0" width="53" height="41" filterUnits="userSpaceOnUse" color-interpolation-filters="sRGB">
<feFlood flood-opacity="0" result="BackgroundImageFix"/>
<feColorMatrix in="SourceAlpha" type="matrix" values="0 0 0 0 0 0 0 0 0 0 0 0 0 0 0 0 0 0 127 0" result="hardAlpha"/>
<feOffset dy="4"/>
<feGaussianBlur stdDeviation="2"/>
<feColorMatrix type="matrix" values="0 0 0 0 1 0 0 0 0 1 0 0 0 0 1 0 0 0 1 0"/>
<feBlend mode="normal" in2="BackgroundImageFix" result="effect1_dropShadow"/>
<feBlend mode="normal" in="SourceGraphic" in2="effect1_dropShadow" result="shape"/>
</filter>
</defs>
</svg>
