<svg width="53" height="41" viewBox="0 0 53 41" fill="none" xmlns="http://www.w3.org/2000/svg">
<g filter="url(#filter0_d)">
<path d="M30.1032 32.7614C29.5694 33.0795 29.2491 33.0795 29.1423 32.7614C28.9288 32.5494 29.089 32.3373 29.6228 32.1253C33.2527 30.3229 36.1352 28.0964 38.2705 25.4458C40.2989 22.9012 41.3132 20.4627 41.3132 18.1301C41.3132 17.1759 40.9395 16.4867 40.1922 16.0627C39.3381 15.7446 38.0569 15.4265 36.3488 15.1084C33.6797 14.6843 31.5979 13.9952 30.1032 13.041C28.6085 12.0867 27.8612 10.3374 27.8612 7.79277C27.8612 5.88434 28.9288 4.08193 31.0641 2.38554C33.0925 0.795181 35.7082 0 38.911 0C42.2206 0 44.7295 0.742168 46.4377 2.22651C48.1459 3.81687 49 5.77831 49 8.11084C49 13.094 47.1851 17.653 43.5552 21.788C39.8185 26.0289 35.3345 29.6867 30.1032 32.7614ZM6.24199 32.7614C5.70819 33.0795 5.33452 33.0795 5.121 32.7614C4.90747 32.5494 5.06761 32.3373 5.60142 32.1253C9.23132 30.4289 12.1139 28.2554 14.2491 25.6048C16.2776 22.9542 17.2918 20.4627 17.2918 18.1301C17.2918 17.1759 16.9181 16.4867 16.1708 16.0627C15.3167 15.7446 14.0356 15.4265 12.3274 15.1084C9.65836 14.6843 7.62989 13.9952 6.24199 13.041C4.74733 12.1928 4 10.4434 4 7.79277C4 5.88434 5.06762 4.08193 7.20285 2.38554C9.23132 0.795181 11.847 0 15.0498 0C18.3594 0 20.8683 0.742168 22.5765 2.22651C24.2847 3.81687 25.1388 5.77831 25.1388 8.11084C25.1388 13.094 23.3238 17.653 19.694 21.788C15.9573 26.0289 11.4733 29.6867 6.24199 32.7614Z" fill="#333333"/>
</g>
<defs>
<filter id="filter0_d" x="0" y="0" width="53" height="41" filterUnits="userSpaceOnUse" color-interpolation-filters="sRGB">
<feFlood flood-opacity="0" result="BackgroundImageFix"/>
<feColorMatrix in="SourceAlpha" type="matrix" values="0 0 0 0 0 0 0 0 0 0 0 0 0 0 0 0 0 0 127 0" result="hardAlpha"/>
<feOffset dy="4"/>
<feGaussianBlur stdDeviation="2"/>
<feColorMatrix type="matrix" values="0 0 0 0 1 0 0 0 0 1 0 0 0 0 1 0 0 0 1 0"/>
<feBlend mode="normal" in2="BackgroundImageFix" result="effect1_dropShadow"/>
<feBlend mode="normal" in="SourceGraphic" in2="effect1_dropShadow" result="shape"/>
</filter>
</defs>
</svg>
