<!-- Generated by IcoMoon.io -->
<svg version="1.1" xmlns="http://www.w3.org/2000/svg" width="1024" height="1024" viewBox="0 0 1024 1024">
<title></title>
<g id="icomoon-ignore">
</g>
<path d="M88.358 453.524c0-201.654 163.473-365.127 365.126-365.127s365.127 163.473 365.127 365.127-163.473 365.127-365.127 365.127c-201.652 0-365.126-163.473-365.126-365.127zM453.484 0.038c-250.452 0-453.484 203.033-453.484 453.486s203.032 453.486 453.484 453.486c109.336 0 209.638-38.695 287.95-103.134l207.148 207.148c17.255 17.251 45.224 17.251 62.48 0 17.251-17.255 17.251-45.224 0-62.48l-207.153-207.153c64.398-78.301 103.062-178.567 103.062-287.866 0-250.453-203.032-453.486-453.486-453.486z"></path>
</svg>
