<!-- Generated by IcoMoon.io -->
<svg version="1.1" xmlns="http://www.w3.org/2000/svg" width="1024" height="1024" viewBox="0 0 1024 1024">
<title></title>
<g id="icomoon-ignore">
</g>
<path d="M145.231 111.596h733.54c0.808 0 1.591 0.263 2.23 0.747 0.644 0.485 1.112 1.165 1.333 1.939l58.017 203.066h-856.698l58.019-203.066c0.221-0.774 0.688-1.454 1.331-1.939s1.425-0.747 2.229-0.747zM952.066 389.281v43.372c0 32.543-12.927 63.758-35.942 86.769-6.304 6.304-13.223 11.852-20.615 16.583-3.373 1.329-6.49 3.153-9.275 5.382-17.395 9.097-36.886 13.976-56.879 13.976-32.543 0-63.758-12.927-86.769-35.942-23.015-23.011-35.942-54.225-35.942-86.769v-43.372h245.422zM944.661 589.469v319.233c0 20.061-7.967 39.298-22.152 53.485-14.188 14.183-33.423 22.152-53.485 22.152h-714.048c-20.060 0-39.299-7.967-53.483-22.152-14.184-14.188-22.154-33.423-22.154-53.485v-319.233c-7.87-5.785-15.337-12.19-22.329-19.181-36.503-36.505-57.010-86.012-57.010-137.635v-79.339c0-3.342 0.466-6.667 1.384-9.881l71.118-248.914c4.515-15.804 14.056-29.707 27.179-39.606s29.111-15.252 45.548-15.252h733.54c16.439 0 32.43 5.354 45.551 15.252s22.663 23.801 27.179 39.606l71.117 248.914c0.918 3.213 1.384 6.538 1.384 9.881v79.339c0 51.623-20.505 101.13-57.010 137.635-6.99 6.99-14.459 13.396-22.329 19.181zM872.728 622.406c-14.116 3.225-28.659 4.892-43.372 4.892-51.623 0-101.13-20.505-137.635-57.010-7.748-7.752-14.776-16.088-21.042-24.906-6.263 8.819-13.296 17.154-21.042 24.906-36.505 36.505-86.012 57.010-137.635 57.010s-101.131-20.505-137.634-57.010c-7.75-7.752-14.778-16.088-21.043-24.906-6.265 8.819-13.293 17.154-21.043 24.906-36.503 36.505-86.011 57.010-137.634 57.010-14.713 0-29.254-1.667-43.372-4.892v286.297c0 0.982 0.39 1.925 1.085 2.619s1.635 1.083 2.618 1.083h714.048c0.982 0 1.925-0.39 2.619-1.083s1.083-1.637 1.083-2.619v-286.297zM137.797 541.4c17.388 9.089 36.868 13.964 56.851 13.964 32.544 0 63.757-12.927 86.77-35.942 23.014-23.011 35.942-54.225 35.942-86.769v-43.372h-245.422v43.372c0 32.543 12.928 63.758 35.942 86.769 6.296 6.297 13.204 11.835 20.585 16.561 3.393 1.337 6.536 3.174 9.334 5.416zM389.29 389.281v43.372c0 32.543 12.928 63.758 35.942 86.769 23.011 23.015 54.225 35.942 86.769 35.942s63.758-12.927 86.769-35.942c23.015-23.011 35.942-54.225 35.942-86.769v-43.372h-245.422z"></path>
</svg>
