<!-- Generated by IcoMoon.io -->
<svg version="1.1" xmlns="http://www.w3.org/2000/svg" width="1024" height="1024" viewBox="0 0 1024 1024">
<title></title>
<g id="icomoon-ignore">
</g>
<path d="M1017.424 276.553c0-98.821-66.211-178.317-148.022-178.317-110.815-5.687-223.829-7.884-339.322-7.884h-36.005c-115.214 0-228.429 2.196-339.243 7.906-81.61 0-147.819 79.935-147.819 178.755-5 78.156-7.121 156.335-7.001 234.513-0.2 78.179 2.067 156.43 6.801 234.752 0 98.822 66.209 178.977 147.819 178.977 116.414 5.934 235.83 8.566 357.245 8.349 121.618 0.434 240.697-2.343 357.247-8.349 81.812 0 148.016-80.155 148.016-178.977 4.8-78.395 6.999-156.574 6.801-234.971 0.458-78.179-1.717-156.43-6.517-234.755zM414.066 726.955v-431.517l290.038 215.649-290.038 215.868z"></path>
</svg>
