<svg width="102" height="143" viewBox="0 0 102 143" fill="none" xmlns="http://www.w3.org/2000/svg">
<path d="M62.1287 139.363C81.6614 139.363 97.4957 124.145 97.4957 105.373C97.4957 86.6004 81.6614 71.3823 62.1287 71.3823C42.5961 71.3823 26.7617 86.6004 26.7617 105.373C26.7617 124.145 42.5961 139.363 62.1287 139.363Z" fill="#FFF4F4"/>
<path d="M18.7287 47.2694L18.0037 45.2486C16.3666 40.6705 15.8899 35.7831 16.6132 30.9924C17.3365 26.2017 19.2388 21.646 22.1621 17.7038C25.0855 13.7617 28.9455 10.5469 33.4214 8.32661C37.8973 6.10632 42.8598 4.94461 47.8967 4.93799H48.6218L48.7523 5.28639C49.9921 8.6311 48.8248 12.2963 47.6357 14.777C43.9308 22.4419 36.6298 27.9816 29.4665 32.9708L29.2779 33.1032C26.7983 34.8243 24.2027 36.5872 22.2379 38.8519C20.5944 40.6222 19.4861 42.7909 19.0333 45.1232L18.7287 47.2694ZM47.8677 5.98321C43.1723 5.99499 38.5428 7.04597 34.3382 9.05467C30.1336 11.0634 26.4668 13.9758 23.6223 17.5661C20.7777 21.1564 18.8318 25.3282 17.9354 29.7579C17.039 34.1875 17.2162 38.7561 18.4532 43.1094C19.1071 41.2954 20.1161 39.6184 21.4259 38.169C23.5067 35.8347 26.1313 33.9881 28.6762 32.2531L28.8719 32.1207C35.912 27.243 43.0898 21.8009 46.6859 14.345C47.73 12.1221 48.7885 8.90982 47.875 5.98321H47.8677Z" fill="#333333"/>
<path d="M49.0023 65.7H47.9003C41.3261 65.6957 34.9161 63.7261 29.5587 60.0642C24.2013 56.4023 20.1618 51.2294 18 45.2625V45.0465V45.0047C18.4673 42.4636 19.6596 40.0972 21.4439 38.169C23.5247 35.8346 26.1493 33.9881 28.6942 32.253L28.89 32.1206C35.93 27.243 43.1078 21.8008 46.704 14.338C47.8133 12.0385 48.8791 8.652 47.7843 5.6348L47.5233 4.93799H48.299C51.2741 4.97045 54.2297 5.4044 57.0792 6.2271H57.2822L57.4562 6.45703C58.6144 7.97037 59.5489 9.63064 60.233 11.3905C60.9736 13.7827 61.1519 16.3032 60.7551 18.7697C59.8198 26.365 56.1149 33.3192 52.5332 40.0504C51.7212 41.5694 50.9164 43.0815 50.1406 44.6075C47.835 49.1019 45.7904 53.9378 46.3197 58.8085C46.5603 60.9675 47.3037 63.0467 48.4948 64.8917L49.0023 65.7ZM19.0803 45.0395C21.138 50.6419 24.9135 55.5137 29.9094 59.0128C34.9054 62.5119 40.8871 64.4741 47.0665 64.6409C46.0651 62.8712 45.4345 60.9299 45.2104 58.927C44.6376 53.7915 46.7547 48.7884 49.1328 44.1546C49.9086 42.6286 50.7206 41.1025 51.5327 39.5765C55.0708 32.9359 58.7322 26.0584 59.653 18.6722C60.0252 16.3549 59.8593 13.9873 59.1672 11.7389C58.5422 10.1298 57.6908 8.61059 56.6369 7.22353C54.1556 6.51196 51.5901 6.10686 49.0023 6.01804C49.8506 9.16763 48.7703 12.4914 47.661 14.7979C43.9561 22.4628 36.655 28.0025 29.4917 32.9917L29.3032 33.1241C26.8236 34.8452 24.228 36.6081 22.2632 38.8728C20.648 40.6181 19.5489 42.7475 19.0803 45.0395Z" fill="#333333"/>
<path d="M47.7282 65.6994L47.5687 65.4555C46.2834 63.4773 45.4803 61.2452 45.2196 58.9264C44.6469 53.7909 46.764 48.7878 49.1421 44.154C49.9178 42.628 50.7299 41.102 51.5419 39.576C55.0801 32.9354 58.7415 26.0579 59.6623 18.6717C60.0344 16.3544 59.8685 13.9868 59.1765 11.7384C58.5239 10.071 57.6359 8.49771 56.5374 7.0628L55.6673 5.83643L57.1174 6.26844C64.3549 8.39156 70.5601 12.9389 74.6062 19.0846C78.6522 25.2303 80.2708 32.5668 79.1678 39.7618C78.0649 46.9567 74.3136 53.5329 68.5953 58.2961C62.877 63.0592 55.5709 65.6934 48.0038 65.7203L47.7282 65.6994ZM58.3064 7.72478C59.452 9.31944 60.2567 11.1169 60.6736 13.0128C61.0906 14.9088 61.1115 16.8654 60.7353 18.7692C59.8 26.3714 56.0951 33.3256 52.5135 40.0568C51.7014 41.5758 50.8966 43.0879 50.1209 44.6139C47.8153 49.1084 45.7707 53.9442 46.2999 58.8149C46.5316 60.8769 47.2241 62.8664 48.33 64.6472C55.4721 64.5487 62.3522 62.0467 67.773 57.5765C73.1939 53.1062 76.8124 46.9509 77.9988 40.1814C79.1853 33.412 77.8645 26.457 74.2665 20.5268C70.6684 14.5966 65.0208 10.0665 58.3064 7.72478Z" fill="#333333"/>
<path d="M42.5348 136.458C34.3072 135.394 26.7044 131.661 20.9857 125.878C15.2671 120.094 11.7755 112.607 11.0895 104.655C10.4034 96.7041 12.564 88.7662 17.2133 82.1563C21.8627 75.5463 28.7218 70.661 36.6548 68.3095C28.3915 65.7241 21.3634 60.3824 16.8413 53.2504C12.3192 46.1183 10.6015 37.6666 11.9988 29.4233C13.3961 21.1801 17.8162 13.6893 24.4598 8.30552C31.1035 2.9217 39.5323 0.00013274 48.2221 0.0690635C56.912 0.137994 65.2895 3.19286 71.8397 8.68134C78.3901 14.1698 82.6809 21.7297 83.9364 29.994C85.192 38.2583 83.3294 46.6816 78.6854 53.741C74.0414 60.8003 66.9225 66.0297 58.6159 68.4837C66.4719 70.9392 73.2263 75.8877 77.7713 82.5175L76.865 83.0959C72.1101 76.148 64.8647 71.1214 56.5061 68.9715L54.476 68.4559L56.5134 67.9611C64.8521 65.9506 72.1423 61.0876 77.0185 54.2827C81.8947 47.4778 84.0226 39.1978 83.0035 30.9935C81.9845 22.7893 77.8884 15.2234 71.4825 9.7129C65.0765 4.20241 56.8001 1.12529 48.2033 1.05781C39.6064 0.990337 31.2788 3.93716 24.7801 9.34636C18.2813 14.7556 14.0573 22.2561 12.8989 30.4433C11.7406 38.6305 13.7274 46.9427 18.4874 53.8232C23.2473 60.7038 30.4539 65.6807 38.7574 67.8218L40.7874 68.3444L38.7501 68.8321C30.7831 70.7543 23.762 75.2844 18.8942 81.6433C14.0263 88.0022 11.616 95.7925 12.0777 103.675C12.5395 111.557 15.8444 119.038 21.4241 124.831C27.0038 130.625 34.5096 134.369 42.6508 135.419L42.5348 136.458ZM38.4456 129.281C31.5983 127.231 25.7423 122.891 21.94 117.047C18.1377 111.203 16.6411 104.243 17.7217 97.4289C18.8023 90.6152 22.3885 84.3994 27.8297 79.9095C33.2708 75.4196 40.2064 72.953 47.378 72.9573H48.103C52.9791 73.0686 57.7533 74.3219 62.0112 76.6084C66.2691 78.8949 69.8821 82.1456 72.5365 86.0782L71.623 86.6496C69.0645 82.8594 65.5823 79.7264 61.4786 77.5225C57.3749 75.3186 52.7736 74.1103 48.074 74.0025H47.407C40.4988 74.002 33.819 76.3798 28.5779 80.705C23.3368 85.0302 19.8811 91.0167 18.8371 97.5797C17.793 104.143 19.2297 110.848 22.8867 116.481C26.5437 122.113 32.1791 126.301 38.7719 128.284L38.4456 129.281ZM48.0233 65.4038H47.9C41.3258 65.3995 34.9159 63.4299 29.5585 59.768C24.201 56.1061 20.1615 50.9332 17.9997 44.9663V44.8688C16.379 40.2933 15.916 35.4125 16.6489 30.6308C17.3819 25.849 19.2897 21.3039 22.2144 17.372C25.1391 13.44 28.9965 10.2344 33.4671 8.02059C37.9376 5.8068 42.8927 4.64856 47.9217 4.64184H48.2843C51.2618 4.67374 54.2198 5.10769 57.0716 5.93094H57.1586C64.3961 8.05406 70.6014 12.6014 74.6474 18.7471C78.6935 24.8929 80.312 32.2294 79.2091 39.4244C78.1061 46.6193 74.3549 53.1955 68.6365 57.9587C62.9182 62.7218 55.6121 65.356 48.045 65.3829L48.0233 65.4038ZM19.0655 44.7015C21.1646 50.4428 25.0654 55.4167 30.2299 58.9375C35.3943 62.4582 41.5682 64.3523 47.9 64.3586H48.016C55.3145 64.3306 62.3611 61.7906 67.8788 57.1991C73.3965 52.6076 77.0202 46.2683 78.0932 39.33C79.1662 32.3918 77.6176 25.3136 73.7279 19.3782C69.8382 13.4429 63.8649 9.04309 56.8904 6.97616H56.8106C54.0364 6.16338 51.1554 5.73631 48.2553 5.70796H47.9C43.036 5.71328 38.2436 6.83435 33.9211 8.97799C29.5986 11.1216 25.871 14.2259 23.0481 18.0328C20.2252 21.8396 18.3885 26.2391 17.6908 30.8654C16.993 35.4918 17.4544 40.2114 19.0365 44.6319L19.0655 44.7015Z" fill="#333333"/>
<path d="M49.7862 139.38C48.9452 138.502 48.1984 137.68 47.5024 136.872C45.7075 134.814 44.0764 132.629 42.6229 130.336C41.3107 128.233 40.1854 126.028 39.2588 123.744C36.6342 117.152 36.1702 110.226 37.9537 104.233C39.1683 100.365 41.1042 96.7405 43.667 93.5371C46.9654 89.0384 51.2619 85.2995 56.2463 82.5902L57.5078 81.9282L57.0148 83.2243C55.9128 86.13 56.761 89.4956 57.5006 91.7324C57.7108 92.3874 57.9356 93.0354 58.1676 93.6904C58.7678 95.2821 59.2523 96.9119 59.6177 98.5681L58.5519 98.7632C58.1832 97.1443 57.6987 95.5518 57.1018 93.997C56.8698 93.335 56.6378 92.6731 56.4203 92.0181C55.7387 89.9276 54.9702 86.9522 55.5865 84.1092C51.234 86.7013 47.4669 90.1062 44.508 94.1224C42.0431 97.2416 40.186 100.764 39.0268 104.519C37.3085 110.295 37.758 116.992 40.3028 123.333C41.2062 125.561 42.3024 127.712 43.58 129.764C45.0087 132.009 46.6082 134.15 48.3652 136.168C49.0467 136.962 49.8152 137.771 50.62 138.635L49.7862 139.38Z" fill="#333333"/>
<path d="M52.3828 142.439L52.7308 141.68C53.5932 139.762 54.1833 137.742 54.4854 135.673C54.7656 133.911 54.9278 132.132 54.9712 130.35V129.249C54.9712 128.085 54.9712 126.921 54.9712 125.765C54.8997 122.757 55.0232 119.748 55.3409 116.755C56.0858 110.993 58.2372 105.483 61.6197 100.672C64.4038 96.7285 68.0217 93.1538 73.3507 89.0705C74.895 87.8859 76.5481 86.6804 78.5709 85.2589C79.3394 84.7154 80.108 84.1719 80.8838 83.6354C86.9523 79.3848 93.2093 74.9879 97.893 69.4344L98.618 68.5703L98.8428 69.6573C99.9876 75.6828 100.714 81.7748 101.018 87.8929C101.373 93.1259 101.612 97.8434 101.018 102.603C99.5024 113.833 93.607 124.091 84.5234 131.304C75.6704 138.281 64.6406 142.206 53.1948 142.453L52.3828 142.439ZM98.0597 70.9325C93.3905 76.1865 87.3945 80.3882 81.587 84.4646L79.2669 86.0882C77.2586 87.4818 75.6418 88.7012 74.0902 89.8719C68.8483 93.8855 65.2956 97.3904 62.5767 101.244C59.2914 105.917 57.2021 111.27 56.4792 116.866C56.1668 119.818 56.0457 122.785 56.1167 125.751C56.1167 126.921 56.1167 128.099 56.1167 129.277V130.378C56.0725 132.205 55.9054 134.027 55.6165 135.834C55.3332 137.719 54.8297 139.568 54.1156 141.345C65.0202 140.942 75.49 137.13 83.9361 130.489C92.8046 123.445 98.56 113.429 100.039 102.463C100.612 97.7946 100.365 93.126 100.039 87.9417C99.7245 82.2391 99.0588 76.5594 98.0452 70.9325H98.0597Z" fill="#333333"/>
<path d="M60.0532 137.834L59.3281 137.06C65.4836 131.688 68.565 123.821 71.5449 116.212C72.2337 114.442 72.9515 112.616 73.6837 110.888C77.2654 102.422 82.7176 91.8161 93.1363 84.9106L93.7598 85.7677C83.5732 92.5199 78.2224 102.951 74.6915 111.278C73.9665 112.999 73.285 114.762 72.5599 116.581C69.5438 124.302 66.4189 132.287 60.0532 137.834Z" fill="#333333"/>
<path d="M78.9922 100.916V89.3145H80.0797V99.4392L93.2753 94.9308L93.6378 95.9203L78.9922 100.916Z" fill="#333333"/>
<path d="M71.0383 118.42L67.8047 100.812L68.8777 100.631L71.8866 117.041L89.3671 111.313L89.7151 112.302L71.0383 118.42Z" fill="#333333"/>
<path d="M63.8651 132.949L61.2695 116.281L62.3426 116.128L64.7352 131.451L80.9251 124.775L81.3601 125.73L63.8651 132.949Z" fill="#333333"/>
<path d="M53.6234 68.02H41.1602V69.0652H53.6234V68.02Z" fill="#333333"/>
<path d="M12.0512 78.89H10.9637C10.8394 77.1462 10.2977 75.4535 9.38092 73.9439C8.46412 72.4342 7.19695 71.1485 5.67818 70.1869L5.00391 69.7479L5.67818 69.3507C7.19442 68.3861 8.45877 67.0984 9.37295 65.5878C10.2871 64.0771 10.8265 62.3842 10.9492 60.6406H12.0367C12.161 62.3854 12.7026 64.0791 13.6193 65.5899C14.5361 67.1006 15.8032 68.3876 17.3222 69.3507L18.0037 69.7827L17.3222 70.2217C15.8108 71.1814 14.5493 72.4623 13.6353 73.9654C12.7213 75.4685 12.1793 77.1534 12.0512 78.89ZM6.93974 69.7479C9.10649 71.2958 10.7059 73.4648 11.5074 75.9425C12.315 73.4658 13.9162 71.2978 16.0824 69.7479C13.9054 68.2023 12.2937 66.0337 11.4784 63.5533C10.6846 66.0272 9.09572 68.1959 6.93974 69.7479Z" fill="#333333"/>
<path d="M91.7069 33.8974C91.602 32.4393 91.1492 31.0241 90.3834 29.7613C89.6177 28.4985 88.5597 27.4222 87.2915 26.6157L86.6172 26.1767L87.2915 25.7447C88.5566 24.9399 89.6126 23.8668 90.3781 22.608C91.1436 21.3491 91.5982 19.9382 91.7069 18.4839H92.7944C92.8974 19.9416 93.3487 21.3569 94.1132 22.6198C94.8778 23.8827 95.9349 24.9592 97.2026 25.7656L97.8841 26.1976L97.2026 26.6366C95.9322 27.4403 94.873 28.5161 94.1081 29.7796C93.3433 31.043 92.8936 32.4597 92.7944 33.9183L91.7069 33.8974ZM88.5313 26.1488C90.2603 27.413 91.5558 29.1459 92.2507 31.1241C92.9456 29.1459 94.241 27.413 95.9701 26.1488C94.24 24.8887 92.9441 23.1576 92.2507 21.1806C91.5573 23.1576 90.2614 24.8887 88.5313 26.1488Z" fill="#333333"/>
<path d="M7.44511 61.1359C6.98623 61.1359 6.53767 61.0052 6.15613 60.7602C5.77459 60.5151 5.47721 60.1669 5.30161 59.7594C5.12601 59.352 5.08006 58.9036 5.16958 58.4711C5.2591 58.0385 5.48007 57.6412 5.80454 57.3294C6.12902 57.0175 6.54242 56.8052 6.99248 56.7191C7.44253 56.6331 7.90903 56.6772 8.33298 56.846C8.75692 57.0148 9.11927 57.3006 9.3742 57.6673C9.62914 58.034 9.76521 58.4651 9.76521 58.9061C9.76521 59.4975 9.52078 60.0647 9.08567 60.4828C8.65057 60.901 8.06044 61.1359 7.44511 61.1359ZM7.44511 57.7215C7.20133 57.7215 6.96303 57.791 6.76033 57.9211C6.55764 58.0513 6.39966 58.2363 6.30637 58.4528C6.21308 58.6692 6.18868 58.9074 6.23623 59.1372C6.28379 59.367 6.40118 59.5781 6.57355 59.7437C6.74593 59.9094 6.96555 60.0222 7.20465 60.0679C7.44374 60.1137 7.69157 60.0902 7.91679 60.0005C8.14201 59.9109 8.33451 59.759 8.46994 59.5642C8.60538 59.3694 8.67766 59.1404 8.67766 58.9061C8.67766 58.5919 8.54781 58.2906 8.31666 58.0685C8.08551 57.8463 7.772 57.7215 7.44511 57.7215Z" fill="#333333"/>
<path d="M4.22784 66.2016C3.90233 66.2016 3.58413 66.1088 3.31348 65.935C3.04282 65.7612 2.83188 65.5142 2.70731 65.2252C2.58274 64.9361 2.55015 64.6181 2.61366 64.3113C2.67716 64.0044 2.83391 63.7226 3.06408 63.5014C3.29425 63.2802 3.5875 63.1295 3.90676 63.0685C4.22602 63.0074 4.55694 63.0388 4.85767 63.1585C5.1584 63.2782 5.41544 63.4809 5.59629 63.7411C5.77713 64.0012 5.87366 64.307 5.87366 64.6198C5.87366 65.0393 5.70026 65.4417 5.39161 65.7383C5.08296 66.0349 4.66434 66.2016 4.22784 66.2016ZM4.22784 64.1112C4.11743 64.1112 4.00949 64.1426 3.91769 64.2016C3.82588 64.2606 3.75432 64.3443 3.71207 64.4424C3.66981 64.5404 3.65876 64.6483 3.6803 64.7524C3.70184 64.8565 3.75501 64.9521 3.83309 65.0271C3.91116 65.1021 4.01063 65.1533 4.11893 65.174C4.22722 65.1947 4.33947 65.184 4.44148 65.1434C4.54349 65.1028 4.63068 65.034 4.69203 64.9458C4.75337 64.8576 4.78611 64.7538 4.78611 64.6477C4.79005 64.5749 4.77853 64.5022 4.75224 64.4338C4.72596 64.3655 4.68546 64.303 4.63322 64.2502C4.58098 64.1974 4.5181 64.1553 4.4484 64.1266C4.37871 64.0979 4.30366 64.0832 4.22784 64.0833V64.1112Z" fill="#333333"/>
<path d="M2.05149 61.5535C1.72424 61.5535 1.40435 61.4601 1.13235 61.2852C0.860346 61.1103 0.648474 60.8618 0.523572 60.5711C0.398671 60.2804 0.366363 59.9606 0.430736 59.6522C0.49511 59.3438 0.653269 59.0607 0.885181 58.8388C1.11709 58.6169 1.41232 58.4662 1.73346 58.4057C2.0546 58.3451 2.3872 58.3776 2.68913 58.4989C2.99106 58.6202 3.24873 58.825 3.4295 59.0871C3.61027 59.3493 3.706 59.6572 3.70456 59.9717C3.70456 60.18 3.66175 60.3863 3.57859 60.5786C3.49543 60.771 3.37355 60.9457 3.21995 61.0926C3.06635 61.2396 2.88406 61.356 2.68355 61.4351C2.48303 61.5141 2.26823 61.5544 2.05149 61.5535ZM2.05149 59.4282C1.93964 59.4282 1.8303 59.46 1.7373 59.5198C1.6443 59.5795 1.57182 59.6644 1.52901 59.7637C1.48621 59.863 1.47501 59.9723 1.49683 60.0777C1.51865 60.1832 1.57251 60.28 1.6516 60.356C1.73069 60.432 1.83146 60.4838 1.94116 60.5048C2.05086 60.5257 2.16457 60.515 2.26791 60.4738C2.37124 60.4327 2.45956 60.363 2.52171 60.2737C2.58385 60.1843 2.61701 60.0792 2.61701 59.9717C2.61701 59.8275 2.55743 59.6893 2.45138 59.5874C2.34532 59.4854 2.20148 59.4282 2.05149 59.4282Z" fill="#333333"/>
<path d="M97.227 41.8342C96.6216 41.8356 96.0293 41.6643 95.5252 41.342C95.0211 41.0198 94.6278 40.561 94.3951 40.0238C94.1625 39.4866 94.1008 38.8951 94.2181 38.3243C94.3353 37.7534 94.6261 37.2288 95.0537 36.8169C95.4813 36.4049 96.0265 36.1242 96.6202 36.0101C97.2139 35.8961 97.8295 35.9539 98.389 36.1763C98.9485 36.3987 99.4268 36.7755 99.7633 37.2593C100.1 37.743 100.279 38.3118 100.279 38.8937C100.279 39.6723 99.9581 40.4192 99.3858 40.9705C98.8136 41.5217 98.0373 41.8324 97.227 41.8342ZM97.227 37.0053C96.8364 37.0039 96.4541 37.1141 96.1287 37.3218C95.8033 37.5296 95.5494 37.8255 95.3992 38.1721C95.2491 38.5187 95.2094 38.9004 95.2853 39.2687C95.3611 39.637 95.5491 39.9753 95.8253 40.2408C96.1016 40.5063 96.4536 40.687 96.8368 40.7599C97.2201 40.8328 97.6172 40.7946 97.9778 40.6503C98.3385 40.506 98.6464 40.262 98.8625 39.9493C99.0787 39.6365 99.1933 39.2691 99.1919 38.8937C99.19 38.3934 98.9823 37.9142 98.6143 37.5604C98.2462 37.2067 97.7476 37.0071 97.227 37.0053Z" fill="#333333"/>
<path d="M98.9437 33.7647C98.591 33.7647 98.2461 33.6641 97.9528 33.4758C97.6595 33.2874 97.4309 33.0197 97.2959 32.7065C97.1609 32.3933 97.1256 32.0486 97.1944 31.7161C97.2632 31.3836 97.4331 31.0782 97.6825 30.8385C97.932 30.5988 98.2498 30.4355 98.5958 30.3694C98.9417 30.3032 99.3004 30.3372 99.6263 30.4669C99.9522 30.5966 100.231 30.8163 100.427 31.0982C100.623 31.3801 100.727 31.7115 100.727 32.0505C100.727 32.2756 100.681 32.4985 100.592 32.7065C100.502 32.9145 100.371 33.1034 100.205 33.2626C100.039 33.4218 99.8427 33.548 99.6263 33.6342C99.4099 33.7203 99.1779 33.7647 98.9437 33.7647ZM98.9437 31.3816C98.8003 31.3816 98.6601 31.4225 98.5409 31.499C98.4217 31.5756 98.3288 31.6844 98.2739 31.8118C98.219 31.9391 98.2046 32.0792 98.2326 32.2143C98.2606 32.3495 98.3297 32.4737 98.4311 32.5711C98.5324 32.6686 98.6616 32.7349 98.8023 32.7618C98.9429 32.7887 99.0887 32.7749 99.2212 32.7222C99.3537 32.6694 99.4669 32.5801 99.5466 32.4655C99.6262 32.351 99.6688 32.2162 99.6688 32.0784C99.6688 31.8936 99.5924 31.7164 99.4564 31.5857C99.3204 31.455 99.136 31.3816 98.9437 31.3816Z" fill="#333333"/>
<path d="M90.1349 43.8682C89.6918 43.8682 89.2586 43.7419 88.8902 43.5054C88.5218 43.2688 88.2346 42.9325 88.0651 42.5391C87.8955 42.1456 87.8511 41.7127 87.9376 41.2951C88.024 40.8774 88.2374 40.4937 88.5507 40.1926C88.864 39.8915 89.2632 39.6865 89.6978 39.6034C90.1324 39.5203 90.5828 39.5629 90.9922 39.7259C91.4016 39.8889 91.7515 40.1648 91.9976 40.5189C92.2438 40.873 92.3752 41.2893 92.3752 41.7151C92.3752 42.2861 92.1392 42.8338 91.719 43.2376C91.2989 43.6414 90.7291 43.8682 90.1349 43.8682ZM90.1349 40.6072C89.9069 40.6072 89.684 40.6722 89.4944 40.7939C89.3048 40.9157 89.1571 41.0887 89.0698 41.2911C88.9826 41.4936 88.9597 41.7163 89.0042 41.9313C89.0487 42.1462 89.1585 42.3436 89.3197 42.4985C89.4809 42.6535 89.6864 42.759 89.91 42.8017C90.1336 42.8445 90.3654 42.8225 90.576 42.7387C90.7867 42.6548 90.9667 42.5128 91.0934 42.3306C91.2201 42.1484 91.2877 41.9342 91.2877 41.7151C91.2877 41.4213 91.1662 41.1395 90.95 40.9317C90.7338 40.7239 90.4406 40.6072 90.1349 40.6072Z" fill="#333333"/>
<path d="M48.2152 133.409C42.5851 125.865 39.8163 116.694 40.3703 107.425L41.4506 107.488C40.9155 116.516 43.6151 125.448 49.0997 132.796L48.2152 133.409Z" fill="#333333"/>
<path d="M42.116 104.77L41.043 104.603C41.3645 102.709 42.0165 100.881 42.9715 99.1953L43.9286 99.697C43.0305 101.277 42.4177 102.993 42.116 104.77Z" fill="#333333"/>
<path d="M42.5504 110.261C42.3594 108.162 42.7131 106.05 43.5799 104.115L44.5805 104.533C43.7834 106.307 43.457 108.244 43.6307 110.17L42.5504 110.261Z" fill="#333333"/>
</svg>
