<svg xmlns="http://www.w3.org/2000/svg" fill="none" viewBox="0 0 116 144"><path fill="#FFF4F4" d="M52.492 136.119c28.535 0 51.667-22.232 51.667-49.656 0-27.425-23.132-49.657-51.668-49.657C23.957 36.806.825 59.038.825 86.463c0 27.424 23.132 49.656 51.668 49.656z"/><path fill="#333" d="M57.342 143.086a3.71 3.71 0 0 1-2.494-.946 3.438 3.438 0 0 1-1.14-2.331L46.813 35.422H67.81l-6.887 104.394c-.01.199-.042.397-.097.589a3.45 3.45 0 0 1-1.259 1.921 3.694 3.694 0 0 1-2.226.76zM48.002 36.5l6.827 103.244c.034.614.316 1.192.785 1.61.323.29.72.493 1.15.589.43.096.878.082 1.3-.041a2.54 2.54 0 0 0 1.107-.66c.303-.309.515-.69.616-1.103.04-.126.063-.256.068-.388L66.675 36.5H48.002z"/><path fill="#333" d="M64.625 67.376s-.867-2.486-7.321-2.486-7.321 2.465-7.329 2.486l-1.077-.28c0-.137.973-3.285 8.406-3.285 7.433 0 8.368 3.148 8.406 3.285l-1.085.28zM50.698 38.822l-1.12.059.732 12.91 1.12-.058-.732-12.91zM51.429 55.172l-1.12.06.325 5.633 1.12-.06-.325-5.633zM67.722 35.864l-.98-.517c.098-.166 9.558-16.826 7.995-24.868-1.653-8.517-12.713-9.437-17.432-9.437-4.719 0-15.787.92-17.44 9.473-1.562 8.042 7.905 24.702 7.995 24.868l-.98.517c-.396-.719-9.722-17.163-8.121-25.586C40.62.747 53.424 0 57.305 0c3.881 0 16.684.719 18.538 10.314 1.638 8.387-7.717 24.853-8.121 25.55zM52.98 78.328l-1.12.063 2.278 37.079 1.12-.064-2.279-37.078zM36.187 140.836a55.126 55.126 0 0 1-6.266-.366c-4.936-.582-8.69-1.668-11.816-3.428-5.078-2.875-8.57-7.612-11.591-12.312l-.367-.582c-1.54-2.408-3.126-4.895-5.4-6.627L0 116.932l.912-.338a54.01 54.01 0 0 1 20.94-3.313 41.562 41.562 0 0 1 17.753 4.463c5.534 2.811 9.951 7.294 12.57 12.757l-1.024.431c-2.528-5.234-6.773-9.526-12.085-12.218a40.547 40.547 0 0 0-17.26-4.312A52.813 52.813 0 0 0 2.2 117.327c2.034 1.783 3.5 4.075 4.92 6.296l.367.582c2.946 4.586 6.341 9.2 11.217 11.945 2.991 1.689 6.603 2.731 11.382 3.292 8.271.963 15.951 0 22.203-2.796l.471.985a40.668 40.668 0 0 1-16.572 3.205z"/><path fill="#333" d="M51.143 135.849c-1.36-1.912-3.342-3.299-5.907-4.78-11.377-6.579-24.22-10.461-37.466-11.327l.074-1.071c13.426.882 26.441 4.824 37.967 11.5 2.334 1.351 4.697 2.875 6.26 5.096l-.928.582zM49.863 114.19c-.287-10.072-4.031-19.77-10.649-27.584-6.464-7.51-15.339-12.744-25.232-14.885 1.496 4.312 1.145 9.027.83 13.555-.12 1.74-.246 3.536-.269 5.268-.067 7.398 1.792 14.694 5.407 21.224l-.987.503c-3.685-6.692-5.572-14.163-5.49-21.734 0-1.768.15-3.593.27-5.333.337-4.736.68-9.63-1.092-14.007l-.374-.913 1.002.187c10.533 2.037 20.017 7.493 26.862 15.452 6.775 8 10.608 17.928 10.904 28.239l-1.182.028z"/><path fill="#333" d="M36.772 114.783a128.646 128.646 0 0 0-5.519-18.162 56.465 56.465 0 0 0-9.722-16.25l.853-.72a57.451 57.451 0 0 1 9.93 16.531 129.974 129.974 0 0 1 5.587 18.356l-1.13.245z"/><path fill="#333" d="M31.16 94.759l-11.547-5.261.486-.97 10.186 4.635 1.473-9.178 1.107.166-1.705 10.608zM36.051 109.213l-12.055-5.887.509-.963 10.918 5.333 3.769-10.198 1.054.359-4.195 11.356zM31.776 131.342l-.553-.941 6.693-3.579-3.253-6.21 1.002-.489 3.731 7.137-7.62 4.082zM19.048 126.778l-.493-.97 7.328-3.407-4.935-5.311.837-.719 5.923 6.382-8.66 4.025zM59.803 141.196l-.045-1.093c.02-.078.035-.157.045-.237v-.115l1.338-20.124L78.91 54.684l13.745 4.204-31.753 81.366c-.032.084-.07.165-.112.245l-.987.697zm2.453-21.368l-1.107 16.718 30.04-76.954-11.494-3.514-17.44 63.75z"/><path fill="#333" d="M82.972 83.67l-1.115-.101c0-.08.09-2.034-3.858-3.242-3.95-1.207-5.048.439-5.093.504l-.972-.54c.06-.1 1.533-2.486 6.408-.991 4.876 1.495 4.644 4.255 4.63 4.37zM75.947 71.196l-1.267 4.517 1.083.281 1.267-4.517-1.083-.281zM72.857 82.612l-5.447 19.617 1.084.278 5.446-19.618-1.083-.277zM92.118 59.758l-.388-1.007 14.328-5.131c-.202-2.25-1.817-13.757-13.46-17.329-11.644-3.572-19.908 4.938-21.426 6.656l8.607 12.146-.927.604-9.079-12.794.247-.309c.09-.115 9.25-11.5 22.906-7.33 13.655 4.168 14.299 18.564 14.299 18.686v.388l-15.106 5.42zM36.522 66.08a8.69 8.69 0 0 0-1.246-3.965 9.104 9.104 0 0 0-2.972-3l-.702-.446.702-.445a9.226 9.226 0 0 0 2.96-3.007 8.813 8.813 0 0 0 1.258-3.958h1.122a8.69 8.69 0 0 0 1.246 3.965 9.105 9.105 0 0 0 2.972 3l.703.445-.703.446A9.198 9.198 0 0 0 38.9 62.12a8.782 8.782 0 0 0-1.256 3.96h-1.122zm-2.946-7.41a10.04 10.04 0 0 1 3.507 4.657 10.04 10.04 0 0 1 3.507-4.658 10.04 10.04 0 0 1-3.507-4.657 10.04 10.04 0 0 1-3.507 4.657zM41.855 73.762c-.592 0-1.17-.169-1.662-.485a2.903 2.903 0 0 1-1.102-1.29 2.77 2.77 0 0 1-.17-1.66c.115-.558.4-1.07.818-1.473a3.031 3.031 0 0 1 1.532-.787 3.103 3.103 0 0 1 1.728.164 2.97 2.97 0 0 1 1.343 1.059c.328.473.504 1.028.504 1.597a2.82 2.82 0 0 1-.876 2.033 3.054 3.054 0 0 1-2.115.842zm0-4.636c-.367 0-.726.105-1.031.301a1.8 1.8 0 0 0-.684.801c-.14.326-.176.685-.104 1.031.072.346.25.664.51.912.26.25.591.419.951.487s.734.031 1.072-.105a1.84 1.84 0 0 0 .831-.66c.203-.293.31-.639.31-.992a1.72 1.72 0 0 0-.136-.688 1.779 1.779 0 0 0-.4-.586 1.86 1.86 0 0 0-.605-.392 1.92 1.92 0 0 0-.714-.138v.03zM43.508 66.313a1.8 1.8 0 0 1-.973-.284 1.698 1.698 0 0 1-.644-.754 1.622 1.622 0 0 1-.1-.972c.068-.326.235-.626.48-.861.244-.235.556-.396.895-.46.34-.065.692-.032 1.011.095.32.128.593.343.786.62.192.276.295.601.295.934 0 .446-.185.874-.513 1.19a1.787 1.787 0 0 1-1.237.492zm0-2.286a.647.647 0 0 0-.35.102.61.61 0 0 0-.23.271.582.582 0 0 0 .136.658.652.652 0 0 0 .685.13.623.623 0 0 0 .281-.222.587.587 0 0 0-.078-.762.641.641 0 0 0-.444-.177zM35.05 76.015c-.433 0-.856-.124-1.217-.355a2.126 2.126 0 0 1-.807-.945 2.029 2.029 0 0 1-.125-1.217c.085-.408.294-.784.6-1.078a2.22 2.22 0 0 1 1.122-.576c.425-.082.866-.04 1.266.12.4.159.743.429.983.775.241.346.37.754.37 1.17 0 .558-.231 1.094-.642 1.49-.411.394-.968.616-1.55.616zm0-3.127a1.1 1.1 0 0 0-.594.174 1.037 1.037 0 0 0-.394.463.991.991 0 0 0-.06.594c.042.2.145.383.295.526.15.144.342.241.55.28.207.039.423.018.618-.061.195-.08.362-.212.478-.382a1 1 0 0 0-.139-1.295 1.092 1.092 0 0 0-.754-.299zM59.849 139.888l4.315-11.026 23.84-37.747c.188-.237 1.07-1.092 3.53.432 2.244 1.401 2.004 2.565 1.93 2.781l-.068.137-32.642 45.868a.498.498 0 0 1-.297.242.526.526 0 0 1-.388-.03.492.492 0 0 1-.252-.285.47.47 0 0 1 .032-.372zm5.302-10.508l-2.46 6.296L92.364 93.99c0-.18-.202-.718-1.495-1.523-1.294-.805-1.877-.72-2.012-.72L65.151 129.38z"/><path fill="#333" d="M90.942 98.317l1.428-4.312s0-.618-1.496-1.545c-1.495-.927-2.034-.719-2.034-.683l-.867-.719 14.657-20.562 4.24 2.63-15.928 25.191zm-1.317-7.604c.671.173 1.306.455 1.877.834.602.347 1.13.801 1.556 1.337l12.287-19.406-2.386-1.545-13.334 18.78z"/><path fill="#333" d="M103.341 71.286l-1.114-.123c.052-.41 1.286-10.062 5.78-12.11 1.496-.668 3.126-.46 4.876.625l-.613.906c-1.421-.884-2.662-1.064-3.784-.553-3.934 1.782-5.13 11.183-5.145 11.255zM106.4 73.744l-.584-.92c.09-.05 8.481-4.973 8.548-9.156 0-1.194-.666-2.207-2.094-3.084l.613-.905c1.75 1.078 2.625 2.429 2.603 4.003-.075 4.78-8.72 9.854-9.086 10.062zM11.163 111.947a48.404 48.404 0 0 1-5.75-21.207 48.238 48.238 0 0 1 4.252-21.53c3.059-6.786 7.648-12.834 13.436-17.707 5.788-4.874 12.63-8.45 20.032-10.472l.306 1.035c-10.626 2.923-19.975 9.086-26.64 17.56C10.135 68.1 6.516 78.426 6.49 89.05c-.026 7.797 1.914 15.484 5.654 22.402l-.98.496zM65.254 138.688l-.172-1.064c24.521-3.594 43.015-24.365 43.015-48.248a47.525 47.525 0 0 0-1.256-10.838l1.091-.237a48.004 48.004 0 0 1 .385 20.318c-1.322 6.726-4.07 13.119-8.073 18.781-4.003 5.663-9.175 10.473-15.194 14.133a53.246 53.246 0 0 1-19.796 7.14v.015zM42.73 15.89a9.776 9.776 0 0 1-.114-4.369 9.964 9.964 0 0 1 1.807-4.01A10.448 10.448 0 0 1 47.816 4.6a10.888 10.888 0 0 1 4.35-1.272l.09 1.07a9.74 9.74 0 0 0-3.886 1.137 9.346 9.346 0 0 0-3.032 2.599 8.916 8.916 0 0 0-1.618 3.58 8.748 8.748 0 0 0 .093 3.904l-1.084.273zM44.224 17.978l-1.103.194.722 3.775 1.103-.195-.722-3.774zM91.543 42.832l-1.055-.36a41.607 41.607 0 0 0 1.421-4.635l1.092.252a42.01 42.01 0 0 1-1.458 4.743zM83.863 42.092H82.77a33.529 33.529 0 0 0-.232-4.061l1.114-.122c.156 1.389.226 2.786.21 4.183zM75.993 44.765a8.967 8.967 0 0 0-1.384-2.702l.905-.633a10.143 10.143 0 0 1 1.556 3.019l-1.077.316zM99.674 42.71l-3.197 2.451.7.843 3.197-2.452-.7-.843zM102.687 49.645l-2.84.906.354 1.023 2.839-.906-.353-1.023z"/></svg>