<svg xmlns="http://www.w3.org/2000/svg" fill="none" viewBox="0 0 110 115"><path fill="#FFF4F4" d="M51.23 97.657c26.633 0 47.55-21.077 46.72-47.075-.831-26-23.095-47.076-49.727-47.076-26.633 0-47.55 21.077-46.72 47.075.831 26 23.095 47.076 49.727 47.076z"/><path fill="#333" d="M33.385 95.431l-.052-.49-8.798-87.816L76.72 6.77l-.384 4.537-1.101-.085.288-3.38-49.768.34L34.39 94.36l33.782-.234 1.743-20.49 1.1.092-1.824 21.456-35.806.248z"/><path fill="#333" d="M38.736 109.515l-2.88-14.64 30.849-.212-2.652 14.675-7.04.049-.096-.418a4.7 4.7 0 0 0-.962-1.95 4.951 4.951 0 0 0-1.757-1.345 6.394 6.394 0 0 0-5.651.036c-.683.321-1.28.79-1.745 1.368a4.689 4.689 0 0 0-.937 1.969l-.096.419-7.032.049zm-1.543-13.582l2.46 12.51h5.237a5.805 5.805 0 0 1 1.172-2.138 6.08 6.08 0 0 1 1.968-1.504 7.54 7.54 0 0 1 6.648-.043 6.05 6.05 0 0 1 1.983 1.475c.547.618.953 1.34 1.194 2.118l5.245-.036 2.268-12.538-28.175.156z"/><path fill="#333" d="M39.724 114.541l-1.197-6.091 6.36-.043a5.805 5.805 0 0 1 1.173-2.138 6.08 6.08 0 0 1 1.967-1.504 7.539 7.539 0 0 1 6.649-.042c.76.353 1.435.855 1.982 1.474.547.618.954 1.34 1.194 2.118l6.368-.043-1.1 6.106-23.396.163zm.14-5.033l.776 3.961 21.57-.149.74-3.968-5.91.035-.096-.419a4.7 4.7 0 0 0-.962-1.95 4.936 4.936 0 0 0-1.757-1.344 6.38 6.38 0 0 0-2.83-.64 6.384 6.384 0 0 0-2.821.675 4.93 4.93 0 0 0-1.745 1.369 4.684 4.684 0 0 0-.937 1.968l-.096.419-5.932.043zM24.774 8.19L21.656.465l57.85-.397-3 7.767-51.732.355zm-1.478-6.674l2.26 5.602 50.234-.34 2.172-5.638-54.666.376zM56.935 29.91l-29.466.222.008 1.065 29.467-.222-.009-1.065zM67.981 70.127l-36.551.227.007 1.065 36.551-.227-.007-1.065zM59.715 66.654l-.067-.639A26.533 26.533 0 0 1 63.665 52.5c2.543-4.092 6.155-7.473 10.477-9.807 4.374-2.28 9.293-3.373 14.036-4.43 1.381-.306 2.755-.611 4.122-.945 4.898-1.207 11.886-3.386 16.001-8.399L110 26.84l-.739 2.549c-2.216 7.753-4.58 15.25-8.783 21.817-4.839 7.547-11.546 12.638-18.89 14.327-3.922.895-7.992.817-11.93.71a61.091 61.091 0 0 0-9.396.305l-.547.107zm47.862-35.37c-4.359 4.067-10.527 5.963-14.996 7.099-1.374.334-2.756.646-4.145.951-4.683 1.044-9.529 2.13-13.77 4.331-4.06 2.195-7.469 5.35-9.903 9.168a25.54 25.54 0 0 0-4.007 12.642 67.28 67.28 0 0 1 8.94-.234c3.87.078 7.867.156 11.649-.71C88.4 62.905 94.87 57.985 99.547 50.68c3.745-5.872 6.006-12.503 8.03-19.397z"/><path fill="#333" d="M57.816 61.429l-.162-.504c-2.401-7.37-3.103-14.484-2.083-21.143 1.167-7.569 4.66-14.384 9.854-19.17 5.651-5.268 13.379-8.05 20.684-7.461l1.87.156-1.655.845c-2.955 1.519-3.694 5.26-3.85 6.808-.117 1.1-.147 2.244-.176 3.351.02 1.76-.143 3.518-.488 5.247-.886 3.806-3.405 7.327-7.92 11.09-1.144.958-2.356 1.888-3.523 2.79a53.163 53.163 0 0 0-6.863 5.935c-3.25 3.55-4.83 7.647-4.343 11.225l.066.44-1.41.39zm26.336-47.327c-6.724.116-13.146 2.705-17.944 7.235-5.016 4.664-8.4 11.267-9.522 18.6a43.57 43.57 0 0 0 1.345 18.375c.44-3.621 2.073-7.012 4.66-9.677a54.56 54.56 0 0 1 6.99-6.07c1.159-.895 2.356-1.818 3.493-2.762 4.33-3.607 6.73-6.944 7.565-10.515.322-1.664.476-3.355.458-5.048 0-1.128.059-2.293.185-3.436.325-2.89 1.418-5.247 3.073-6.71l-.303.008zM63.519 63.68l-.288-1.03c14.527-3.807 27.641-11.48 37.83-22.137l.812.71c-10.33 10.807-23.624 18.59-38.354 22.456z"/><path fill="#333" d="M58.926 50.374l-1.086-.22c2.496-11.04 8.333-21.126 16.776-28.988l.739.767c-8.273 7.717-13.989 17.612-16.43 28.441z"/><path fill="#333" d="M65.508 32.873l.399-8.697 1.108.05-.325 7.071 7.875-2.91.398.993-9.455 3.493zM60.757 42.103l-.562-9.748 1.108-.063.466 8.008 7.49-4.217.562.923-9.064 5.097zM86.227 53.42l3.538-10.905 1.064.32-3.051 9.378 9.633-.837.103 1.058-11.287.986zM85.126 61.72l-13.15-1.143 5.393-12.709 1.027.405-4.831 11.374 11.664 1.015-.103 1.058zM28.676 90.667c-6.563-3.708-12.123-8.851-16.23-15.011-4.107-6.16-6.645-13.165-7.409-20.444-.763-7.28.27-14.63 3.015-21.454s7.126-12.93 12.786-17.823l.739.789c-5.53 4.784-9.807 10.753-12.486 17.423a43.861 43.861 0 0 0-2.935 20.967c.75 7.113 3.234 13.956 7.25 19.975 4.017 6.018 9.453 11.041 15.868 14.662l-.598.916zM72.038 93.938l-.429-.98c7.844-3.19 14.646-8.355 19.692-14.95 5.045-6.595 8.147-14.375 8.978-22.522l1.108.107c-.853 8.336-4.03 16.297-9.195 23.044S80.065 90.667 72.038 93.93v.007zM96.749 33.335c-2.535-5.81-6.31-11.044-11.081-15.364l.739-.781c4.892 4.422 8.767 9.778 11.376 15.726l-1.034.419z"/><path fill="#333" d="M12.18 65.063l-.975-.51a11.405 11.405 0 0 0 1.1-5.256 11.443 11.443 0 0 0-1.433-5.181l-.384-.71.828-.071c1.876-.16 3.689-.734 5.298-1.676a12.064 12.064 0 0 0 3.98-3.756l.975.504a11.393 11.393 0 0 0-1.104 5.26 11.43 11.43 0 0 0 1.436 5.184l.385.71-.828.071c-1.877.159-3.69.732-5.3 1.674a12.042 12.042 0 0 0-3.978 3.757zm0-10.756a12.205 12.205 0 0 1 .975 7.846 13.444 13.444 0 0 1 7.387-3.494 12.287 12.287 0 0 1-.982-7.852 13.388 13.388 0 0 1-7.35 3.5h-.03zM74.75 104.808l-.976-.511a9.54 9.54 0 0 0 .926-4.4 9.57 9.57 0 0 0-1.2-4.34l-.39-.71.827-.07a10.512 10.512 0 0 0 4.448-1.393 10.045 10.045 0 0 0 3.338-3.152l.975.512a9.541 9.541 0 0 0-.925 4.4c.047 1.516.457 3 1.198 4.34l.392.709-.828.071c-1.574.13-3.095.608-4.446 1.396a10.086 10.086 0 0 0-3.34 3.148zm.073-9.06a10.315 10.315 0 0 1 .835 6.327 11.47 11.47 0 0 1 5.976-2.783 10.322 10.322 0 0 1-.835-6.326 11.47 11.47 0 0 1-5.976 2.783zM18.252 46.974a2.477 2.477 0 0 1-1.176-.307 2.358 2.358 0 0 1-.868-.822 2.236 2.236 0 0 1 .544-2.956c.244-.19.526-.331.828-.416a2.417 2.417 0 0 1 1.817.184c.557.292.97.783 1.15 1.368a2.22 2.22 0 0 1-.19 1.75 2.3 2.3 0 0 1-.594.69 2.405 2.405 0 0 1-1.511.509zm0-3.55c-.225.002-.446.06-.64.17-.194.11-.355.267-.465.456a1.19 1.19 0 0 0 .017 1.232c.115.186.28.34.477.444a1.32 1.32 0 0 0 1.282-.023c.193-.112.351-.272.459-.461.16-.288.196-.624.1-.937a1.247 1.247 0 0 0-.617-.732 1.282 1.282 0 0 0-.606-.128l-.007-.02zM12.355 49.962c-.283 0-.562-.065-.812-.191a1.705 1.705 0 0 1-.6-.38c-.17-.165-.3-.364-.383-.583a1.573 1.573 0 0 1 .106-1.344c.116-.204.276-.382.47-.521.193-.14.415-.238.651-.289a1.769 1.769 0 0 1 1.373.277c.197.1.372.237.512.403a1.59 1.59 0 0 1-.25 2.296 1.724 1.724 0 0 1-.587.297 1.82 1.82 0 0 1-.48.035zm0-2.193a.617.617 0 0 0-.461.224.566.566 0 0 0-.108.486.566.566 0 0 0 .188.276.603.603 0 0 0 .653.068.555.555 0 0 0-.272-1.055zM12.815 44.73c-.282 0-.56-.068-.806-.199a1.684 1.684 0 0 1-.51-.406 1.61 1.61 0 0 1-.311-.564 1.572 1.572 0 0 1 .134-1.245c.106-.19.25-.357.423-.492a1.766 1.766 0 0 1 1.576-.291c.322.095.606.28.818.53a1.58 1.58 0 0 1 .175 1.808c-.146.26-.363.477-.627.628a1.76 1.76 0 0 1-.872.231zm0-2.208a.51.51 0 0 0-.17 0 .579.579 0 0 0-.348.27.55.55 0 0 0 .059.63.613.613 0 0 0 .915.006.557.557 0 0 0 .067-.63.58.58 0 0 0-.243-.233.614.614 0 0 0-.28-.043zM76.22 114.499a3.207 3.207 0 0 1-2.133-.822 2.97 2.97 0 0 1-.979-1.997 2.938 2.938 0 0 1 .698-2.103 3.173 3.173 0 0 1 2.002-1.084 3.235 3.235 0 0 1 2.233.517 3.013 3.013 0 0 1 1.27 1.839 2.919 2.919 0 0 1-.374 2.179 3.125 3.125 0 0 1-1.816 1.35 3.226 3.226 0 0 1-.902.121zm0-4.97a2.091 2.091 0 0 0-.584.085c-.521.149-.96.491-1.219.95-.259.459-.317.999-.163 1.5.155.501.51.922.988 1.171s1.04.305 1.56.156c.522-.149.96-.491 1.22-.951a1.91 1.91 0 0 0-.043-1.946 2.013 2.013 0 0 0-.748-.706 2.12 2.12 0 0 0-1.012-.259zM81.301 107.811a1.883 1.883 0 0 1-1.205-.431 1.75 1.75 0 0 1-.616-1.086 1.71 1.71 0 0 1 .274-1.207c.24-.358.605-.621 1.03-.74a1.936 1.936 0 0 1 1.396.142c.43.223.748.601.887 1.05.14.45.09.935-.14 1.349a1.845 1.845 0 0 1-1.626.923zm0-2.47a.653.653 0 0 0-.207 0 .733.733 0 0 0-.435.34.686.686 0 0 0-.058.532.716.716 0 0 0 .346.42.77.77 0 0 0 .561.057.735.735 0 0 0 .436-.341.687.687 0 0 0 .06-.533.72.72 0 0 0-.355-.419.758.758 0 0 0-.34-.056H81.3zM70.853 109.969c-.4 0-.793-.1-1.141-.291a2.272 2.272 0 0 1-.844-.794 2.156 2.156 0 0 1-.047-2.195c.146-.256.343-.482.58-.666a2.394 2.394 0 0 1 2.56-.221c.267.14.503.329.693.556.191.227.334.488.42.769a2.142 2.142 0 0 1-.19 1.692 2.21 2.21 0 0 1-.574.669 2.32 2.32 0 0 1-.8.403 2.276 2.276 0 0 1-.657.078zm0-3.379a1.117 1.117 0 0 0-.34.05 1.187 1.187 0 0 0-.738.553 1.127 1.127 0 0 0 .388 1.507 1.238 1.238 0 0 0 1.127.112c.183-.072.345-.186.472-.332a1.116 1.116 0 0 0 .23-1.067c-.041-.15-.113-.29-.212-.412a1.167 1.167 0 0 0-.365-.298 1.259 1.259 0 0 0-.562-.113zM32.5 34.15l-1.105.084 2.504 30.448 1.105-.084-2.505-30.448z"/></svg>