<svg xmlns="http://www.w3.org/2000/svg" fill="none" viewBox="0 0 117 110"><path fill="#FFF4F4" d="M49.48 101.624c21.788 0 39.45-16.975 39.45-37.915 0-20.94-17.662-37.914-39.45-37.914-21.786 0-39.449 16.975-39.449 37.914 0 20.94 17.663 37.915 39.45 37.915z"/><path fill="#333" d="M53.838 107.751H33.57V60.886h34.286v5.579H66.8v-4.563H34.627v44.833h19.21v1.016z"/><path fill="#333" d="M55.894 108.455l-.092-.616c-1.923-12.66 2.029-26.554 10.567-37.163 7.75-9.655 19.197-16.818 32.194-20.169l.93-.237-.296.887c-1.466 4.414-2.184 9.14-2.881 13.717-.951 6.235-1.938 12.68-4.826 18.463-3.008 6.019-8.277 11.51-15.251 15.957-6.53 4.117-13.639 6.839-19.725 8.951l-.62.21zm42.014-56.716c-12.392 3.385-23.248 10.312-30.7 19.56-8.229 10.223-12.11 23.547-10.448 35.775 5.897-2.031 12.68-4.706 18.894-8.626 6.812-4.32 11.976-9.695 14.885-15.572 2.818-5.64 3.79-12.01 4.727-18.172a90.965 90.965 0 0 1 2.642-12.965z"/><path fill="#333" d="M66.749 109.714a47.362 47.362 0 0 1-6.784-.48l.155-1.002c9.59 1.356 19.381-.259 27.953-4.611 5.354-2.708 10.137-6.52 14.793-10.156a122.138 122.138 0 0 1 10.856-7.962 34.323 34.323 0 0 0-21.479.677l-.38-.947a35.365 35.365 0 0 1 23.247-.36l1.035.353-.929.555a115.807 115.807 0 0 0-11.68 8.463c-4.671 3.697-9.504 7.515-14.942 10.298a48.319 48.319 0 0 1-21.845 5.172zM61.402 61.002h-1.057V1.063c-11.081.298-16.85-.318-19.464 10.961l-.204 48.977h-.853V11.706l.092-.128C42.438.405 48.25.068 60.873.068h.529v60.934z"/><path fill="#333" d="M42.115 12.047l-.048-1.003c.098.008 10.17-.613 16.222-7.172l.786.678c-6.358 6.88-16.527 7.487-16.96 7.497zM43.608 33.344H42.55v11.672h1.056V33.344zM46.186 38.523h-1.057v2.6h1.057v-2.6zM41.67 104.21h-4.608V67.528h1.057v35.666h3.55v1.016zM98.866 45.131c-2.245-8.094-6.683-15.472-12.86-21.381-6.177-5.91-13.874-10.14-22.307-12.261l.268-.982C72.58 12.677 80.44 17 86.752 23.035c6.31 6.036 10.845 13.571 13.142 21.839l-1.028.257zM30.44 101.475C21.028 97.387 13.15 90.617 7.873 82.082 2.595 73.548.175 63.661.939 53.76c.764-9.9 4.676-19.336 11.205-27.029 6.53-7.693 15.361-13.271 25.299-15.98l.289.975C27.998 14.372 19.347 19.83 12.95 27.36 6.553 34.891 2.72 44.13 1.973 53.825c-.749 9.695 1.623 19.376 6.794 27.732 5.17 8.355 12.89 14.98 22.11 18.977l-.436.941zM58.899 104.637l-.93-.481c8.966-16.06 19.856-31.056 32.447-44.685l.79.677c-12.537 13.57-23.379 28.5-32.307 44.489z"/><path fill="#333" d="M18.43 59.018h-1.056a8.924 8.924 0 0 0-1.263-3.984 9.34 9.34 0 0 0-2.964-3.037l-.655-.42.655-.427a9.335 9.335 0 0 0 2.963-3.034 8.92 8.92 0 0 0 1.264-3.98h1.057a8.896 8.896 0 0 0 1.261 3.981 9.314 9.314 0 0 0 2.965 3.033l.663.427-.663.44a9.321 9.321 0 0 0-2.961 3.027 8.906 8.906 0 0 0-1.265 3.974zm-4.106-7.448a10.12 10.12 0 0 1 3.578 4.78 10.025 10.025 0 0 1 3.58-4.78 10.058 10.058 0 0 1-3.58-4.78 10.18 10.18 0 0 1-3.585 4.787l.007-.007zM22.655 66.668a3.037 3.037 0 0 1-1.64-.478 2.864 2.864 0 0 1-1.088-1.275 2.734 2.734 0 0 1-.167-1.64c.115-.55.397-1.055.81-1.452.414-.396.94-.666 1.513-.775a3.063 3.063 0 0 1 1.706.164c.54.216 1 .58 1.323 1.048a2.759 2.759 0 0 1-.37 3.582c-.275.263-.6.47-.958.613a3.047 3.047 0 0 1-1.13.213zm0-4.651a1.95 1.95 0 0 0-1.053.307 1.84 1.84 0 0 0-.698.817 1.755 1.755 0 0 0-.108 1.053 1.8 1.8 0 0 0 .519.932c.265.255.602.428.97.498s.749.035 1.095-.103.642-.371.85-.671a1.77 1.77 0 0 0-.233-2.302 1.894 1.894 0 0 0-.616-.394 1.955 1.955 0 0 0-.726-.137zM24.34 58.896c-.342 0-.676-.097-.96-.28a1.674 1.674 0 0 1-.635-.744 1.598 1.598 0 0 1-.099-.958 1.64 1.64 0 0 1 .473-.85 1.75 1.75 0 0 1 .884-.453 1.79 1.79 0 0 1 .997.094c.315.125.585.338.774.61.19.274.291.594.291.922 0 .44-.182.862-.505 1.173a1.762 1.762 0 0 1-1.22.486zm0-2.302a.686.686 0 0 0-.359.123.646.646 0 0 0-.23.29.62.62 0 0 0 .151.684.696.696 0 0 0 .712.146.667.667 0 0 0 .302-.222.627.627 0 0 0-.067-.833.671.671 0 0 0-.51-.188zM15.853 68.639c-.43.001-.85-.12-1.208-.348a2.106 2.106 0 0 1-.802-.935 2.01 2.01 0 0 1-.126-1.205 2.06 2.06 0 0 1 .592-1.07c.303-.292.69-.491 1.11-.572.422-.081.858-.04 1.255.117.397.158.736.425.975.768s.366.747.366 1.16c0 .551-.227 1.08-.633 1.472-.405.39-.955.611-1.53.613zm0-3.148c-.221-.002-.437.06-.621.177a1.08 1.08 0 0 0-.413.48 1.031 1.031 0 0 0-.066.62c.043.207.15.399.306.549.156.15.355.252.571.293.217.04.441.019.645-.063.203-.082.377-.22.499-.397a1.04 1.04 0 0 0-.14-1.348 1.13 1.13 0 0 0-.781-.311zM73.427 33.283a8.901 8.901 0 0 0-1.288-3.977 9.32 9.32 0 0 0-2.989-3.016l-.662-.427.662-.42a9.313 9.313 0 0 0 2.967-3.036 8.897 8.897 0 0 0 1.26-3.985h1.057a8.912 8.912 0 0 0 1.261 3.985 9.328 9.328 0 0 0 2.966 3.036l.655.42-.655.427a9.273 9.273 0 0 0-2.97 3.03 8.858 8.858 0 0 0-1.257 3.984l-1.007-.02zm-3.05-7.447a10.058 10.058 0 0 1 3.578 4.78 10.18 10.18 0 0 1 3.579-4.78 10.086 10.086 0 0 1-3.58-4.78 9.998 9.998 0 0 1-3.578 4.78zM78.752 40.934a3.037 3.037 0 0 1-1.64-.478 2.865 2.865 0 0 1-1.087-1.273 2.734 2.734 0 0 1-.168-1.64c.114-.55.395-1.055.808-1.452a2.99 2.99 0 0 1 1.512-.776 3.063 3.063 0 0 1 1.705.161c.54.215 1 .578 1.325 1.045a2.76 2.76 0 0 1 .497 1.576 2.789 2.789 0 0 1-.866 2.004 3.02 3.02 0 0 1-2.085.833zm0-4.651a1.95 1.95 0 0 0-1.053.307 1.84 1.84 0 0 0-.698.818c-.143.334-.18.7-.107 1.054a1.8 1.8 0 0 0 .521.932c.266.255.604.427.972.497s.75.032 1.096-.106a1.88 1.88 0 0 0 .849-.674c.207-.3.317-.653.316-1.014a1.787 1.787 0 0 0-.558-1.283 1.935 1.935 0 0 0-1.338-.531zM80.421 33.154c-.341 0-.675-.097-.959-.279a1.675 1.675 0 0 1-.635-.745 1.6 1.6 0 0 1-.099-.958 1.64 1.64 0 0 1 .473-.85c.241-.231.549-.39.884-.453a1.79 1.79 0 0 1 .997.094c.315.126.585.338.774.611.19.273.291.594.291.922 0 .44-.182.862-.505 1.173a1.762 1.762 0 0 1-1.22.486zm0-2.295a.686.686 0 0 0-.362.125.647.647 0 0 0-.231.296.62.62 0 0 0 .17.69.693.693 0 0 0 .727.12.662.662 0 0 0 .293-.239.625.625 0 0 0-.103-.818.675.675 0 0 0-.494-.174zM71.92 42.897c-.427 0-.845-.122-1.201-.35a2.1 2.1 0 0 1-.797-.933 2.003 2.003 0 0 1-.123-1.2c.084-.404.29-.774.592-1.065a2.19 2.19 0 0 1 1.108-.569c.42-.08.854-.039 1.25.118.394.158.732.424.97.766.237.342.364.744.364 1.155a2.045 2.045 0 0 1-.635 1.467c-.405.39-.954.61-1.527.611zm0-3.141c-.218 0-.432.062-.614.179a1.073 1.073 0 0 0-.407.477 1.024 1.024 0 0 0-.063.614c.042.206.148.396.302.544.155.149.352.25.567.291.214.041.437.02.639-.06s.375-.217.496-.392a1.034 1.034 0 0 0-.137-1.342 1.13 1.13 0 0 0-.782-.311zM61.41 99.044l.141-10.243 1.057.013-.12 8.809 10.377-3.386.338.962-11.793 3.845zM69.7 86.12l1.035-15.071 1.05.06-.93 13.603 15.152-4.503.31.968L69.7 86.12zM80.973 71.198l1.437-11.422 1.05.122-1.226 9.729 9.362-3.541.387.941-11.01 4.17zM81.268 104.074l-.374-.954a51.09 51.09 0 0 0 11.709-5.945l.613.826a52.2 52.2 0 0 1-11.948 6.073zM99.403 92.608l-3.739 2.516.606.832 3.739-2.516-.606-.832z"/></svg>