<svg xmlns="http://www.w3.org/2000/svg" fill="none" viewBox="0 0 188 175"><path fill="#FFEBEB" d="M53.217 28.46c1.825-1.884 3.13-2.233 3.913-1.05 1.102.635.682 1.677-1.26 3.127C43.063 41.869 33.764 54.12 27.973 67.29c-5.472 12.62-6.93 23.7-4.375 33.238 1.046 3.903 3.323 6.313 6.831 7.232 3.827.369 9.393.272 16.698-.291 11.334-1.178 20.567-.632 27.7 1.64 7.132 2.271 12.093 8.61 14.881 19.016 2.091 7.805-.281 16.341-7.118 25.609-6.518 8.717-16.299 14.824-29.342 18.318-13.478 3.612-24.508 3.314-33.091-.892-8.7-4.64-14.327-11.73-16.883-21.269-5.46-20.379-3.065-41.004 7.186-61.875 10.57-21.422 24.822-41.274 42.757-59.557zm97.172-26.038c1.826-1.883 3.347-2.29 4.565-1.223 1.102.634.682 1.676-1.259 3.126-12.924 10.898-22.281 22.932-28.072 36.102-5.356 13.054-6.756 24.35-4.2 33.89 1.046 3.902 3.323 6.312 6.831 7.231 3.826.369 9.392.272 16.697-.291 11.334-1.178 20.35-.574 27.048 1.814 7.016 1.838 11.977 8.177 14.881 19.017 2.092 7.805-.281 16.341-7.118 25.609-6.518 8.717-16.298 14.823-29.342 18.318-13.478 3.612-24.508 3.314-33.091-.892-8.699-4.64-14.327-11.73-16.883-21.269-5.46-20.379-3.065-41.004 7.186-61.876 10.57-21.421 24.822-41.273 42.757-59.556z"/></svg>