<svg width="124" height="145" viewBox="0 0 124 145" fill="none" xmlns="http://www.w3.org/2000/svg">
<path d="M76.3612 140.988C102.229 140.988 123.199 120.93 123.199 96.1871C123.199 71.444 102.229 51.3857 76.3612 51.3857C50.4934 51.3857 29.5234 71.444 29.5234 96.1871C29.5234 120.93 50.4934 140.988 76.3612 140.988Z" fill="#FFF4F4"/>
<path d="M58.6016 144.545L58.9926 143.691C59.9614 141.537 60.6244 139.267 60.9638 136.943C61.2786 134.963 61.4609 132.965 61.5096 130.962V129.725C61.5096 128.418 61.5096 127.11 61.5096 125.811C61.4293 122.432 61.568 119.051 61.925 115.688C62.7619 109.215 65.179 103.024 68.9792 97.6198C72.1071 93.1888 76.1718 89.1727 82.1589 84.5851C83.8939 83.2542 85.7512 81.8999 88.0238 80.3028C88.8872 79.6922 89.7507 79.0816 90.6223 78.4788C97.4402 73.7033 104.47 68.7634 109.732 62.524L110.547 61.5532L110.799 62.7745C112.085 69.5441 112.902 76.3884 113.243 83.2621C113.642 89.1414 113.911 94.4414 113.243 99.7884C111.54 112.406 104.917 123.931 94.7114 132.035C84.7651 139.873 72.3732 144.283 59.5139 144.56L58.6016 144.545ZM109.919 64.2071C104.674 70.1099 97.9371 74.8306 91.4124 79.4104L88.8058 81.2345C86.5494 82.8002 84.7329 84.1702 82.9898 85.4854C77.1004 89.9947 73.109 93.9325 70.0544 98.2618C66.3633 103.512 64.016 109.526 63.2039 115.814C62.8529 119.129 62.7169 122.463 62.7966 125.795C62.7966 127.11 62.7966 128.433 62.7966 129.756V130.993C62.747 133.046 62.5592 135.094 62.2345 137.123C61.9163 139.242 61.3506 141.319 60.5484 143.316C72.7996 142.862 84.5624 138.58 94.0516 131.119C104.015 123.205 110.481 111.951 112.143 99.6318C112.787 94.3866 112.51 89.1414 112.143 83.3169C111.79 76.91 111.042 70.5289 109.903 64.2071H109.919Z" fill="#333333"/>
<path d="M67.2208 139.37L66.4062 138.501C73.3219 132.466 76.7839 123.627 80.1317 115.078C80.9056 113.09 81.712 111.038 82.5347 109.097C86.5587 99.5851 92.6843 87.6698 104.39 79.9116L105.09 80.8746C93.6455 88.4605 87.6339 100.18 83.667 109.535C82.8524 111.469 82.0867 113.45 81.2721 115.493C77.8835 124.167 74.3727 133.139 67.2208 139.37Z" fill="#333333"/>
<path d="M88.5 97.8942V84.8594H89.7219V96.2345L104.547 91.1693L104.954 92.281L88.5 97.8942Z" fill="#333333"/>
<path d="M79.5627 117.56L75.9297 97.7768L77.1352 97.5732L80.5157 116.01L100.155 109.575L100.546 110.686L79.5627 117.56Z" fill="#333333"/>
<path d="M71.506 133.883L68.5898 115.157L69.7954 114.984L72.4835 132.2L90.6728 124.7L91.1616 125.772L71.506 133.883Z" fill="#333333"/>
<path d="M13.2887 73.1477H12.0669C11.9272 71.1885 11.3187 69.2867 10.2887 67.5907C9.25863 65.8946 7.83497 64.4501 6.12864 63.3697L5.37109 62.8765L6.12864 62.4303C7.83213 61.3465 9.25262 59.8998 10.2797 58.2026C11.3068 56.5054 11.9128 54.6034 12.0506 52.6445H13.2724C13.4121 54.6048 14.0205 56.5077 15.0505 58.205C16.0805 59.9023 17.5041 61.3482 19.2106 62.4303L19.9763 62.9157L19.2106 63.4089C17.5125 64.487 16.0953 65.9261 15.0684 67.6148C14.0415 69.3035 13.4326 71.1966 13.2887 73.1477ZM7.54599 62.8765C9.98034 64.6155 11.7773 67.0525 12.6778 69.8362C13.585 67.0536 15.384 64.6178 17.8177 62.8765C15.3719 61.14 13.5611 58.7036 12.6452 55.9169C11.7534 58.6963 9.96823 61.1328 7.54599 62.8765Z" fill="#333333"/>
<path d="M102.785 22.5983C102.667 20.9601 102.158 19.3701 101.298 17.9514C100.438 16.5327 99.2489 15.3234 97.824 14.4173L97.0664 13.9241L97.824 13.4387C99.2453 12.5346 100.432 11.3289 101.292 9.91465C102.152 8.50035 102.663 6.91517 102.785 5.28125H104.007C104.122 6.919 104.629 8.50906 105.488 9.92791C106.347 11.3468 107.535 12.5562 108.959 13.4622L109.725 13.9476L108.959 14.4408C107.532 15.3438 106.342 16.5524 105.482 17.9719C104.623 19.3914 104.118 20.983 104.007 22.6218L102.785 22.5983ZM99.2169 13.8928C101.159 15.3131 102.615 17.26 103.396 19.4825C104.176 17.26 105.632 15.3131 107.574 13.8928C105.631 12.477 104.175 10.5322 103.396 8.31095C102.617 10.5322 101.161 12.477 99.2169 13.8928Z" fill="#333333"/>
<path d="M8.11835 53.2004C7.60281 53.2004 7.09884 53.0534 6.67018 52.7782C6.24153 52.5029 5.90743 52.1116 5.71014 51.6539C5.51285 51.1961 5.46123 50.6924 5.56181 50.2064C5.66238 49.7204 5.91064 49.2741 6.27518 48.9237C6.63973 48.5733 7.10418 48.3347 7.60982 48.2381C8.11546 48.1414 8.63957 48.191 9.11587 48.3806C9.59217 48.5703 9.99926 48.8914 10.2857 49.3033C10.5721 49.7153 10.725 50.1997 10.725 50.6952C10.725 51.3596 10.4504 51.9968 9.96152 52.4666C9.47268 52.9364 8.80967 53.2004 8.11835 53.2004ZM8.11835 49.3643C7.84447 49.3643 7.57674 49.4423 7.34901 49.5886C7.12129 49.7348 6.9438 49.9427 6.83899 50.1858C6.73418 50.429 6.70675 50.6966 6.76019 50.9548C6.81362 51.213 6.9455 51.4501 7.13916 51.6362C7.33283 51.8224 7.57957 51.9491 7.84819 52.0005C8.11681 52.0518 8.39525 52.0255 8.64828 51.9247C8.90131 51.824 9.11759 51.6534 9.26975 51.4346C9.42191 51.2157 9.50312 50.9584 9.50312 50.6952C9.50312 50.3422 9.35723 50.0037 9.09753 49.7541C8.83784 49.5045 8.48562 49.3643 8.11835 49.3643Z" fill="#333333"/>
<path d="M4.50141 58.8916C4.1357 58.8916 3.7782 58.7874 3.47412 58.5921C3.17004 58.3968 2.93305 58.1193 2.79309 57.7946C2.65314 57.4699 2.61653 57.1125 2.68787 56.7678C2.75922 56.4231 2.93532 56.1064 3.19392 55.8579C3.45252 55.6094 3.78199 55.4401 4.14067 55.3715C4.49936 55.303 4.87114 55.3382 5.20901 55.4727C5.54689 55.6072 5.83567 55.835 6.03885 56.1272C6.24203 56.4194 6.35047 56.763 6.35047 57.1145C6.35047 57.5858 6.15566 58.0378 5.8089 58.3711C5.46213 58.7044 4.99181 58.8916 4.50141 58.8916ZM4.50141 56.543C4.37736 56.543 4.25609 56.5784 4.15295 56.6446C4.0498 56.7108 3.96941 56.805 3.92194 56.9151C3.87446 57.0253 3.86204 57.1465 3.88625 57.2634C3.91045 57.3803 3.97018 57.4877 4.0579 57.5721C4.14562 57.6564 4.25737 57.7138 4.37904 57.737C4.50071 57.7603 4.62682 57.7484 4.74143 57.7027C4.85604 57.6571 4.954 57.5798 5.02292 57.4807C5.09184 57.3816 5.12862 57.265 5.12862 57.1458C5.13305 57.0641 5.1201 56.9823 5.09057 56.9055C5.06104 56.8287 5.01554 56.7585 4.95685 56.6992C4.89816 56.6398 4.82751 56.5926 4.74921 56.5604C4.6709 56.5282 4.58659 56.5116 4.50141 56.5117V56.543Z" fill="#333333"/>
<path d="M2.05642 53.6705C1.68875 53.6705 1.32936 53.5656 1.02376 53.3691C0.718171 53.1726 0.480133 52.8934 0.339807 52.5668C0.199481 52.2402 0.163183 51.8809 0.235507 51.5344C0.30783 51.188 0.485521 50.8699 0.746073 50.6206C1.00663 50.3713 1.33831 50.2019 1.69911 50.1339C2.05991 50.0659 2.43359 50.1024 2.77281 50.2387C3.11203 50.375 3.40151 50.605 3.60461 50.8996C3.8077 51.1941 3.91525 51.54 3.91364 51.8934C3.91364 52.1274 3.86554 52.3591 3.77211 52.5752C3.67868 52.7914 3.54175 52.9876 3.36918 53.1527C3.19661 53.3179 2.99181 53.4486 2.76653 53.5374C2.54125 53.6263 2.29993 53.6715 2.05642 53.6705ZM2.05642 51.2827C1.93075 51.2827 1.80792 51.3185 1.70343 51.3856C1.59895 51.4527 1.51751 51.5481 1.46942 51.6597C1.42133 51.7713 1.40874 51.894 1.43326 52.0125C1.45778 52.1309 1.51829 52.2398 1.60715 52.3252C1.696 52.4106 1.80922 52.4687 1.93247 52.4923C2.05571 52.5158 2.18346 52.5037 2.29956 52.4575C2.41566 52.4113 2.51489 52.333 2.5847 52.2326C2.65452 52.1322 2.69178 52.0141 2.69178 51.8934C2.69178 51.7314 2.62484 51.5761 2.50569 51.4616C2.38654 51.3471 2.22493 51.2827 2.05642 51.2827Z" fill="#333333"/>
<path d="M108.985 31.5151C108.304 31.5166 107.639 31.3242 107.073 30.9621C106.506 30.6001 106.064 30.0846 105.803 29.4811C105.542 28.8776 105.472 28.2131 105.604 27.5717C105.736 26.9303 106.063 26.3409 106.543 25.8781C107.023 25.4153 107.636 25.0999 108.303 24.9718C108.97 24.8437 109.662 24.9086 110.29 25.1585C110.919 25.4083 111.456 25.8317 111.834 26.3752C112.212 26.9186 112.414 27.5577 112.414 28.2114C112.414 29.0862 112.053 29.9253 111.41 30.5447C110.767 31.164 109.895 31.513 108.985 31.5151ZM108.985 26.0898C108.546 26.0883 108.116 26.2121 107.751 26.4454C107.385 26.6788 107.1 27.0113 106.931 27.4007C106.762 27.7901 106.718 28.2189 106.803 28.6327C106.888 29.0465 107.1 29.4266 107.41 29.7249C107.72 30.0232 108.116 30.2262 108.546 30.3081C108.977 30.39 109.423 30.3471 109.828 30.185C110.233 30.0229 110.579 29.7487 110.822 29.3974C111.065 29.046 111.194 28.6332 111.192 28.2114C111.19 27.6494 110.957 27.1109 110.543 26.7135C110.13 26.3161 109.569 26.0919 108.985 26.0898Z" fill="#333333"/>
<path d="M110.914 22.4493C110.518 22.4493 110.13 22.3363 109.801 22.1247C109.471 21.9131 109.214 21.6123 109.063 21.2604C108.911 20.9085 108.871 20.5213 108.949 20.1478C109.026 19.7742 109.217 19.431 109.497 19.1617C109.777 18.8924 110.134 18.709 110.523 18.6347C110.912 18.5604 111.315 18.5985 111.681 18.7442C112.047 18.89 112.36 19.1368 112.58 19.4535C112.8 19.7702 112.918 20.1426 112.918 20.5235C112.918 20.7764 112.866 21.0268 112.765 21.2604C112.665 21.4941 112.517 21.7064 112.331 21.8852C112.145 22.064 111.924 22.2059 111.681 22.3027C111.438 22.3994 111.177 22.4493 110.914 22.4493ZM110.914 19.7719C110.753 19.7719 110.595 19.8178 110.461 19.9039C110.327 19.9899 110.223 20.1121 110.161 20.2552C110.1 20.3982 110.084 20.5556 110.115 20.7075C110.147 20.8593 110.224 20.9988 110.338 21.1083C110.452 21.2178 110.597 21.2924 110.755 21.3226C110.913 21.3528 111.077 21.3373 111.226 21.278C111.375 21.2188 111.502 21.1184 111.591 20.9897C111.681 20.861 111.729 20.7096 111.729 20.5548C111.729 20.3472 111.643 20.148 111.49 20.0012C111.337 19.8544 111.13 19.7719 110.914 19.7719Z" fill="#333333"/>
<path d="M101.017 33.8004C100.519 33.8004 100.033 33.6585 99.6186 33.3927C99.2047 33.1269 98.8821 32.7491 98.6916 32.3071C98.5011 31.8651 98.4512 31.3787 98.5484 30.9095C98.6455 30.4402 98.8852 30.0092 99.2372 29.6709C99.5892 29.3326 100.038 29.1022 100.526 29.0089C101.014 28.9156 101.52 28.9634 101.98 29.1465C102.44 29.3296 102.833 29.6397 103.11 30.0375C103.386 30.4353 103.534 30.903 103.534 31.3814C103.534 32.023 103.269 32.6382 102.797 33.0919C102.325 33.5455 101.685 33.8004 101.017 33.8004ZM101.017 30.1367C100.761 30.1367 100.51 30.2097 100.297 30.3465C100.084 30.4832 99.9185 30.6776 99.8204 30.9051C99.7224 31.1325 99.6968 31.3828 99.7467 31.6242C99.7967 31.8657 99.9201 32.0875 100.101 32.2616C100.282 32.4356 100.513 32.5542 100.764 32.6022C101.016 32.6502 101.276 32.6256 101.513 32.5314C101.749 32.4372 101.952 32.2776 102.094 32.0729C102.236 31.8682 102.312 31.6276 102.312 31.3814C102.312 31.0513 102.176 30.7347 101.933 30.5012C101.69 30.2678 101.361 30.1367 101.017 30.1367Z" fill="#333333"/>
<g clip-path="url(#clip0)">
<path fill-rule="evenodd" clip-rule="evenodd" d="M41.9847 18.1921C32.7916 18.1921 25.2453 25.7384 25.2453 34.9315V126.652C25.2453 128.116 26.4476 129.381 27.9741 129.381H56.8099C57.1473 129.381 57.4208 129.654 57.4208 129.992C57.4208 130.329 57.1473 130.603 56.8099 130.603H27.9741C25.7535 130.603 24.0234 128.772 24.0234 126.652V34.9315C24.0234 25.0636 32.1168 16.9702 41.9847 16.9702H70.0873C79.9552 16.9702 88.0486 25.0636 88.0486 34.9315V75.8229C88.0486 76.1603 87.7751 76.4338 87.4377 76.4338C87.1003 76.4338 86.8267 76.1603 86.8267 75.8229V34.9315C86.8267 25.7384 79.2804 18.1921 70.0873 18.1921H41.9847Z" fill="#333333"/>
<path fill-rule="evenodd" clip-rule="evenodd" d="M48.664 1.49334C46.1504 1.49334 44.0617 3.58207 44.0617 6.09566V16.9702H68.2544V6.09566C68.2544 3.58207 66.1657 1.49334 63.6521 1.49334H48.664ZM42.8398 6.09566C42.8398 2.90726 45.4756 0.271484 48.664 0.271484H63.6521C66.8405 0.271484 69.4763 2.90726 69.4763 6.09566V17.5811C69.4763 17.9185 69.2027 18.192 68.8653 18.192H43.4508C43.1134 18.192 42.8398 17.9185 42.8398 17.5811V6.09566Z" fill="#333333"/>
<path fill-rule="evenodd" clip-rule="evenodd" d="M28.7086 53.8701C29.046 53.8701 29.3195 54.1436 29.3195 54.481V58.0651C29.3195 58.4025 29.046 58.6761 28.7086 58.6761C28.3712 58.6761 28.0977 58.4025 28.0977 58.0651V54.481C28.0977 54.1436 28.3712 53.8701 28.7086 53.8701Z" fill="#333333"/>
<path fill-rule="evenodd" clip-rule="evenodd" d="M28.7086 60.8755C29.046 60.8755 29.3195 61.149 29.3195 61.4864V125.919C29.3195 126.256 29.046 126.53 28.7086 126.53C28.3712 126.53 28.0977 126.256 28.0977 125.919V61.4864C28.0977 61.149 28.3712 60.8755 28.7086 60.8755Z" fill="#333333"/>
<path fill-rule="evenodd" clip-rule="evenodd" d="M41.9861 22.2648C34.9923 22.2648 29.3195 27.9377 29.3195 34.9314V50.734C29.3195 51.0714 29.046 51.345 28.7086 51.345C28.3712 51.345 28.0977 51.0714 28.0977 50.734V34.9314C28.0977 27.2628 34.3175 21.043 41.9861 21.043C42.3235 21.043 42.597 21.3165 42.597 21.6539C42.597 21.9913 42.3235 22.2648 41.9861 22.2648Z" fill="#333333"/>
<path fill-rule="evenodd" clip-rule="evenodd" d="M46.8726 5.81055C47.2101 5.81055 47.4836 6.08407 47.4836 6.42147V14.9745C47.4836 15.3119 47.2101 15.5854 46.8726 15.5854C46.5352 15.5854 46.2617 15.3119 46.2617 14.9745V6.42147C46.2617 6.08407 46.5352 5.81055 46.8726 5.81055Z" fill="#333333"/>
<path fill-rule="evenodd" clip-rule="evenodd" d="M50.7014 41.4885C46.495 41.4885 43.0851 44.8984 43.0851 49.1047C43.0851 53.311 46.495 56.7209 50.7014 56.7209C54.9077 56.7209 58.3176 53.311 58.3176 49.1047C58.3176 44.8984 54.9077 41.4885 50.7014 41.4885ZM41.8633 49.1047C41.8633 44.2235 45.8202 40.2666 50.7014 40.2666C55.5825 40.2666 59.5394 44.2235 59.5394 49.1047C59.5394 53.9858 55.5825 57.9428 50.7014 57.9428C45.8202 57.9428 41.8633 53.9858 41.8633 49.1047Z" fill="#333333"/>
<path fill-rule="evenodd" clip-rule="evenodd" d="M50.0898 44.1358C50.0898 43.7984 50.3634 43.5249 50.7008 43.5249C53.8077 43.5249 56.2806 45.9978 56.2806 49.1047C56.2806 49.4421 56.007 49.7156 55.6696 49.7156C55.3322 49.7156 55.0587 49.4421 55.0587 49.1047C55.0587 46.6726 53.1329 44.7468 50.7008 44.7468C50.3634 44.7468 50.0898 44.4732 50.0898 44.1358Z" fill="#333333"/>
<path fill-rule="evenodd" clip-rule="evenodd" d="M42.6376 69.4284C39.556 69.4284 37.0578 71.9266 37.0578 75.0082C37.0578 78.0898 39.556 80.588 42.6376 80.588C45.7192 80.588 48.2174 78.0898 48.2174 75.0082C48.2174 71.9266 45.7192 69.4284 42.6376 69.4284ZM35.8359 75.0082C35.8359 71.2517 38.8811 68.2065 42.6376 68.2065C46.394 68.2065 49.4392 71.2517 49.4392 75.0082C49.4392 78.7647 46.394 81.8099 42.6376 81.8099C38.8811 81.8099 35.8359 78.7647 35.8359 75.0082Z" fill="#333333"/>
<path fill-rule="evenodd" clip-rule="evenodd" d="M42.0273 72.0758C42.0273 71.7384 42.3009 71.4648 42.6383 71.4648C44.6048 71.4648 46.1816 73.0417 46.1816 75.0082C46.1816 75.3456 45.9081 75.6191 45.5707 75.6191C45.2333 75.6191 44.9598 75.3456 44.9598 75.0082C44.9598 73.7165 43.93 72.6867 42.6383 72.6867C42.3009 72.6867 42.0273 72.4132 42.0273 72.0758Z" fill="#333333"/>
<path fill-rule="evenodd" clip-rule="evenodd" d="M66.6677 60.5495C60.4369 60.5495 55.3859 65.6005 55.3859 71.8313C55.3859 78.062 60.4369 83.1131 66.6677 83.1131C72.8985 83.1131 77.9495 78.062 77.9495 71.8313C77.9495 65.6005 72.8985 60.5495 66.6677 60.5495ZM54.1641 71.8313C54.1641 64.9257 59.7621 59.3276 66.6677 59.3276C73.5733 59.3276 79.1713 64.9257 79.1713 71.8313C79.1713 78.7368 73.5733 84.3349 66.6677 84.3349C59.7621 84.3349 54.1641 78.7368 54.1641 71.8313Z" fill="#333333"/>
<path fill-rule="evenodd" clip-rule="evenodd" d="M66.0586 63.1969C66.0586 62.8595 66.3321 62.5859 66.6695 62.5859C71.8166 62.5859 75.9149 66.7732 75.9149 71.8313C75.9149 72.1687 75.6414 72.4422 75.304 72.4422C74.9666 72.4422 74.693 72.1687 74.693 71.8313C74.693 67.4404 71.1343 63.8078 66.6695 63.8078C66.3321 63.8078 66.0586 63.5343 66.0586 63.1969Z" fill="#333333"/>
<path d="M58.5188 101.889C66.8414 101.889 73.5883 95.1417 73.5883 86.819C73.5883 78.4964 66.8414 71.7495 58.5188 71.7495C50.1961 71.7495 43.4492 78.4964 43.4492 86.819C43.4492 95.1417 50.1961 101.889 58.5188 101.889Z" fill="#FFF4F4"/>
<path fill-rule="evenodd" clip-rule="evenodd" d="M58.5203 72.3605C50.535 72.3605 44.0617 78.8339 44.0617 86.8191C44.0617 94.8044 50.535 101.278 58.5203 101.278C66.5056 101.278 72.9789 94.8044 72.9789 86.8191C72.9789 78.8339 66.5056 72.3605 58.5203 72.3605ZM42.8398 86.8191C42.8398 78.1591 49.8602 71.1387 58.5203 71.1387C67.1804 71.1387 74.2008 78.1591 74.2008 86.8191C74.2008 95.4792 67.1804 102.5 58.5203 102.5C49.8602 102.5 42.8398 95.4792 42.8398 86.8191Z" fill="#333333"/>
<path fill-rule="evenodd" clip-rule="evenodd" d="M57.9102 75.0079C57.9102 74.6705 58.1837 74.397 58.5211 74.397C65.375 74.397 70.9433 79.9652 70.9433 86.8192C70.9433 87.1566 70.6697 87.4301 70.3323 87.4301C69.9949 87.4301 69.7214 87.1566 69.7214 86.8192C69.7214 80.64 64.7002 75.6188 58.5211 75.6188C58.1837 75.6188 57.9102 75.3453 57.9102 75.0079Z" fill="#333333"/>
</g>
<defs>
<clipPath id="clip0">
<rect width="64.351" height="130.738" fill="white" transform="translate(23.8203 0.0678711)"/>
</clipPath>
</defs>
</svg>
